<?xml version="1.0" encoding="UTF-8"?>
<svg width="20px" height="20px" viewBox="0 0 20 20" version="1.1" xmlns="http://www.w3.org/2000/svg" xmlns:xlink="http://www.w3.org/1999/xlink">
    <title>planet</title>
    <defs>
        <filter id="filter-1">
            <feColorMatrix in="SourceGraphic" type="matrix" values="0 0 0 0 0.825206 0 0 0 0 0.841794 0 0 0 0 0.826700 0 0 0 1.000000 0"></feColorMatrix>
        </filter>
    </defs>
    <g id="页面-1" stroke="none" stroke-width="1" fill="none" fill-rule="evenodd">
        <g id="A-02-首页-推荐-单列-en" transform="translate(-131.000000, -622.000000)">
            <g id="Moment" transform="translate(0.000000, 614.000000)" filter="url(#filter-1)">
                <g transform="translate(117.000000, 8.000000)">
                    <g id="common/icon/moment" transform="translate(14.000000, 0.000000)" fill-rule="nonzero">
                        <g id="planet">
                            <rect id="矩形" fill="#000000" opacity="0" x="0" y="0.937514518" width="20" height="19.047619"></rect>
                            <path d="M10.522608,2.63636364 L18.5201476,17.8026608 C18.6401107,18.0421286 18.6401107,18.3614191 18.4801599,18.6008869 C18.3202091,18.8403548 18.0802829,19 17.8003691,19 L1.80528979,19 C1.52537591,19 1.24546201,18.8403548 1.12549894,18.6008869 C0.965548153,18.3614191 0.965548153,18.0820399 1.08551123,17.8026608 L9.08305086,2.63636364 C9.24300165,2.35698449 9.52291554,2.19733925 9.80282943,2.19733925 C10.0827433,2.19733925 10.3626572,2.35698447 10.522608,2.63636364 Z M3.12488383,17.3636364 L16.480775,17.3636364 L13.2017838,11.1773836 C12.9218699,11.0576497 12.6019683,10.9379157 12.0821282,10.8980044 C11.2423866,10.8580931 10.8824973,11.0576497 10.3626572,11.3370288 C9.84281714,11.616408 9.20301395,11.9756098 8.08335841,11.9756098 L7.84343222,11.9756098 C7.12365366,11.9356985 6.60381359,11.7760532 6.1639489,11.5764967 L3.12488383,17.3636364 Z M9.80282943,4.71175166 L6.92371516,10.1796009 C7.16364135,10.2993348 7.48354294,10.3791574 7.92340761,10.3791574 C8.76314927,10.4190687 9.16302624,10.2195122 9.64287864,9.94013304 C10.2027064,9.62084257 10.922485,9.26164079 12.2020913,9.30155211 L12.242079,9.30155211 L9.80282943,4.71175166 Z M16.0009226,1 C17.6404183,1 19,2.35698449 19,3.99334811 C19,5.62971174 17.6404183,6.98669623 16.0009226,6.98669623 C14.361427,6.98669623 13.0018453,5.62971175 13.0018453,3.99334811 C13.0018453,2.35698447 14.361427,1 16.0009226,1 Z M16.0009226,5.39024391 C16.7606889,5.39024391 17.4004921,4.75166298 17.4004921,3.99334811 C17.4004921,3.23503325 16.7606889,2.59645234 16.0009226,2.59645234 C15.2411564,2.59645234 14.6013532,3.23503326 14.6013532,3.99334811 C14.6013532,4.75166296 15.2411564,5.39024391 16.0009226,5.39024391 Z" id="形状" fill="#2F3CF4"></path>
                        </g>
                    </g>
                </g>
            </g>
        </g>
    </g>
</svg>