<?xml version="1.0" encoding="UTF-8"?>
<svg width="20px" height="20px" viewBox="0 0 20 20" version="1.1" xmlns="http://www.w3.org/2000/svg" xmlns:xlink="http://www.w3.org/1999/xlink">
    <title>common/icon/tab_mine</title>
    <defs>
        <filter id="filter-1">
            <feColorMatrix in="SourceGraphic" type="matrix" values="0 0 0 0 0.825206 0 0 0 0 0.841794 0 0 0 0 0.826700 0 0 0 1.000000 0"></feColorMatrix>
        </filter>
    </defs>
    <g id="页面-1" stroke="none" stroke-width="1" fill="none" fill-rule="evenodd">
        <g id="A-02-首页-推荐-单列-en" transform="translate(-319.000000, -622.000000)">
            <g id="Mine" transform="translate(0.000000, 614.000000)" filter="url(#filter-1)">
                <g transform="translate(305.000000, 8.000000)">
                    <g id="common/icon/moment" transform="translate(14.000000, 0.000000)" fill="#000000" fill-rule="nonzero">
                        <g id="user-5-line">
                            <rect id="矩形" opacity="0" x="0" y="0" width="20" height="20"></rect>
                            <path d="M6.15833334,13.7825 C3.78385938,12.1080142 2.76732663,9.08854668 3.64566446,6.31897056 C4.5240023,3.54939443 7.09489963,1.6676373 10.0004167,1.6676373 C12.9059337,1.6676373 15.476831,3.54939443 16.3551689,6.31897056 C17.2335067,9.08854668 16.216974,12.1080142 13.8425,13.7825 L15.5783333,17.7491667 C15.6349696,17.8781665 15.622582,18.0270499 15.5454057,18.1449161 C15.4682294,18.2627823 15.3367181,18.3336661 15.1958333,18.3333345 L4.80416666,18.3333345 C4.66350794,18.3335423 4.53223821,18.2627699 4.45510886,18.1451435 C4.37797952,18.027517 4.36540295,17.8789159 4.42166666,17.75 L6.1575,13.7825 L6.15833334,13.7825 Z M11.7708333,13.205 L12.8808333,12.4208333 C14.6622523,11.1653194 15.425233,8.90056761 14.7666927,6.82304664 C14.1081524,4.74552568 12.1798131,3.33387851 10.0004167,3.33387851 C7.82102026,3.33387851 5.89268096,4.74552568 5.23414065,6.82304664 C4.57560034,8.90056761 5.33858106,11.1653194 7.12,12.4208333 L8.22916666,13.205 L6.715,16.6666667 L13.285,16.6666667 L11.7708333,13.205 Z M6.76583334,9.14166666 L8.3825,8.7375 C8.56711066,9.48061004 9.23430187,10.0023315 10,10.0023315 C10.7656981,10.0023315 11.4328893,9.48061004 11.6175,8.7375 L13.2341667,9.14166666 C12.8611768,10.623851 11.5283952,11.6627926 10,11.6627926 C8.4716048,11.6627926 7.13882322,10.623851 6.76583334,9.14166666 L6.76583334,9.14166666 Z" id="形状"></path>
                        </g>
                    </g>
                </g>
            </g>
        </g>
    </g>
</svg>