<?xml version="1.0" encoding="UTF-8"?>
<svg width="20px" height="20px" viewBox="0 0 20 20" version="1.1" xmlns="http://www.w3.org/2000/svg" xmlns:xlink="http://www.w3.org/1999/xlink">
    <title>home</title>
    <defs>
        <filter id="filter-1">
            <feColorMatrix in="SourceGraphic" type="matrix" values="0 0 0 0 0.825206 0 0 0 0 0.841794 0 0 0 0 0.826700 0 0 0 1.000000 0"></feColorMatrix>
        </filter>
    </defs>
    <g id="页面-1" stroke="none" stroke-width="1" fill="none" fill-rule="evenodd">
        <g id="A-02-首页-推荐-单列-en" transform="translate(-37.000000, -622.000000)">
            <g id="Home" transform="translate(0.000000, 614.000000)" filter="url(#filter-1)">
                <g transform="translate(23.000000, 8.000000)">
                    <g id="common/icon/home" transform="translate(14.000000, 0.000000)" fill-rule="nonzero">
                        <g id="home">
                            <rect id="矩形" fill="#000000" opacity="0" x="0" y="0" width="20" height="20"></rect>
                            <path d="M9.98690061,3.81081203 L16.1774682,10.0013796 L16.1774682,16.2341425 L3.82225691,16.2341425 L3.82225691,9.97380102 L9.98690061,3.81081203 M9.98690061,2.00000004 C9.54786818,1.99944402 9.12672793,2.17393484 8.81674075,2.48483311 L2.54178266,8.75896384 C2.23127248,9.06952645 2.05695462,9.49078635 2.0572264,9.92995105 L2.0572264,16.3450084 C2.0572264,17.2588827 2.79806822,17.9997242 3.71194252,17.9997242 L16.2877826,17.9997242 C17.2016569,17.9997242 17.9424984,17.2588827 17.9424984,16.3450084 L17.9424984,9.95587494 C17.9423316,9.51728361 17.7680471,9.0966996 17.4579424,8.78654244 L11.1581636,2.48483311 C10.8481311,2.174036 10.4269965,1.99964676 9.98800375,2.00027717 L9.98690061,2.00000004 Z" id="形状" fill="#171731"></path>
                            <path d="M8.23483236,12.647546 L11.7648927,12.647546 C12.3532361,12.647546 12.6474078,12.9417177 12.6474078,13.5300611 L12.6474078,13.5300611 C12.6474078,14.1184045 12.3532361,14.4125762 11.7648927,14.4125762 L8.23483236,14.4125762 C7.64648896,14.4125762 7.35231727,14.1184045 7.35231727,13.5300611 L7.35231727,13.5300611 C7.35231727,12.9417177 7.64648896,12.647546 8.23483236,12.647546 Z" id="路径" fill="#171731"></path>
                        </g>
                    </g>
                </g>
            </g>
        </g>
    </g>
</svg>