<?xml version="1.0" encoding="UTF-8"?>
<svg width="67px" height="67px" viewBox="0 0 67 67" version="1.1" xmlns="http://www.w3.org/2000/svg" xmlns:xlink="http://www.w3.org/1999/xlink">
    <title>hi/common/info/sex/female</title>
    <defs>
        <filter id="filter-1">
            <feColorMatrix in="SourceGraphic" type="matrix" values="0 0 0 0 0.825206 0 0 0 0 0.841794 0 0 0 0 0.826700 0 0 0 1.000000 0"></feColorMatrix>
        </filter>
    </defs>
    <g id="HiDPI" stroke="none" stroke-width="1" fill="none" fill-rule="evenodd">
        <g id="登录页面-用户信息更新" transform="translate(-105.000000, -347.000000)">
            <g id="hi/common/info/sex/female" transform="translate(105.000000, 347.000000)" filter="url(#filter-1)">
                <g id="女" fill-rule="nonzero">
                    <rect id="矩形" fill="#000000" opacity="0" x="5.58333333" y="5.58333333" width="55.8333333" height="55.8333333"></rect>
                    <path d="M24.8272222,27.6188889 C24.8272222,30.7156009 26.4792983,33.5770809 29.1611296,35.1254369 C31.8429609,36.6737929 35.1471132,36.6737929 37.8289445,35.1254369 C40.5107758,33.5770809 42.1628519,30.7156009 42.1628519,27.6188889 C42.1628519,22.831787 38.2821389,18.9510743 33.495037,18.9510743 C28.7079352,18.9510743 24.8272222,22.831787 24.8272222,27.6188889 L24.8272222,27.6188889 Z" id="路径" fill="#FF7977"></path>
                    <path d="M33.495037,5.63892537 C26.0964752,5.6083327 18.992034,8.53375955 13.7604153,13.7653782 C8.5287966,18.9969969 5.60336975,26.1014381 5.63396242,33.5 C5.60336975,40.8985619 8.5287966,48.0030031 13.7604153,53.2346218 C18.992034,58.4662404 26.0964752,61.3916673 33.495037,61.3610746 C40.8935989,61.3916673 47.9980401,58.4662404 53.2296588,53.2346218 C58.4612775,48.0030031 61.3867043,40.8985619 61.3561117,33.5 C61.3867043,26.1014381 58.4612775,18.9969969 53.2296588,13.7653782 C47.9980401,8.53375955 40.8935989,5.6083327 33.495037,5.63892537 Z M35.6626111,40.0014815 L35.6626111,42.7869444 L40.305463,42.7869444 C41.5437222,42.7869444 42.1628519,43.7162592 42.1628519,44.6443333 C42.1628519,45.5736481 41.2347778,46.8119074 40.305463,46.8119074 L35.6626111,46.8119074 L35.6626111,50.2165 C35.6626111,51.4547592 34.7332963,52.0738889 33.8052222,52.0738889 C32.566963,52.0738889 31.9478333,51.1458148 31.9478333,50.2165 L31.9478333,46.8131481 L26.9947963,46.8131481 C25.756537,46.8131481 25.1374074,45.8838333 25.1374074,44.9557592 C25.1374074,44.0264444 26.0654815,43.0983703 26.9947963,43.0983704 L31.6376481,43.0983704 L31.6376481,40.3116667 C25.756537,39.3835926 21.1124444,34.1203704 21.1124444,27.9290741 C21.1124444,21.1174074 26.6846111,15.2362963 33.8052222,15.2362963 C40.6156481,15.2362963 46.498,20.808463 46.498,27.9290741 C46.1878148,33.8101852 41.5437222,39.0734074 35.6626111,40.0014815 L35.6626111,40.0014815 Z" id="形状" fill="#FF7977"></path>
                </g>
            </g>
        </g>
    </g>
</svg>