<?xml version="1.0" encoding="UTF-8"?>
<svg width="67px" height="67px" viewBox="0 0 67 67" version="1.1" xmlns="http://www.w3.org/2000/svg" xmlns:xlink="http://www.w3.org/1999/xlink">
    <title>男</title>
    <defs>
        <filter id="filter-1">
            <feColorMatrix in="SourceGraphic" type="matrix" values="0 0 0 0 0.825206 0 0 0 0 0.841794 0 0 0 0 0.826700 0 0 0 1.000000 0"></feColorMatrix>
        </filter>
    </defs>
    <g id="HiDPI" stroke="none" stroke-width="1" fill="none" fill-rule="evenodd">
        <g id="登录页面-用户信息更新" transform="translate(-204.000000, -347.000000)">
            <g id="hi/common/info/sex/male" transform="translate(105.000000, 347.000000)" filter="url(#filter-1)">
                <g transform="translate(99.000000, 0.000000)" id="男" fill-rule="nonzero">
                    <rect id="矩形" fill="#000000" opacity="0" x="0" y="0" width="67" height="67"></rect>
                    <path d="M33.5,5.58333333 C48.9179493,5.58333333 61.4166667,18.0820507 61.4166667,33.5 C61.4166667,48.9179493 48.9179493,61.4166667 33.5,61.4166667 C18.0820507,61.4166667 5.58333333,48.9179493 5.58333333,33.5 C5.58333333,18.0820507 18.0820507,5.58333333 33.5,5.58333333 Z M45.4244048,21.0571428 L37.4482143,21.0571428 C36.7357312,21.0571428 36.0773192,21.4370626 35.7210436,22.0540715 C35.364768,22.6710803 35.364768,23.4313006 35.7210436,24.0483095 C36.0773192,24.6653184 36.7357312,25.0453559 37.4482143,25.0452381 L40.6067857,25.04125 L35.3704167,30.2816071 C31.1004983,27.45918 25.387004,28.3285077 22.1497653,32.2931746 C18.9125265,36.2578414 19.2032837,42.0297742 22.8225583,45.6490488 C26.441833,49.2683235 32.2137657,49.5590806 36.1784326,46.3218419 C40.1430994,43.0846031 41.0124271,37.3711088 38.19,33.1011905 L43.426369,27.8608333 L43.426369,31.027381 C43.426369,32.1286631 44.3191346,33.0214286 45.4204167,33.0214286 C46.5216988,33.0214286 47.4144643,32.1286631 47.4144643,31.027381 L47.4144643,23.0511905 C47.4144643,21.9499084 46.5216987,21.0571428 45.4204167,21.0571428 L45.4244048,21.0571428 Z M34.0982143,34.3694048 C35.6540034,35.8706384 36.2787139,38.0945174 35.7322394,40.1862985 C35.185765,42.2780795 33.5531491,43.9122356 31.4618843,44.4606822 C29.3706194,45.0091289 27.1461523,44.3865157 25.6434524,42.8321429 C23.3752545,40.4859493 23.4059058,36.7548157 25.7123429,34.4462028 C28.01878,32.1375898 31.7498829,32.1034203 34.0982143,34.3694048 L34.0982143,34.3694048 Z" id="形状" fill="#7CC6FE"></path>
                </g>
            </g>
        </g>
    </g>
</svg>