<?xml version="1.0" encoding="UTF-8"?>
<svg width="17px" height="17px" viewBox="0 0 17 17" version="1.1" xmlns="http://www.w3.org/2000/svg" xmlns:xlink="http://www.w3.org/1999/xlink">
    <title>common/icon/check</title>
    <defs>
        <filter id="filter-1">
            <feColorMatrix in="SourceGraphic" type="matrix" values="0 0 0 0 1.000000 0 0 0 0 1.000000 0 0 0 0 1.000000 0 0 0 1.000000 0"></feColorMatrix>
        </filter>
    </defs>
    <g id="页面-1" stroke="none" stroke-width="1" fill="none" fill-rule="evenodd">
        <g id="D-06-登录页面-用户信息更新" transform="translate(-179.000000, -616.000000)">
            <g id="common/icon/check" transform="translate(152.000000, 589.000000)" filter="url(#filter-1)">
                <g transform="translate(27.147059, 27.147059)" id="check" fill="#000000" fill-rule="nonzero">
                    <rect id="矩形" opacity="0" x="0" y="0" width="16.7058824" height="16.7058824"></rect>
                    <path d="M15.5782353,5.27667226 C15.5782353,5.52487394 15.491126,5.73608402 15.3169076,5.91030251 L7.29927731,13.9279328 C7.12505882,14.1021513 6.91384873,14.1892605 6.66564706,14.1892605 C6.41744538,14.1892605 6.2062353,14.1021513 6.03201681,13.9279328 L1.38897479,9.28489075 C1.2147563,9.11067226 1.12764706,8.89946218 1.12764706,8.6512605 C1.12764706,8.40305882 1.2147563,8.19184874 1.38897479,8.01763025 L2.65623529,6.75036975 C2.83045378,6.57615126 3.04166387,6.48904201 3.28986554,6.48904201 C3.53806722,6.48904201 3.7492773,6.57615126 3.92349579,6.75036975 L6.66445378,9.50087396 L12.78,3.37578151 C12.9542185,3.20156302 13.1654286,3.11445378 13.4136302,3.11445378 C13.6618319,3.11445378 13.873042,3.20156302 14.0472605,3.37578151 L15.314521,4.64304201 C15.4887395,4.8172605 15.5758487,5.02847059 15.5758487,5.27667226 L15.5782353,5.27667226 Z" id="路径"></path>
                </g>
            </g>
        </g>
    </g>
</svg>