<?xml version="1.0" encoding="UTF-8"?>
<svg width="30px" height="30px" viewBox="0 0 30 30" version="1.1" xmlns="http://www.w3.org/2000/svg" xmlns:xlink="http://www.w3.org/1999/xlink">
    <title>edit</title>
    <g id="HiDPI" stroke="none" stroke-width="1" fill="none" fill-rule="evenodd">
        <g id="登录页面-用户信息-填写生日" transform="translate(-233.000000, -285.000000)" fill="#000000" fill-rule="nonzero">
            <g id="edit" transform="translate(233.000000, 285.000000)">
                <rect id="矩形" opacity="0" x="0" y="0" width="30" height="30"></rect>
                <path d="M21.78125,28.125 L6.03124999,28.125 C3.73437499,28.125 1.875,26.265625 1.875,23.96875 L1.875,8.21875002 C1.875,5.92187501 3.73437499,4.0625 6.03124999,4.0625 L13.90625,4.0625 C14.5625,4.0625 15,4.5 15,5.15625001 C15,5.81250001 14.5625,6.25000001 13.90625,6.25000001 L6.03124999,6.25000001 C4.93750001,6.25000001 4.06249999,7.12500001 4.06249999,8.21875002 L4.06249999,23.859375 C4.06249999,24.953125 4.93749998,25.828125 6.03124999,25.828125 L21.671875,25.828125 C22.765625,25.828125 23.640625,24.953125 23.640625,23.859375 L23.640625,16.09375 C23.640625,15.4375 24.078125,15 24.734375,15 C25.390625,15 25.828125,15.4375 25.828125,16.09375 L25.828125,23.96875 C25.9375,26.265625 24.078125,28.125 21.78125,28.125 Z M8.4375,22.6562501 C8.109375,22.6562501 7.89062501,22.546875 7.67187499,22.328125 C7.453125,22.109375 7.34374999,21.671875 7.34374999,21.34375 L8.4375,15.875 C8.4375,15.65625 8.54687501,15.4375 8.765625,15.328125 L21.890625,2.20312503 C22.328125,1.76562502 22.984375,1.76562502 23.421875,2.20312503 L27.796875,6.57812504 C28.234375,7.01562505 28.234375,7.67187505 27.796875,8.10937503 L14.671875,21.234375 C14.5625,21.3437501 14.34375,21.453125 14.125,21.5625 L8.65625002,22.6562501 C8.54687501,22.6562501 8.54687501,22.6562501 8.4375,22.6562501 Z M10.515625,16.640625 L9.85937501,20.140625 L13.359375,19.484375 L25.5,7.34375 L22.65625,4.5 L10.515625,16.640625 Z" id="形状"></path>
            </g>
        </g>
    </g>
</svg>