<?xml version="1.0" encoding="UTF-8"?>
<svg width="16px" height="17px" viewBox="0 0 16 17" version="1.1" xmlns="http://www.w3.org/2000/svg" xmlns:xlink="http://www.w3.org/1999/xlink">
    <title>common/icon/room_user_number</title>
    <g id="HiDPI" stroke="none" stroke-width="1" fill="none" fill-rule="evenodd">
        <g id="A-12-首页-我的-最近浏览-删除" transform="translate(-250.000000, -279.000000)" fill="#000000" fill-rule="nonzero">
            <g id="room-item-info备份-3" transform="translate(-45.000000, 235.000000)">
                <g id="user" transform="translate(295.000000, 44.687500)">
                    <rect id="矩形" opacity="0" x="0" y="0" width="16" height="16.25"></rect>
                    <path d="M13.4140625,12.1176758 C13.11875,11.4067383 12.69375,10.7687988 12.1546875,10.2213135 C11.615625,9.67382812 10.9875,9.24377441 10.2875,8.94226074 C10.28125,8.93908691 10.275,8.9375 10.26875,8.93432617 C11.2421875,8.22021484 11.875,7.05700684 11.875,5.74462891 C11.875,3.57055664 10.140625,1.80908203 8,1.80908203 C5.859375,1.80908203 4.125,3.57055664 4.125,5.74462891 C4.125,7.05700684 4.7578125,8.22021484 5.73125,8.93591309 C5.725,8.93908691 5.71875,8.94067383 5.7125,8.94384766 C5.0125,9.24377441 4.384375,9.67382812 3.8453125,10.2229004 C3.30625,10.7703857 2.8828125,11.4083252 2.5859375,12.1192627 C2.2953125,12.8143311 2.140625,13.5522461 2.12496822,14.310791 C2.1234375,14.3822021 2.1796875,14.440918 2.25,14.440918 L3.1875,14.440918 C3.25625,14.440918 3.3109375,14.385376 3.3125,14.3171387 C3.34375,13.092041 3.828125,11.9447021 4.684375,11.0750732 C5.5703125,10.175293 6.746875,9.68017578 8,9.68017578 C9.253125,9.68017578 10.4296875,10.175293 11.315625,11.0750732 C12.171875,11.9447021 12.65625,13.092041 12.6875,14.3171387 C12.6890625,14.3869629 12.74375,14.440918 12.8125,14.440918 L13.75,14.440918 C13.8203125,14.440918 13.8765625,14.3822021 13.8750318,14.310791 C13.859375,13.5522461 13.7046875,12.8143311 13.4140625,12.1176758 Z M8,8.47412109 C7.2828125,8.47412109 6.6078125,8.19006348 6.1,7.67431641 C5.5921875,7.15856934 5.3125,6.47302246 5.3125,5.74462891 C5.3125,5.01623535 5.5921875,4.33068848 6.1,3.81494141 C6.6078125,3.29919434 7.2828125,3.01513672 8,3.01513672 C8.7171875,3.01513672 9.3921875,3.29919434 9.9,3.81494141 C10.4078125,4.33068848 10.6875,5.01623535 10.6875,5.74462891 C10.6875,6.47302246 10.4078125,7.15856934 9.9,7.67431641 C9.3921875,8.19006348 8.7171875,8.47412109 8,8.47412109 Z" id="形状"></path>
                </g>
            </g>
        </g>
    </g>
</svg>