<?xml version="1.0" encoding="UTF-8"?>
<svg width="16px" height="16px" viewBox="0 0 16 16" version="1.1" xmlns="http://www.w3.org/2000/svg" xmlns:xlink="http://www.w3.org/1999/xlink">
    <title>common/icon/user_id</title>
    <g id="HiDPI" stroke="none" stroke-width="1" fill="none" fill-rule="evenodd">
        <g id="A-09-首页-我的-我的房间-多备份" transform="translate(-248.000000, -508.000000)" fill="#000000" fill-rule="nonzero">
            <g id="room-mine-big" transform="translate(16.000000, 308.000000)">
                <g id="room-id" transform="translate(232.000000, 199.000000)">
                    <g id="user-card" transform="translate(0.000000, 1.000000)">
                        <rect id="矩形" opacity="0" x="0" y="0" width="16" height="16"></rect>
                        <path d="M14.125,13 L11.5,13 L11.5,12.1666667 L11.9375,12.1666667 C12.1791246,12.1666667 12.375,11.9801186 12.375,11.75 C12.375,11.5198814 12.1791246,11.3333333 11.9375,11.3333333 L10.1875,11.3333333 C9.946875,11.3333333 9.75,11.52 9.75,11.75 C9.75,11.98 9.946875,12.1666667 10.1875,12.1666667 L10.625,12.1666667 L10.625,13 L5.375,13 L5.375,12.1666667 L5.8125,12.1666667 C6.05412458,12.1666667 6.25,11.9801186 6.25,11.75 C6.25,11.5198814 6.05412458,11.3333333 5.8125,11.3333333 L4.0625,11.3333333 C3.82087542,11.3333333 3.625,11.5198814 3.625,11.75 C3.625,11.9801186 3.82087542,12.1666667 4.0625,12.1666667 L4.5,12.1666667 L4.5,13 L1.875,13 C1.39175084,13 1,12.626904 1,12.1666667 L1,3.83333333 C1,3.37333333 1.392,3 1.875,3 L14.125,3 C14.6082492,3 15,3.37309604 15,3.83333333 L15,12.1666667 C15,12.6275 14.608875,13 14.125,13 Z M9.75,10.5 L10.625,10.5 L10.625,9.66666667 L9.75,9.66666667 L9.75,10.5 Z M9.75,7.16666667 L11.5,7.16666667 L11.5,6.33333333 L9.75,6.33333333 L9.75,7.16666667 Z M8.875,4.66666667 L2.75,4.66666667 L2.75,10.5 L8.875,10.5 L8.875,4.66666667 Z M12.375,4.66666667 L9.75,4.66666667 L9.75,5.5 L12.375,5.5 L12.375,4.66666667 Z M14.125,4.66666667 L13.25,4.66666667 L13.25,5.5 L14.125,5.5 L14.125,4.66666667 Z M14.125,6.33333333 L12.375,6.33333333 L12.375,7.16666667 L14.125,7.16666667 L14.125,6.33333333 Z M14.125,8 L9.75,8 L9.75,8.83333333 L14.125,8.83333333 L14.125,8 Z M5.375,8.88416667 L5.375,8.74916667 C4.8675,8.57583333 4.5,8.12583333 4.5,7.58333333 L4.5,6.75 C4.5,6.05916667 5.087125,5.5 5.8125,5.5 C6.537875,5.5 7.125,6.05916667 7.125,6.75 L7.125,7.58333333 C7.125,8.12583333 6.7575,8.57583333 6.25,8.74916667 L6.25,8.88333333 C6.7695287,8.98565228 7.23245046,9.2639768 7.552875,9.66666667 L4.072125,9.66666667 C4.39236835,9.26394743 4.85541858,8.98584185 5.375,8.88416667 L5.375,8.88416667 Z" id="形状"></path>
                    </g>
                </g>
            </g>
        </g>
    </g>
</svg>