<?xml version="1.0" encoding="UTF-8"?>
<svg width="16px" height="16px" viewBox="0 0 16 16" version="1.1" xmlns="http://www.w3.org/2000/svg" xmlns:xlink="http://www.w3.org/1999/xlink">
    <title>common-icon-minimize窗口化</title>
    <g id="页面-1" stroke="none" stroke-width="1" fill="none" fill-rule="evenodd">
        <g id="A-07-首页-我的-我的房间" transform="translate(-327.000000, -249.000000)" fill-rule="nonzero">
            <g id="room-mine-big" transform="translate(16.000000, 233.000000)">
                <g id="minimize窗口化" transform="translate(311.000000, 16.000000)">
                    <rect id="矩形" fill="#000000" opacity="0" x="0" y="0" width="16" height="16"></rect>
                    <path d="M6.66666667,9.33333333 L6.67933333,9.33333333 C6.694,9.33333333 6.70866666,9.33466666 6.72266667,9.336 L6.66666667,9.33333333 C6.70601464,9.33344687 6.74527661,9.33701615 6.784,9.344 L6.79933333,9.34666667 C6.84632331,9.3561209 6.89214754,9.37065053 6.936,9.39 L6.94933333,9.396 L6.96,9.40133333 C7.00080451,9.42132785 7.0394511,9.44545404 7.07533333,9.47333333 L7.07666667,9.474 L7.08333333,9.48 C7.12333333,9.512 7.16,9.54866667 7.19133333,9.58866667 L7.138,9.52866667 C7.25709353,9.64862956 7.32660156,9.80906931 7.33266667,9.978 L7.33333333,10 L7.33333333,14 C7.33333333,14.36815 7.03481664,14.6665646 6.66666666,14.6665646 C6.29851669,14.6665646 6.00005636,14.36815 6,14 L6,11.6093333 L2.424,15.1853333 C2.25661706,15.3586379 2.00874803,15.428142 1.77566163,15.3671318 C1.54257523,15.3061215 1.36054518,15.1240914 1.2995349,14.891005 C1.23852463,14.6579187 1.30802877,14.4100496 1.48133333,14.2426667 L5.056,10.6666667 L2.66666667,10.6666667 C2.29847684,10.6666667 2,10.3681898 2,10 C2,9.63181016 2.29847684,9.33333333 2.66666667,9.33333333 L6.66666667,9.33333333 L6.66666667,9.33333333 Z M14.5186667,2.148 C14.7789213,2.40833324 14.7789213,2.83033344 14.5186667,3.09066667 L10.9426667,6.66666667 L13.3333333,6.66666667 C13.7014833,6.66672303 13.9998979,6.96518336 13.9998979,7.33333334 C13.9998979,7.70148331 13.7014833,8 13.3333333,8 L9.31133333,8 L9.27666667,7.99733333 L9.25533333,7.99533333 L9.23066667,7.992 C9.22576801,7.99116569 9.22087882,7.99027674 9.216,7.98933333 L9.20066667,7.98666667 C9.04456357,7.95548491 8.9049236,7.86909746 8.80733333,7.74333333 L8.862,7.80466667 C8.74064562,7.68264373 8.67073052,7.51871309 8.666633,7.34666667 C8.666633,7.34222234 8.666633,7.33777766 8.666633,7.33333333 L8.666633,3.33333333 C8.66672303,2.96518335 8.96518336,2.66676872 9.33333334,2.66676872 C9.70148331,2.66676872 9.99994364,2.96518335 10,3.33333333 L10,5.72266667 L13.576,2.148 C13.8363332,1.88774537 14.2583334,1.88774537 14.5186667,2.148 Z" id="形状" fill="#666666"></path>
                </g>
            </g>
        </g>
    </g>
</svg>