<?xml version="1.0" encoding="UTF-8"?>
<svg width="16px" height="16px" viewBox="0 0 16 16" version="1.1" xmlns="http://www.w3.org/2000/svg" xmlns:xlink="http://www.w3.org/1999/xlink">
    <title>common/icon/setting</title>
    <g id="HiDPI" stroke="none" stroke-width="1" fill="none" fill-rule="evenodd">
        <g id="首页-我的-我的房间" transform="translate(-320.000000, -568.000000)" fill="#000000" fill-rule="nonzero">
            <g id="room-mine-big" transform="translate(17.000000, 232.000000)">
                <g id="configure" transform="translate(303.000000, 336.000000)">
                    <rect id="矩形" opacity="0" x="1" y="1" width="14" height="14"></rect>
                    <path d="M15,9.099875 L15,6.8996875 L12.8243125,6.68225 C12.7123125,6.2714375 12.5495625,5.881625 12.3430625,5.52025 L13.77325,3.7724375 L12.2275625,2.22675 L10.47975,3.6569375 C10.118375,3.45 9.7285625,3.28725 9.31775,3.1756875 L9.1003125,1 L6.900125,1 L6.6826875,3.1756875 C6.271875,3.2876875 5.8820625,3.4504375 5.5206875,3.6569375 L3.772875,2.22675 L2.2271875,3.7724375 L3.657375,5.52025 C3.4504375,5.881625 3.2876875,6.2714375 3.176125,6.68225 L1.0004375,6.8996875 L1.0004375,9.099875 L3.176125,9.3173125 C3.288125,9.728125 3.450875,10.1179375 3.657375,10.4793125 L2.2271875,12.227125 L3.772875,13.7728125 L5.5206875,12.342625 C5.8820625,12.5495625 6.271875,12.7123125 6.6826875,12.823875 L6.900125,14.9995625 L9.1003125,14.9995625 L9.31775,12.823875 C9.7285625,12.711875 10.118375,12.549125 10.47975,12.342625 L12.2275625,13.7728125 L13.77325,12.227125 L12.3430625,10.4793125 C12.55,10.1179375 12.71275,9.728125 12.8243125,9.3173125 L15,9.099875 L15,9.099875 Z M10.625,8.875 L8.875,10.625 L7.125,10.625 L5.375,8.875 L5.375,7.125 L7.125,5.375 L8.875,5.375 L10.625,7.125 L10.625,8.875 Z" id="形状"></path>
                </g>
            </g>
        </g>
    </g>
</svg>