<?xml version="1.0" encoding="UTF-8"?>
<svg width="12px" height="12px" viewBox="0 0 12 12" version="1.1" xmlns="http://www.w3.org/2000/svg" xmlns:xlink="http://www.w3.org/1999/xlink">
    <title>common/icon/room_user_number</title>
    <defs>
        <filter id="filter-1">
            <feColorMatrix in="SourceGraphic" type="matrix" values="0 0 0 0 1.000000 0 0 0 0 1.000000 0 0 0 0 1.000000 0 0 0 1.000000 0"></feColorMatrix>
        </filter>
    </defs>
    <g id="页面-1" stroke="none" stroke-width="1" fill="none" fill-rule="evenodd">
        <g id="A-01-T-01首页-推荐-双列-en" transform="translate(-322.000000, -370.000000)">
            <g id="room-info-hot备份" transform="translate(199.000000, 228.000000)" filter="url(#filter-1)">
                <g transform="translate(123.000000, 142.000000)" id="common/icon/room-user-number" fill="#000000" fill-rule="nonzero">
                    <g id="user">
                        <rect id="矩形" opacity="0" x="0" y="0" width="12" height="12"></rect>
                        <path d="M10.0605469,8.9484375 C9.8390625,8.4234375 9.5203125,7.95234375 9.11601563,7.54804688 C8.71171875,7.14375 8.240625,6.82617188 7.715625,6.60351563 C7.7109375,6.60117188 7.70625,6.6 7.7015625,6.59765625 C8.43164063,6.0703125 8.90625,5.21132812 8.90625,4.2421875 C8.90625,2.63671875 7.60546875,1.3359375 6,1.3359375 C4.39453125,1.3359375 3.09375,2.63671875 3.09375,4.2421875 C3.09375,5.21132812 3.56835938,6.0703125 4.2984375,6.59882813 C4.29375,6.60117188 4.2890625,6.60234375 4.284375,6.6046875 C3.759375,6.82617188 3.28828125,7.14375 2.88398438,7.54921875 C2.4796875,7.95351563 2.16210938,8.42460938 1.93945313,8.94960938 C1.72148438,9.46289062 1.60546875,10.0078125 1.59372616,10.5679688 C1.59257813,10.6207031 1.63476563,10.6640625 1.6875,10.6640625 L2.390625,10.6640625 C2.4421875,10.6640625 2.48320313,10.6230469 2.484375,10.5726563 C2.5078125,9.66796875 2.87109375,8.82070313 3.51328125,8.17851563 C4.17773438,7.5140625 5.06015625,7.1484375 6,7.1484375 C6.93984375,7.1484375 7.82226563,7.5140625 8.48671875,8.17851562 C9.12890625,8.82070313 9.4921875,9.66796875 9.515625,10.5726563 C9.51679688,10.6242188 9.5578125,10.6640625 9.609375,10.6640625 L10.3125,10.6640625 C10.3652344,10.6640625 10.4074219,10.6207031 10.4062738,10.5679688 C10.3945313,10.0078125 10.2785156,9.46289062 10.0605469,8.9484375 Z M6,6.2578125 C5.46210938,6.2578125 4.95585938,6.04804688 4.575,5.6671875 C4.19414063,5.28632813 3.984375,4.78007813 3.984375,4.2421875 C3.984375,3.70429688 4.19414063,3.19804688 4.575,2.8171875 C4.95585938,2.43632813 5.46210938,2.2265625 6,2.2265625 C6.53789063,2.2265625 7.04414063,2.43632813 7.425,2.8171875 C7.80585938,3.19804688 8.015625,3.70429688 8.015625,4.2421875 C8.015625,4.78007813 7.80585938,5.28632813 7.425,5.6671875 C7.04414063,6.04804688 6.53789063,6.2578125 6,6.2578125 Z" id="形状"></path>
                    </g>
                </g>
            </g>
        </g>
    </g>
</svg>