<?xml version="1.0" encoding="UTF-8"?>
<svg width="16px" height="16px" viewBox="0 0 16 16" version="1.1" xmlns="http://www.w3.org/2000/svg" xmlns:xlink="http://www.w3.org/1999/xlink">
    <title>common/icon/user_check</title>
    <g id="HiDPI" stroke="none" stroke-width="1" fill="none" fill-rule="evenodd">
        <g id="A-09-首页-我的-我的房间-多备份" transform="translate(-248.000000, -483.000000)" fill="#000000" fill-rule="nonzero">
            <g id="room-mine-big" transform="translate(16.000000, 308.000000)">
                <g id="follow-number" transform="translate(232.000000, 174.000000)">
                    <g id="user-check" transform="translate(0.000000, 1.000000)">
                        <rect id="矩形" opacity="0" x="1" y="1" width="14" height="14"></rect>
                        <path d="M8,9.19999999 L3.91666666,9.19999999 C2.28333332,9.19999999 1,10.52 1,12.2 L1,13.4 C1,13.76 1.23333334,14 1.58333334,14 C1.93333334,14 2.16666668,13.76 2.16666666,13.4 L2.16666666,12.2 C2.16666666,11.18 2.925,10.4 3.91666666,10.4 L8,10.4 C8.99166666,10.4 9.75,11.18 9.75,12.2 L9.75,13.4 C9.75,13.76 9.98333334,14 10.3333333,14 C10.6833333,14 10.9166667,13.76 10.9166667,13.4 L10.9166667,12.2 C10.9166667,10.52 9.63333332,9.19999999 8,9.19999999 L8,9.19999999 Z M5.95833334,8 C7.59166667,8 8.875,6.68 8.875,5 C8.875,3.32000002 7.59166666,2 5.95833334,2 C4.32500001,2 3.04166666,3.32 3.04166666,5 C3.04166666,6.68000001 4.325,8 5.95833334,8 Z M5.95833334,3.20000001 C6.95,3.20000001 7.70833334,3.98000001 7.70833334,5.00000001 C7.70833334,6.02 6.95,6.80000001 5.95833334,6.80000001 C4.96666667,6.80000001 4.20833334,6.02 4.20833334,5.00000001 C4.20833334,3.98000001 4.96666667,3.20000001 5.95833334,3.20000001 Z M14.825,5.78 C14.5916667,5.53999999 14.2416667,5.53999999 14.0083333,5.78 L12.0833333,7.76 L11.325,6.98000001 C11.0916667,6.74 10.7416667,6.74 10.5083333,6.98000001 C10.275,7.22000001 10.275,7.58000001 10.5083333,7.82 L11.675,9.01999999 C11.7916667,9.13999999 11.9666667,9.19999999 12.0833333,9.19999999 C12.2,9.19999999 12.375,9.13999999 12.4916667,9.01999999 L14.825,6.62000001 C15.0583333,6.38 15.0583333,6.02 14.825,5.78 L14.825,5.78 Z" id="形状"></path>
                    </g>
                </g>
            </g>
        </g>
    </g>
</svg>