<?xml version="1.0" encoding="UTF-8"?>
<svg width="32px" height="32px" viewBox="0 0 32 32" version="1.1" xmlns="http://www.w3.org/2000/svg" xmlns:xlink="http://www.w3.org/1999/xlink">
    <title>任务</title>
    <g id="HiDPI" stroke="none" stroke-width="1" fill="none" fill-rule="evenodd">
        <g id="H-01-Profile" transform="translate(-219.000000, -418.000000)" fill="#000000" fill-rule="nonzero">
            <g id="Task" transform="translate(195.000000, 393.000000)">
                <g id="任务" transform="translate(24.000000, 25.000000)">
                    <rect id="矩形" opacity="0" x="0" y="0" width="32" height="32"></rect>
                    <path d="M26.3731148,2.46153846 L6.44739802,2.46153846 C4.24608252,2.46153846 2.46153846,4.24608252 2.46153846,6.44739802 L2.46153846,26.3731148 C2.46153846,28.5744303 4.24608252,30.3589744 6.44739802,30.3589744 L26.3731148,30.3589744 C28.5744303,30.3589744 30.3589744,28.5744303 30.3589744,26.3731148 L30.3589744,6.44739802 C30.3589744,4.24608252 28.5744303,2.46153846 26.3731148,2.46153846 Z M28.3679146,26.3785642 C28.3683362,26.9067799 28.1585052,27.4134433 27.7847461,27.7866941 C27.4109871,28.1599449 26.9040385,28.3690862 26.3758239,28.3679487 L6.45200667,28.3679487 C5.91914707,28.3679487 5.41599458,28.1632017 5.03914402,27.7863823 C4.66229345,27.4095628 4.45259987,26.9114238 4.45259987,26.3785642 L4.45259987,6.4492664 C4.45459156,5.34629416 5.34903275,4.45307885 6.45200667,4.45259987 L26.3758239,4.45259987 C26.9047875,4.45313635 27.4118652,4.66381723 27.7854696,5.03828015 C28.1590741,5.41274308 28.3685906,5.92030298 28.3679146,6.4492664 L28.3679146,26.3785642 Z M25.1329208,11.4269822 L17.161264,11.4269822 C16.6114475,11.4269822 16.1657333,11.8726965 16.1657333,12.4225129 C16.1657333,12.9723293 16.6114475,13.4180436 17.161264,13.4180436 L25.1329831,13.4180436 C25.6827995,13.4180436 26.1285138,12.9723293 26.1285138,12.4225129 C26.1285138,11.8726965 25.6827995,11.4269822 25.1329831,11.4269822 L25.1329208,11.4269822 Z M25.1329208,19.4024692 L17.161264,19.4024692 C16.6114475,19.4024692 16.1657333,19.8481835 16.1657333,20.3979999 C16.1657333,20.9478163 16.6114475,21.3935306 17.161264,21.3935306 L25.1329831,21.3935306 C25.6827995,21.3935306 26.1285138,20.9478163 26.1285138,20.3979999 C26.1285138,19.8481835 25.6827995,19.4024692 25.1329831,19.4024692 L25.1329208,19.4024692 Z M11.1825369,16.9120855 C9.25637027,16.9120855 7.69534574,18.473546 7.69534574,20.3992455 C7.69534574,22.324945 9.25680623,23.8864678 11.1825369,23.8864678 C13.1082676,23.8864678 14.6696969,22.3250073 14.6696969,20.3992766 C14.6696969,18.473546 13.1086724,16.9120855 11.1825369,16.9120855 L11.1825369,16.9120855 Z M12.2407203,21.457896 C11.7358184,21.9623243 10.9449149,22.0398793 10.3516453,21.6431364 C9.75837558,21.2463934 9.52795117,20.4858359 9.80127593,19.8265428 C10.0746007,19.1672496 10.7755602,18.7928182 11.4755196,18.9322124 C12.175479,19.0716065 12.6795163,19.6860082 12.6794188,20.3997126 C12.6804217,20.7969194 12.5224487,21.1780145 12.2407203,21.4580206 L12.2407203,21.457896 Z M13.4679914,9.73118579 L10.1859786,13.0130741 L8.8970824,11.7240533 C8.64558324,11.4725541 8.27901523,11.3743325 7.93546098,11.4663876 C7.59190674,11.5584427 7.32356033,11.8267891 7.23150525,12.1703433 C7.13945016,12.5138976 7.23767177,12.8804656 7.48917093,13.1319648 L9.48200729,15.1249568 C9.66870753,15.3116702 9.92193529,15.4165658 10.1859786,15.4165658 C10.4500219,15.4165658 10.7032497,15.3116702 10.8899499,15.1249568 L14.8758095,11.1390973 C15.2604005,10.7496273 15.2584352,10.1227296 14.8714099,9.73567851 C14.4843845,9.34862746 13.8574869,9.3466206 13.4679914,9.73118579 L13.4679914,9.73118579 Z" id="形状"></path>
                </g>
            </g>
        </g>
    </g>
</svg>