<?xml version="1.0" encoding="UTF-8"?>
<svg width="16px" height="16px" viewBox="0 0 16 16" version="1.1" xmlns="http://www.w3.org/2000/svg" xmlns:xlink="http://www.w3.org/1999/xlink">
    <title>移动端-分享</title>
    <defs>
        <filter id="filter-1">
            <feColorMatrix in="SourceGraphic" type="matrix" values="0 0 0 0 1.000000 0 0 0 0 1.000000 0 0 0 0 1.000000 0 0 0 1.000000 0"></feColorMatrix>
        </filter>
    </defs>
    <g id="页面-1" stroke="none" stroke-width="1" fill="none" fill-rule="evenodd">
        <g id="F-01-Room-Base" transform="translate(-303.000000, -44.000000)">
            <g id="hi/message/room/room-base-W" transform="translate(0.000000, 20.000000)">
                <g id="common/icon/share" transform="translate(291.000000, 20.000000)" filter="url(#filter-1)">
                    <g transform="translate(12.000000, 4.000000)" id="移动端_分享" fill="#000000" fill-rule="nonzero">
                        <rect id="矩形" opacity="0" x="1.6" y="1.6" width="12.7875122" height="12.7875122"></rect>
                        <path d="M7.99696158,14.3875122 C4.52522619,14.3792581 1.69377,11.6033632 1.61674476,8.13247261 C1.53971952,4.66158201 4.24524478,1.76281169 7.71319713,1.60057454 C8.05178708,1.58606355 8.33803195,1.84878145 8.35254295,2.1873714 C8.36705395,2.52596134 8.10433605,2.81220622 7.7657461,2.82671722 C4.97226759,2.95071353 2.78344369,5.2729803 2.82478785,8.06890375 C2.866132,10.8648272 5.12266396,13.1213592 7.91858741,13.1627033 C10.7145109,13.2040475 13.0367776,11.0152236 13.1607739,8.22174506 C13.167111,8.05875947 13.2385035,7.90511225 13.3589854,7.79516425 C13.4794674,7.68521624 13.6389874,7.62814004 13.8018714,7.63669985 C13.9645278,7.64396526 14.1176135,7.71563501 14.2273659,7.83590265 C14.3371183,7.95617029 14.394522,8.1151564 14.3869166,8.2777973 C14.2421188,11.6993723 11.421588,14.3961956 7.99696158,14.3875122 Z M7.99696158,8.6071042 C7.74560206,8.61222227 7.51659501,8.46335805 7.41924027,8.23156104 C7.32188552,7.99976402 7.37591839,7.73202304 7.55555022,7.55612475 L12.1903696,2.93181517 C12.3413056,2.76063379 12.5748342,2.6874612 12.7964661,2.74190419 C13.018098,2.79634717 13.191144,2.96939318 13.245587,3.19102508 C13.30003,3.41265699 13.2268574,3.6461856 13.055676,3.79712159 L8.43136642,8.42493442 C8.31616504,8.54043574 8.16008861,8.60588715 7.99696158,8.6071042 L7.99696158,8.6071042 Z M12.6212712,3.97929136 L10.3091164,3.97929136 C9.97052643,3.97929136 9.69604504,3.70480997 9.69604504,3.36622001 C9.69604504,3.02763006 9.97052643,2.75314867 10.3091164,2.75314867 L12.6212712,2.75314867 C12.9598611,2.75314867 13.2343425,3.02763006 13.2343425,3.36622001 C13.2343425,3.70480997 12.9598611,3.97929136 12.6212712,3.97929136 L12.6212712,3.97929136 Z M12.6212712,6.29144617 C12.2826812,6.29144617 12.0081998,6.01696476 12.0081998,5.6783748 L12.0081998,3.35220695 C12.0081998,3.01361699 12.2826812,2.7391356 12.6212712,2.7391356 C12.9598611,2.7391356 13.2343425,3.01361699 13.2343425,3.35220695 L13.2343425,5.66436175 C13.2381152,5.82937256 13.1751933,5.988934 13.0598086,6.10695599 C12.944424,6.22497797 12.7863251,6.29148927 12.6212712,6.29144617 L12.6212712,6.29144617 Z" id="形状"></path>
                    </g>
                </g>
            </g>
        </g>
    </g>
</svg>