<?xml version="1.0" encoding="UTF-8"?>
<svg width="32px" height="32px" viewBox="0 0 32 32" version="1.1" xmlns="http://www.w3.org/2000/svg" xmlns:xlink="http://www.w3.org/1999/xlink">
    <title>common/icon/style_magic_样式</title>
    <g id="HiDPI" stroke="none" stroke-width="1" fill="none" fill-rule="evenodd">
        <g id="H-01-Profile" transform="translate(-60.000000, -508.000000)" fill="#000000" fill-rule="nonzero">
            <g id="Style" transform="translate(36.000000, 483.000000)">
                <g id="样式" transform="translate(24.000000, 25.000000)">
                    <rect id="矩形" opacity="0" x="0" y="0" width="32" height="32"></rect>
                    <path d="M7.3152,2.0576 L1.6,7.3136 L6.8576,13.0288 L24.4576,32 L30.1712,26.9712 L7.3152,2.0576 Z M3.8864,7.3136 L7.0864,4.5712 L10.2864,7.7712 L7.0864,10.5136 L3.8864,7.3136 Z M11.6576,26.0576 L10.744,28.1152 L8.6864,28.344 L10.2864,29.7152 L9.8288,32 L11.6576,31.0864 L13.4864,32 L13.2576,29.7136 L14.6288,28.1136 L12.5712,27.8848 L11.6576,26.056 L11.6576,26.0576 Z M4.5712,16.6864 L3.2,19.8864 L0,20.344 L2.2864,22.6304 L1.8288,26.0592 L4.5712,24.4592 L7.3136,26.0592 L6.856,22.6304 L9.1424,20.344 L5.9424,19.8864 L4.5712,16.6864 Z M25.6,0 L23.7712,4.1136 L19.4288,4.8 L22.6288,8 L21.9424,12.5712 L25.8288,10.2848 L29.7152,12.5712 L29.0288,8 L32,4.8 L27.6576,4.1136 L25.6,0 Z" id="形状"></path>
                </g>
            </g>
        </g>
    </g>
</svg>