<?xml version="1.0" encoding="UTF-8"?>
<svg width="20px" height="20px" viewBox="0 0 20 20" version="1.1" xmlns="http://www.w3.org/2000/svg" xmlns:xlink="http://www.w3.org/1999/xlink">
    <title>common/icon/mic_off</title>
    <defs>
        <filter id="filter-1">
            <feColorMatrix in="SourceGraphic" type="matrix" values="0 0 0 0 1.000000 0 0 0 0 1.000000 0 0 0 0 1.000000 0 0 0 1.000000 0"></feColorMatrix>
        </filter>
    </defs>
    <g id="页面-1" stroke="none" stroke-width="1" fill="none" fill-rule="evenodd">
        <g id="F-14-self-mic-off" transform="translate(-58.000000, -630.000000)">
            <g id="hi/message/room/room-base-W" transform="translate(0.000000, 20.000000)">
                <g id="common/iconvoice-on备份" transform="translate(53.000000, 605.000000)" filter="url(#filter-1)">
                    <g transform="translate(5.000000, 5.000000)" id="micoff话筒关" fill-rule="nonzero">
                        <rect id="矩形" fill="#000000" opacity="0" x="0" y="0" width="20" height="20"></rect>
                        <path d="M3.38181998,2.4946875 L3.60596982,2.71793456 L17.1644199,16.4222756 C17.435853,16.6946021 17.4983484,17.0032878 17.2440388,17.2916667 C16.9897293,17.5800455 16.5504269,17.5268483 16.2462372,17.2916667 L16.1012089,17.1621875 L13.576951,14.6083333 C12.7513977,15.2510206 11.76747,15.6586575 10.7292458,15.788125 L10.7292458,17.2916667 L12.9169835,17.2916667 C13.3197348,17.2916667 13.6462293,17.6181257 13.6462293,18.0208333 C13.6462293,18.423541 13.3197348,18.75 12.9169835,18.75 L7.08301645,18.75 C6.68026508,18.75 6.35377058,18.423541 6.35377058,18.0208333 C6.35377058,17.6181257 6.68026508,17.2916667 7.08301645,17.2916667 L9.27075409,17.2916667 L9.27075409,15.788125 C6.35372699,15.4203274 4.16608284,12.9398084 4.16603294,10 L4.16603294,8.54166668 C4.16603294,8.13895904 4.49252745,7.8125 4.89527882,7.8125 C5.2980302,7.8125 5.62452471,8.13895904 5.62452471,8.54166668 L5.62452471,10 C5.62443834,12.3524687 7.48485024,14.2838658 9.83591964,14.3720833 L9.99999996,14.375 C10.9451026,14.375 11.8194684,14.0760417 12.5348586,13.5663542 L2.51327489,3.4095134 C2.2418418,3.13718691 2.25896535,2.78306632 2.51327489,2.4946875 C2.76758444,2.20630869 3.07763029,2.25950594 3.38181998,2.4946875 Z M15.1047211,7.81250001 C15.5074725,7.81250001 15.833967,8.13895905 15.833967,8.54166668 L15.833967,11.4583333 C15.833967,11.861041 15.5074725,12.1875 15.1047211,12.1875 C14.7019697,12.1875 14.3754752,11.861041 14.3754752,11.4583333 L14.3754752,8.54166668 C14.3754752,8.13895905 14.7019697,7.81250001 15.1047211,7.81250001 L15.1047211,7.81250001 Z M9.99999996,1.25 C10.7736321,1.25 11.5155783,1.55729078 12.0626188,2.10427189 C12.6096593,2.65125299 12.9169835,3.39311857 12.9169835,4.16666667 L12.9169835,8.54166668 C12.9169835,8.9443743 12.590489,9.27083334 12.1877376,9.27083334 C11.7849862,9.27083334 11.4584917,8.9443743 11.4584917,8.54166668 L11.4584917,4.16666667 C11.4584917,3.77989262 11.3048296,3.40895983 11.0313094,3.13546928 C10.7577891,2.86197873 10.386816,2.70833334 9.99999996,2.70833334 C9.26783711,2.70833334 8.66183378,3.24791667 8.55390539,4.04489584 L8.54150822,4.16666667 C8.54108032,4.55246398 8.24017625,4.87116194 7.85499994,4.89377144 C7.46982363,4.91638095 7.1336923,4.63507639 7.08812118,4.25197918 L7.08301645,4.16666667 C7.08301645,2.55583615 8.38899446,1.25 9.99999996,1.25 Z" id="形状" fill="#666666"></path>
                    </g>
                </g>
            </g>
        </g>
    </g>
</svg>