<?xml version="1.0" encoding="UTF-8"?>
<svg width="24px" height="24px" viewBox="0 0 24 24" version="1.1" xmlns="http://www.w3.org/2000/svg" xmlns:xlink="http://www.w3.org/1999/xlink">
    <title>清理缓存</title>
    <g id="HiDPI" stroke="none" stroke-width="1" fill="none" fill-rule="evenodd">
        <g id="H-03-setting-设定" transform="translate(-24.000000, -198.000000)" fill="#000000" fill-rule="nonzero">
            <g id="编组-2" transform="translate(24.000000, 197.000000)">
                <g id="清理缓存" transform="translate(0.000000, 1.000000)">
                    <rect id="矩形" opacity="0" x="0" y="0" width="24" height="24"></rect>
                    <path d="M23.671875,11.1609375 C23.671875,10.8609375 23.6484375,10.565625 23.6203125,10.265625 L23.6203125,10.246875 C23.6109375,9.9703125 23.596875,9.6984375 23.559375,9.4265625 C23.4984375,8.9390625 23.4328125,8.4515625 23.334375,7.9734375 C23.203125,7.33125 23.0625,6.6890625 22.884375,6.0609375 C22.6640625,5.2734375 22.35,4.5234375 21.9375,3.815625 C21.5625,3.1640625 21.0890625,2.6109375 20.4890625,2.1609375 C20.053125,1.8328125 19.5796875,1.575 19.0828125,1.3453125 C18.5015625,1.078125 17.896875,0.8671875 17.2828125,0.6984375 C16.3828125,0.4546875 15.46875,0.271875 14.5359375,0.1875 C13.9921875,0.1359375 13.44375,0.0703125 12.8953125,0.05625 C12.609375,0.046875 12.3234375,0.046875 12.0375,0.0515625 C11.8078125,0.046875 11.5828125,0.046875 11.353125,0.0515625 C11.128125,0.05625 10.8984375,0.0703125 10.6734375,0.0890625 C10.359375,0.103125 10.0453125,0.13125 9.73125,0.1640625 C9.5859375,0.178125 9.4359375,0.196875 9.290625,0.215625 C9.13125,0.234375 8.9671875,0.253125 8.8078125,0.28125 C8.690625,0.2953125 8.578125,0.3140625 8.4609375,0.3328125 C7.6921875,0.4453125 6.946875,0.628125 6.2109375,0.8578125 C5.4421875,1.1015625 4.70625,1.40625 4.0171875,1.828125 C3.4875,2.146875 3.0046875,2.53125 2.6203125,3.0140625 C2.2453125,3.4828125 1.9453125,3.9984375 1.696875,4.546875 C1.396875,5.1984375 1.1625,5.878125 0.9796875,6.571875 C0.6890625,7.6546875 0.525,8.75625 0.4171875,9.8671875 C0.365625,10.415625 0.346875,10.96875 0.3328125,11.5171875 C0.328125,11.671875 0.328125,11.8265625 0.3328125,11.9765625 C0.3328125,12.13125 0.328125,12.2859375 0.3328125,12.4359375 C0.346875,12.984375 0.365625,13.5375 0.4171875,14.0859375 C0.5203125,15.196875 0.6890625,16.2984375 0.9796875,17.38125 C1.1671875,18.075 1.396875,18.75 1.696875,19.40625 C1.95,19.95 2.25,20.4703125 2.6203125,20.9390625 C3.009375,21.421875 3.4875,21.80625 4.0171875,22.1296875 C4.70625,22.5515625 5.4421875,22.85625 6.2109375,23.1 C6.946875,23.3296875 7.696875,23.5171875 8.4609375,23.625 C8.578125,23.64375 8.690625,23.6578125 8.8078125,23.6765625 C8.9671875,23.7046875 9.1265625,23.7234375 9.290625,23.7421875 C9.4359375,23.7609375 9.5859375,23.7796875 9.73125,23.79375 C10.0453125,23.8265625 10.359375,23.85 10.6734375,23.86875 C10.8984375,23.8875 11.128125,23.896875 11.353125,23.90625 C11.5828125,23.9109375 11.8078125,23.9109375 12.0375,23.90625 C12.3234375,23.9109375 12.609375,23.9109375 12.8953125,23.9015625 C13.44375,23.8875 13.9875,23.8171875 14.5359375,23.7703125 C15.46875,23.6859375 16.3828125,23.503125 17.2875,23.259375 C17.90625,23.0953125 18.50625,22.884375 19.0875,22.6125 C19.5796875,22.3828125 20.053125,22.1203125 20.49375,21.796875 C21.09375,21.346875 21.571875,20.79375 21.9421875,20.1421875 C22.35,19.4296875 22.66875,18.6796875 22.8890625,17.896875 C23.0625,17.26875 23.2078125,16.6265625 23.3390625,15.984375 C23.4375,15.50625 23.4984375,15.01875 23.5640625,14.53125 C23.6015625,14.259375 23.615625,13.9828125 23.625,13.7109375 L23.625,13.6921875 C23.653125,13.3921875 23.6765625,13.096875 23.6765625,12.796875 C23.6765625,12.525 23.6765625,12.253125 23.671875,11.98125 L23.671875,11.1609375 Z M6.871875,9.75 C6.8671875,9.5953125 6.946875,9.4453125 7.078125,9.3609375 C7.1578125,9.309375 7.246875,9.28125 7.340625,9.28125 L10.4765625,9.290625 L10.4671875,5.45625 C10.4625,5.26875 10.575,5.0953125 10.753125,5.025 C10.809375,5.0015625 10.875,4.9875 10.9359375,4.9875 L13.06875,4.996875 L13.078125,4.996875 C13.3359375,4.996875 13.5375,5.2078125 13.5375,5.465625 L13.5375,5.4984375 L13.546875,9.2953125 L16.6875,9.3046875 C16.9453125,9.3046875 17.15625,9.515625 17.15625,9.7734375 L17.15625,9.8015625 L17.1609375,12.178125 L6.88125,12.15 L6.871875,9.75 Z M17.1796875,18.225 C17.1796875,18.234375 17.1796875,18.24375 17.175,18.253125 L17.175,18.271875 C17.175,18.28125 17.1703125,18.290625 17.165625,18.3 L17.1609375,18.31875 C17.15625,18.328125 17.1515625,18.3375 17.1515625,18.346875 C17.146875,18.3515625 17.146875,18.35625 17.146875,18.3609375 C17.1421875,18.3703125 17.1375,18.384375 17.1328125,18.39375 C17.1328125,18.39375 17.1328125,18.3984375 17.128125,18.403125 C17.0484375,18.553125 16.8890625,18.646875 16.715625,18.646875 L14.9484375,18.646875 L14.9484375,18.609375 L14.94375,17.45625 L14.0109375,17.45625 L14.015625,18.609375 L14.015625,18.646875 L12.5203125,18.6421875 L12.515625,17.45625 L11.5828125,17.45625 L11.5875,18.6375 L10.059375,18.6328125 L10.0546875,17.4515625 L9.121875,17.4515625 L9.1265625,18.628125 L7.3734375,18.628125 C7.1859375,18.628125 7.0125,18.515625 6.9421875,18.3421875 C6.91875,18.2859375 6.9046875,18.2203125 6.9046875,18.159375 L6.9046875,17.45625 L6.9,17.45625 L6.9,16.171875 L6.8953125,14.7515625 L6.9,14.7515625 L6.9,13.03125 L17.1890625,13.03125 L17.1890625,16.5984375 L17.19375,18.178125 L17.19375,18.2015625 C17.1796875,18.2109375 17.1796875,18.215625 17.1796875,18.225 L17.1796875,18.225 Z" id="形状"></path>
                </g>
            </g>
        </g>
    </g>
</svg>