<?xml version="1.0" encoding="UTF-8"?>
<svg width="16px" height="16px" viewBox="0 0 16 16" version="1.1" xmlns="http://www.w3.org/2000/svg" xmlns:xlink="http://www.w3.org/1999/xlink">
    <title>common/icon/search_close</title>
    <g id="HiDPI" stroke="none" stroke-width="1" fill="none" fill-rule="evenodd">
        <g id="Room-black-用户操作-已关注" transform="translate(-315.000000, -260.000000)" fill-rule="nonzero">
            <g id="billboard-card备份" transform="translate(32.000000, 248.000000)">
                <g id="search-close" transform="translate(283.000000, 12.000000)">
                    <rect id="矩形" fill="#000000" opacity="0" x="0" y="0" width="16" height="16"></rect>
                    <path d="M8,5.9 L12.2,1.7 C12.8,1.1 13.7,1.1 14.3,1.7 C14.9,2.3 14.9,3.2 14.3,3.8 L10.1,8 L14.3,12.2 C14.9,12.8 14.9,13.7 14.3,14.3 C13.7,14.9 12.8,14.9 12.2,14.3 L8,10.1 L3.8,14.3 C3.2,14.9 2.3,14.9 1.7,14.3 C1.1,13.7 1.1,12.8 1.7,12.2 L5.9,8 L1.7,3.8 C1.1,3.2 1.1,2.3 1.7,1.7 C2.3,1.1 3.2,1.1 3.8,1.7 L8,5.9 Z" id="路径" fill="#515151"></path>
                </g>
            </g>
        </g>
    </g>
</svg>