<?xml version="1.0" encoding="UTF-8"?>
<svg width="70px" height="70px" viewBox="0 0 70 70" version="1.1" xmlns="http://www.w3.org/2000/svg" xmlns:xlink="http://www.w3.org/1999/xlink">
    <title>common_icon_gold_金币</title>
    <g id="HiDPI" stroke="none" stroke-width="1" fill="none" fill-rule="evenodd">
        <g id="H-17-gold-金币" transform="translate(-56.000000, -136.000000)" fill-rule="nonzero">
            <g id="gold" transform="translate(56.000000, 136.000000)">
                <rect id="矩形" fill="#000000" opacity="0" x="0" y="0" width="70" height="70"></rect>
                <path d="M2.1,40.1333333 L2.1,39.4333333 C2.33333331,38.9666666 2.1,38.7333333 2.33333331,38.2666667 C2.33333331,38.0333334 2.33333331,37.8 2.1,37.5666667 L2.1,29.1666667 C2.56666669,26.1333334 2.56666669,22.8666667 3.96666669,20.0666667 C5.13333338,17.7333334 6.3,15.1666667 8.16666669,13.3 C10.9666667,11.4333333 13.3,8.86666669 16.1,7 C22.6333333,2.8 29.4,0.933333311 37.1,1.4 C45.9666667,1.86666669 53.2,5.83333331 59.5,11.6666667 C60.2,12.3666667 60.9,13.0666667 61.8333333,13.5333333 C65.3333333,17.7333333 67.4333333,22.4 67.6666667,28 C67.9,30.8 67.9,33.6 67.9,36.4 C67.6666667,37.3333333 67.9,38.5 67.6666667,39.6666667 C66.5,45.7333334 64.1666667,51.1 59.9666667,55.5333333 C56.2333334,59.5 52.0333334,63 46.9,64.6333333 C34.0666667,69.0666666 22.4,66.9666666 12.1333333,57.6333333 C7,52.9666666 3.73333331,47.1333333 2.33333331,40.1333333 C2.33333331,40.3666666 2.1,40.1333333 2.1,40.1333333 Z" id="路径" fill="#FEC300"></path>
                <path d="M67.4333333,40.1333333 C66.2666666,51.5666666 60.4333333,59.9666666 50.6333333,65.3333333 C30.8,76.3 6.76666662,64.4 2.56666669,41.7666667 C2.56666669,41.3 2.56666669,40.8333334 2.1,40.6 L2.1,39.9 C3.26666669,40.6 3.26666669,41.7666667 3.5,42.7 C7.23333331,55.0666667 17.9666667,64.1666667 30.5666667,65.8 C45.9666667,67.9 60.4333334,58.5666667 65.8,44.5666667 L67.2,39.6666667 C67.4333333,39.6666667 67.6666667,39.6666667 67.4333333,40.1333333 L67.4333333,40.1333333 Z" id="路径" fill="#E19303"></path>
                <path d="M8.63333331,14 C10.7333333,10.0333333 14.2333333,7.46666669 17.7333333,5.36666669 C21.4666667,3.03333331 25.6666667,1.4 30.1,0.933333311 C30.3333333,0.933333311 30.5666667,0.7 30.8,0.7 L31.9666667,0.7 C32.9,0.933333311 33.6,0.933333311 34.5333333,0.7 L35.7,0.7 C36.6333333,0.933333311 37.3333333,0.933333311 38.2666667,0.7 L39.4333333,0.7 C40.3666666,1.63333331 41.5333333,1.16666669 42.4666667,1.4 C49.9333334,3.26666669 56.2333334,7.23333331 61.1333333,13.3 C61.3666666,13.5333333 61.3666666,14 61.6,14.2333333 C59.9666667,12.8333333 58.5666667,11.4333333 56.9333333,10.2666667 C43.4,-0.933333311 23.3333333,-3.33066907e-16 10.7333333,12.6 C10.0333333,12.8333333 9.56666662,13.5333333 8.63333331,14 Z" id="路径" fill="#FEDC7A"></path>
                <path d="M34.3,0.466666689 C33.3666667,6.30000002 32.6666667,6.30000002 31.7333333,0.466666689 L34.3,0.466666689 Z M38.0333333,0.466666689 C37.1,6.30000002 36.4,6.30000002 35.4666667,0.466666689 L38.0333333,0.466666689 Z" id="形状" fill="#FEDA70"></path>
                <path d="M2.5375,38.2666667 C2.5375,38.7333334 2.5375,38.9666667 2.1,39.4333333 L2.1,38.2666667 C2.1,38.0333334 2.5375,38.0333334 2.5375,38.2666667 Z" id="路径" fill="#E6A630"></path>
                <path d="M2.5375,38.2666667 L2.1,38.2666667 L2.1,37.5666667 C2.1,37.8 2.5375,38.0333334 2.5375,38.2666667 Z" id="路径" fill="#E7A014"></path>
                <path d="M14.7,45.9666667 C12.8333333,43.4 12.6,40.3666667 11.9,37.5666667 C11.6666667,36.6333334 11.6666667,35.7 11.4333333,35 C11.9,30.1 13.3,25.4333333 16.5666667,21.4666667 C27.3,7.93333338 47.3666667,9.56666669 55.7666667,24.9666667 C57.4,28 58.1,31.5 58.5666667,35 C57.8666667,38.7333333 57.4,42.4666667 55.3,45.9666667 C55.0666667,46.6666667 54.8333333,47.1333334 54.3666667,47.8333333 C45.0333334,61.1333333 25.2,61.1333333 15.8666667,47.8333333 C15.4,47.1333333 14.9333333,46.4333333 14.7,45.9666667 Z" id="路径" fill="#EFA506"></path>
                <path d="M58.5666667,35 C57.6333334,31.7333333 56.9333334,28.7 55.3,25.6666667 C51.8,19.1333334 46.4333333,14.9333334 39.2,13.5333333 C29.8666667,11.6666666 19.8333333,16.5666666 15.1666667,24.9666667 C13.5333334,28.2333334 12.6,31.5 11.4333333,35 C10.9666666,28 13.3,21.9333333 17.9666667,17.0333333 C23.3333333,11.6666667 29.8666667,9.33333331 37.3333333,10.0333333 C47.1333333,10.9666666 55.7666666,18.4333333 58.1,28.2333333 C58.5666667,30.3333333 58.8,32.6666666 58.5666667,35 L58.5666667,35 Z" id="路径" fill="#E19303"></path>
                <path d="M15.8666667,47.3666667 C19.6,51.8 24.0333334,55.3 29.8666667,56.4666667 C39.2,58.3333334 46.9,55.5333334 53.4333333,48.5333333 C53.6666666,48.0666666 54.1333333,47.8333333 54.3666667,47.3666667 C54.6,47.3666667 54.8333333,47.3666667 54.8333333,47.8333333 C46.4333333,62.3 24.0333333,62.3 15.6333333,47.8333333 C15.4,47.3666666 15.4,47.1333333 15.8666667,47.3666667 L15.8666667,47.3666667 Z" id="路径" fill="#FEDB77"></path>
                <path d="M67.4333333,40.1333333 L66.9666667,39.6666667 C67.2,38.7333334 67.4333334,37.8 67.6666667,36.6333333 C67.6666667,37.8 67.9,38.9666666 67.4333333,40.1333333 Z" id="路径" fill="#EAA30D"></path>
                <path d="M15.8666667,49.1361112 L15.4,50.1083333 C14.9333333,49.136111 14.4666667,47.6777777 14.7,46.2194445 C15.1666667,47.1916668 15.4,48.1638889 15.8666667,49.1361112 L15.8666667,49.1361112 Z M54.6,49.6222222 L54.1333333,48.65 C54.6,47.6777777 54.8333333,46.7055556 55.3,45.7333333 C55.5333333,47.6777777 55.3,48.65 54.6,49.6222222 L54.6,49.6222222 Z" id="形状" fill="#FED86A"></path>
                <path d="M44.8,20.3 C44.5666667,22.1666667 45.2666667,24.0333333 44.3333333,25.9 C43.6333333,26.6 42.9333333,26.1333333 42.2333333,26.1333333 C40.1333333,25.4333333 38.0333333,25.2 35.9333333,25.6666667 C31.9666666,26.1333334 29.6333333,28.4666667 28.4666667,32.2 C27.7666667,33.1333333 28.7,33.8333333 28.4666667,34.7666667 C28.4666667,35.7 28.7,36.6333334 29.1666667,37.3333333 C30.8,40.8333333 35.2333334,42.2333333 38.9666667,41.7666667 C40.3666667,41.5333334 41.7666667,41.3 42.9333333,40.8333333 C43.4,40.6 44.1,40.3666666 44.5666667,40.8333333 L44.5666667,46.2 C43.4,48.0666667 41.5333334,47.8333333 39.6666667,48.0666667 C35.7,48.5333334 31.7333334,48.5333334 28,46.6666667 C25.2,45.2666667 23.1,43.1666667 21.7,40.1333333 C21.4666667,39.6666666 21.2333333,38.9666666 21.2333333,38.5 C21,37.8 20.7666666,37.3333333 21.2333333,36.6333333 C20.5333333,34.7666666 21,32.9 21.2333333,31.0333333 C20.7666666,30.3333333 21.2333333,29.8666666 21.4666667,29.1666667 C21.4666667,28.7 21.7,28.2333334 21.9333333,27.7666667 C24.2666666,22.4 28.2333333,19.3666667 34.0666667,18.4333333 C36.6333334,17.9666666 38.9666667,18.4333333 41.5333333,18.4333333 C42.9333333,19.1333333 44.1,19.3666666 44.8,20.3 L44.8,20.3 Z" id="路径" fill="#FEC300"></path>
                <path d="M44.8,20.3 C41.5333333,19.6 38.2666667,19.1333333 35,19.6 C29.1666667,20.3 24.9666667,23.1 22.1666667,28.4666667 C21.9333334,28.4666667 21.7,28.4666667 21.9333333,28 C23.1,22.8666667 28.7,18.4333333 34.5333333,17.9666667 C37.3333333,17.7333334 40.3666666,17.7333334 43.1666667,18.4333333 C44.5666667,18.6666666 45.2666667,19.1333333 44.8,20.3 L44.8,20.3 Z" id="路径" fill="#FEDB76"></path>
                <path d="M22.4,40.1333333 C25.6666667,46.4333333 32.4333333,48.3 39.2,47.6 C41.0666667,47.3666667 42.9333333,46.9 44.8,46.2 C44.8,47.1333333 44.8,48.0666667 43.6333333,48.3 C37.3333333,49.7 31.0333333,50.1666667 25.4333333,45.7333333 C23.5666666,44.3333333 22.4,42.4666666 21.9333333,40.1333333 C22.1666666,39.9 22.1666666,39.9 22.4,40.1333333 L22.4,40.1333333 Z" id="路径" fill="#D78C00"></path>
                <path d="M44.8,40.8333333 C41.5333333,42.4666666 38.0333333,43.1666666 34.5333333,42.2333333 C31.7333333,41.5333333 29.8666666,39.9 28.9333333,37.1 C28.7,36.6333333 28.7,36.4 29.1666667,36.4 C31.9666667,40.6 36.1666667,41.7666667 41.7666667,40.1333333 C42.2333334,39.9 42.9333334,39.9 43.4,39.6666667 C44.8,39.2 45.0333333,39.6666667 44.8,40.8333333 Z" id="路径" fill="#FEDA75"></path>
                <path d="M28.4666667,31.9666667 C28.9333334,28.2333334 31.7333334,25.4333334 35.4666667,24.7333333 C38.7333334,24.0333333 41.5333334,24.7333333 44.5666667,25.9 C44.8,26.3666667 45.0333334,26.8333333 44.8,27.3 C44.3333333,27.7666667 43.8666667,27.3 43.4,27.3 C39.9,26.1333333 36.1666667,25.6666667 32.6666667,27.5333333 C30.8,28.4666666 29.6333334,30.3333333 28.4666667,31.9666667 L28.4666667,31.9666667 Z" id="路径" fill="#D88C00"></path>
                <path d="M29.1666667,36.4 C29.1666667,36.6333333 28.9333334,36.8666667 28.9333333,37.1 C28.4666666,36.4 28,35.4666667 28.4666667,34.5333333 C28.7,35.2333333 28.9333334,35.9333333 29.1666667,36.4 Z" id="路径" fill="#FDD462"></path>
                <path d="M21.9333333,29.4 C21.9333333,30.1 21.7,30.5666667 21.7,31.2666667 C21.2333333,30.5666667 21.2333333,30.1 21.7,29.4 C21.7,29.1666667 21.9333333,29.1666667 21.9333333,29.4 Z" id="路径" fill="#FBCF5D"></path>
                <path d="M21.7,36.8666667 C21.7,37.5666667 21.9333333,38.0333334 21.9333333,38.7333333 C21.9333333,38.9666667 21.7,38.9666667 21.7,38.9666667 C21.2333333,38.2666667 21.2333333,37.5666667 21.7,36.8666667 L21.7,36.8666667 Z" id="路径" fill="#E49C02"></path>
                <path d="M21.7,38.9666667 L21.9333333,38.7333333 C22.1666666,39.2 22.1666666,39.6666666 22.4,40.1333333 L21.9333333,40.1333333 C21.7,39.6666666 21.7,39.4333333 21.7,38.9666667 Z" id="路径" fill="#DD9400"></path>
                <path d="M21.9333333,29.4 L21.4666667,29.4 C21.4666667,28.9333333 21.4666667,28.4666667 21.9333333,28 C21.9333333,28.2333333 22.1666667,28.2333333 22.1666667,28.4666667 C22.1666667,28.7000001 22.1666667,29.1666667 21.9333333,29.4 L21.9333333,29.4 Z" id="路径" fill="#FED86B"></path>
            </g>
        </g>
    </g>
</svg>