<?xml version="1.0" encoding="UTF-8"?>
<svg width="16px" height="16px" viewBox="0 0 16 16" version="1.1" xmlns="http://www.w3.org/2000/svg" xmlns:xlink="http://www.w3.org/1999/xlink">
    <title>common/icon/feedback_反馈_客服</title>
    <g id="HiDPI" stroke="none" stroke-width="1" fill="none" fill-rule="evenodd">
        <g id="H-01-Profile" transform="translate(-55.000000, -646.000000)" fill="#000000" fill-rule="nonzero">
            <g id="编组-3" transform="translate(25.000000, 593.000000)">
                <g id="客服" transform="translate(30.000000, 53.000000)">
                    <rect id="矩形" opacity="0" x="0" y="0" width="16" height="16"></rect>
                    <path d="M13.9912555,6.15615241 C14.0000163,6.10321239 14.0000163,6.04919236 13.9912555,5.99625234 C13.9912554,2.68461367 11.3066418,1.2636157e-07 7.99500313,1.2636157e-07 C4.68336445,1.2636157e-07 1.99875085,2.68461367 1.99875078,5.99625234 C1.98998996,6.04919236 1.98998996,6.10321239 1.99875078,6.15615241 C0.84197063,6.43770491 0.0207580252,7.46422067 8.8817842e-16,8.65459088 L8.8817842e-16,8.99437852 C0.0255273655,10.261714 0.948719312,11.3317774 2.19862586,11.5427858 C2.86726771,13.3179213 4.40540777,14.6217501 6.2660837,14.9906309 L6.35602748,14.9906309 C6.59939353,15.678974 7.30326857,16.0918786 8.02285224,15.9684176 C8.74243591,15.8449565 9.26842079,15.2210413 9.26842079,14.4909432 C9.26842079,13.760845 8.74243591,13.1369298 8.02285224,13.0134688 C7.30326857,12.8900077 6.59939353,13.3029123 6.35602748,13.9912555 C5.01740855,13.6888364 3.89077911,12.7904783 3.29793878,11.5527795 L3.857589,11.5527795 C4.1835314,11.5599643 4.46104381,11.317141 4.49718925,10.9931293 L4.49718925,6.67582761 C4.48631536,6.33201965 4.20152277,6.06057671 3.857589,6.06620863 L2.99812617,6.06620863 C2.99986509,6.04292228 2.99986509,6.01953869 2.99812617,5.99625234 C2.99812617,3.23655341 5.23530419,0.999375391 7.99500312,0.999375391 C10.7547021,0.999375391 12.9918801,3.23655341 12.9918801,5.99625234 C12.990603,6.01621945 12.990603,6.03624775 12.9918801,6.05621486 L12.1324172,6.05621486 C11.7884835,6.05058295 11.5036909,6.32202589 11.492817,6.66583386 L11.492817,10.9931293 C11.5036909,11.3369373 11.7884835,11.6083802 12.1324172,11.6027483 L13.2617114,11.6027483 C13.9694479,11.6188313 14.6545687,11.3530156 15.1662628,10.8638135 C15.677957,10.3746114 15.9742807,9.70212302 15.9900063,8.99437852 L15.9900063,8.65459088 C15.9692482,7.46422067 15.1480356,6.43770491 13.9912555,6.15615241 L13.9912555,6.15615241 Z M7.75515303,13.9912555 C8.03112292,13.9912555 8.2548407,14.2149733 8.2548407,14.4909432 C8.2548407,14.7669131 8.0311229,14.9906308 7.75515301,14.9906308 C7.47918312,14.9906308 7.25546533,14.766913 7.25546533,14.4909432 C7.25546533,14.3584177 7.30811085,14.2313202 7.40182047,14.1376106 C7.49553009,14.043901 7.62262761,13.9912555 7.75515303,13.9912555 L7.75515303,13.9912555 Z M3.49781386,10.5534041 L2.72829481,10.5534041 C1.82484254,10.5878074 1.05827256,9.89656515 0.999375391,8.99437852 L0.999375391,8.65459088 C1.03726762,7.73654134 1.81008527,7.02179669 2.72829481,7.05559025 L3.49781386,7.05559025 L3.49781386,10.5534041 Z M14.9906309,8.99437852 C14.9527386,9.91242805 14.179921,10.6271727 13.2617114,10.5933791 L12.4921924,10.5933791 L12.4921924,7.05559025 L13.2617114,7.05559025 C14.179921,7.02179669 14.9527386,7.73654134 14.9906309,8.65459088 L14.9906309,8.99437852 Z" id="形状"></path>
                    <path d="M10.1636477,2.27857589 L9.79387883,2.14865709 C9.51790893,2.06310643 9.22483861,2.21747171 9.13928795,2.4934416 C9.05373728,2.7694115 9.20810256,3.06248182 9.48407245,3.14803248 L9.77389131,3.25796377 C9.9396116,3.33591864 10.1346992,3.3169704 10.2823205,3.20858167 C10.4299418,3.10019293 10.5064414,2.91973236 10.4816906,2.7382728 C10.4569397,2.55681325 10.3349046,2.40343256 10.1636477,2.33853841 L10.1636477,2.27857589 Z M4.76702061,3.45783884 C4.66170146,3.68348074 4.73858871,3.95223004 4.94731277,4.08802642 C5.15603683,4.2238228 5.43288964,4.18521764 5.59650219,3.99750156 C6.17815775,3.26130194 7.05705009,2.82185577 7.99500313,2.79825109 C8.27097302,2.79825109 8.49469082,2.57453329 8.49469082,2.2985634 C8.49469082,2.0225935 8.27097302,1.7988757 7.99500313,1.7988757 C6.72018511,1.82223495 5.52811214,2.43487926 4.76702061,3.45783884 L4.76702061,3.45783884 Z" id="形状"></path>
                </g>
            </g>
        </g>
    </g>
</svg>