<?xml version="1.0" encoding="UTF-8"?>
<svg width="11px" height="11px" viewBox="0 0 11 11" version="1.1" xmlns="http://www.w3.org/2000/svg" xmlns:xlink="http://www.w3.org/1999/xlink">
    <title>随机</title>
    <defs>
        <filter id="filter-1">
            <feColorMatrix in="SourceGraphic" type="matrix" values="0 0 0 0 1.000000 0 0 0 0 1.000000 0 0 0 0 1.000000 0 0 0 1.000000 0"></feColorMatrix>
        </filter>
    </defs>
    <g id="HiDPI" stroke="none" stroke-width="1" fill="none" fill-rule="evenodd">
        <g id="F-02-Room-black-base" transform="translate(-92.000000, -116.000000)">
            <g id="hi/message/room/room-base-W" transform="translate(0.000000, 48.000000)">
                <g id="common/icon/random-随机" transform="translate(86.000000, 64.000000)" filter="url(#filter-1)">
                    <g transform="translate(6.000000, 4.000000)" id="随机" fill-rule="nonzero">
                        <rect id="矩形" opacity="0" x="0" y="0" width="11" height="11"></rect>
                        <path d="M8.25927051,3.49908496 C7.73532031,3.49908496 6.42870508,4.80084473 5.47458398,5.72354492 C4.02803027,7.12265039 2.66161328,8.48216016 1.56797266,8.48216016 L0.895296875,8.48216016 C0.620361328,8.48216016 0.397460938,8.25889453 0.397460938,7.98384082 C0.397460938,7.70879785 0.620350586,7.48554297 0.895275391,7.48554297 L1.56797266,7.48554297 C2.25907129,7.48554297 3.65831641,6.09423633 4.78263672,5.00683691 C6.15099805,3.6834209 7.33274609,2.50245703 8.25927051,2.50245703 L8.90132031,2.50245703 L8.22007227,1.84127539 C8.02549902,1.6469707 8.0251875,1.3507334 8.21940625,1.15605273 C8.413625,0.961318359 8.72882227,0.960931641 8.92339551,1.15530078 L10.4563916,2.68600879 C10.5499591,2.77933512 10.6025391,2.90605886 10.6025391,3.03821289 C10.6025391,3.17042773 10.5499775,3.29666992 10.4564023,3.39011621 L8.92338477,4.91980371 C8.82624316,5.01682715 8.69898047,5.06297559 8.57173926,5.06297559 C8.44417578,5.06297559 8.31662305,5.00951172 8.21940625,4.91204785 C8.0251875,4.71738867 8.02550977,4.39257715 8.22007227,4.1982832 L8.90130957,3.49907422 L8.25927051,3.49907422 L8.25927051,3.49908496 Z M8.92339551,6.06246094 C8.72882227,5.86808105 8.41361426,5.86839258 8.21940625,6.06312695 C8.0251875,6.25778613 8.02550977,6.59204004 8.22007227,6.78632324 L8.90130957,7.48553223 L8.25927051,7.48553223 C7.85042285,7.48553223 7.16740234,6.88013477 6.49019336,6.24638867 C6.28942188,6.05847559 5.97434277,6.05953906 5.78663379,6.26041797 C5.5987959,6.46129688 5.6093125,6.79088867 5.81008398,6.97874805 C6.84178516,7.94444922 7.53770703,8.48213867 8.25927051,8.48213867 L8.90132031,8.48213867 L8.22007227,9.14330957 C8.02549902,9.33760352 8.0251875,9.64337988 8.21940625,9.8380498 C8.31663379,9.93550293 8.44417578,9.97949219 8.57173926,9.97949219 C8.69898047,9.97949219 8.82624316,9.92857422 8.92339551,9.83154004 L10.4563916,8.2995 C10.5499561,8.20604297 10.6025283,8.07864063 10.6025283,7.9464043 C10.6025283,7.8140786 10.5499658,7.68717196 10.4563916,7.59360938 L8.92339551,6.06246094 Z M0.895275391,3.49908496 L1.56797266,3.49908496 C2.09262109,3.49908496 2.8747168,4.16746387 3.49739844,4.73328711 C3.59278906,4.81992285 3.71252148,4.8721084 3.83198535,4.8721084 C3.96737988,4.8721084 4.1023877,4.82186719 4.20060352,4.71366113 C4.38545508,4.51005371 4.37033008,4.17828125 4.16680859,3.99334375 C3.19307227,3.10856348 2.37848145,2.50246777 1.56797266,2.50246777 L0.895275391,2.50246777 C0.620350586,2.50246777 0.397460938,2.72575488 0.397460938,3.00078711 C0.397460938,3.27581934 0.620361328,3.49908496 0.895275391,3.49908496 Z" id="形状" fill="#000000"></path>
                    </g>
                </g>
            </g>
        </g>
    </g>
</svg>