<?xml version="1.0" encoding="UTF-8"?>
<svg width="16px" height="16px" viewBox="0 0 16 16" version="1.1" xmlns="http://www.w3.org/2000/svg" xmlns:xlink="http://www.w3.org/1999/xlink">
    <title>message</title>
    <g id="HiDPI" stroke="none" stroke-width="1" fill="none" fill-rule="evenodd">
        <g id="Room-black-用户操作-已关注" transform="translate(-215.000000, -427.000000)" fill-rule="nonzero">
            <g id="hi/message/room/user/chat" transform="translate(212.000000, 427.000000)">
                <g id="message" transform="translate(3.000000, 0.000000)">
                    <rect id="矩形" fill="#000000" opacity="0" x="0" y="0" width="16" height="16"></rect>
                    <polygon id="路径" fill="#E60012" points="12.9610578 4.97666081 12.9503548 4.97773111 12.9717608 4.97773111"></polygon>
                    <path d="M7.94431089,0.949056172 C4.47068169,0.949056172 1.58371136,3.47145516 0.982503078,6.79808517 C0.904954899,7.04301419 0.865606011,7.29841097 0.865606011,7.55532328 L0.865606011,12.711165 C0.865606011,14.0965362 1.98875348,15.2196835 3.37412463,15.2196835 L8.08395175,15.2196835 C8.13211531,15.2196835 8.17894098,15.2151682 8.22643561,15.2124924 C12.0052679,15.0628175 15.0230157,11.9300123 15.0230157,8.08445345 C15.0228484,4.14323641 11.8539206,0.949056172 7.94431089,0.949056172 Z M8.18011162,14.0428539 L8.07609173,14.0490415 L3.37412463,14.0490415 C2.63645295,14.0490415 2.03624809,13.4488367 2.03624809,12.711165 L2.03624809,7.55532328 C2.03624809,7.4180237 2.05731966,7.282062 2.09862659,7.15128458 L2.12120325,7.07987541 L2.13441478,7.0062922 C2.6463198,4.17467652 5.08961683,2.11969814 7.94431089,2.11969814 C11.201873,2.11969814 13.8522065,4.79545122 13.8522065,8.08445345 C13.8522065,11.299538 11.3607459,13.9169262 8.18011162,14.0428539 Z" id="形状" fill="#3E3A39"></path>
                    <path d="M11.5948743,6.69757719 C11.5948743,7.02084104 11.3328171,7.28289817 11.0095533,7.28289817 L5.49081255,7.28289817 C5.16754869,7.28289817 4.90549156,7.02084104 4.90549156,6.69757719 C4.90549156,6.37431333 5.16754869,6.1122562 5.49081255,6.1122562 L11.0095533,6.1122562 C11.3328171,6.1122562 11.5948743,6.37431333 11.5948743,6.69757719 L11.5948743,6.69757719 Z M8.25001567,10.0079855 C8.25001567,10.331184 7.98806046,10.5932141 7.66486192,10.5933064 L5.49081255,10.5933064 C5.16754869,10.5933064 4.90549156,10.3312493 4.90549156,10.0079855 C4.90549156,9.6847216 5.16754869,9.42266447 5.49081255,9.42266447 L7.66486192,9.42266447 C7.98806046,9.42275681 8.25001567,9.6847869 8.25001567,10.0079855 L8.25001567,10.0079855 Z" id="形状" fill="#3E3A39"></path>
                </g>
            </g>
        </g>
    </g>
</svg>