<?xml version="1.0" encoding="UTF-8"?>
<svg width="24px" height="24px" viewBox="0 0 24 24" version="1.1" xmlns="http://www.w3.org/2000/svg" xmlns:xlink="http://www.w3.org/1999/xlink">
    <title>check_3</title>
    <g id="HiDPI" stroke="none" stroke-width="1" fill="none" fill-rule="evenodd">
        <g id="H-02-language-语言设定" transform="translate(-24.000000, -117.000000)" fill="#000000" fill-rule="nonzero">
            <g id="check-3" transform="translate(24.000000, 117.000000)">
                <rect id="矩形" opacity="0" x="0" y="0" width="24" height="24"></rect>
                <path d="M1.44,12 C1.44,6.168 6.168,1.44 12,1.44 C17.832,1.44 22.56,6.168 22.56,12 C22.56,17.832 17.832,22.56 12,22.56 C6.168,22.56 1.44,17.832 1.44,12 Z M10.6536,12.40848 C10.1280722,12.8200561 9.39606744,12.8424148 8.8464,12.46368 L7.1136,11.26224 C6.64400624,10.9380433 6.01109249,10.9892142 5.59968,11.38464 C5.20146046,11.7673213 5.17174521,12.3945029 5.532,12.81312 L8.34,16.10112 C8.3904,16.16016 8.44416,16.21584 8.5008,16.26816 C9.2976,17.004 10.5576,16.97232 11.31408,16.19712 L18.4392,8.90016 C18.6221712,8.71481839 18.7232418,8.4638857 18.7198984,8.20346639 C18.7163863,7.94304708 18.608746,7.69486153 18.42096,7.5144 C18.0162385,7.12526319 17.3867607,7.09353342 16.94496,7.44 L10.6536,12.40848 Z" id="形状"></path>
            </g>
        </g>
    </g>
</svg>