<?xml version="1.0" encoding="UTF-8"?>
<svg width="16px" height="16px" viewBox="0 0 16 16" version="1.1" xmlns="http://www.w3.org/2000/svg" xmlns:xlink="http://www.w3.org/1999/xlink">
    <title>管理员</title>
    <g id="HiDPI" stroke="none" stroke-width="1" fill="none" fill-rule="evenodd">
        <g id="F-19-room-member" transform="translate(-32.000000, -358.000000)" fill="#000000" fill-rule="nonzero">
            <g id="编组" transform="translate(24.000000, 313.000000)">
                <g id="hi/common/room/member-item" transform="translate(0.000000, 41.000000)">
                    <g id="管理员" transform="translate(8.000000, 4.000000)">
                        <rect id="矩形" opacity="0" x="0" y="0" width="16" height="16"></rect>
                        <path d="M8.03125,8.140625 C7.0796875,8.140625 6.184375,7.7703125 5.5125,7.096875 C4.840625,6.4234375 4.46875,5.5296875 4.46875,4.578125 C4.46875,3.6265625 4.8390625,2.73125 5.5125,2.059375 C6.1859375,1.3875 7.0796875,1.015625 8.03125,1.015625 C8.9828125,1.015625 9.878125,1.3859375 10.55,2.059375 C11.221875,2.7328125 11.59375,3.6265625 11.59375,4.578125 C11.59375,5.5296875 11.2234375,6.425 10.55,7.096875 C9.8765625,7.76875 8.9828125,8.140625 8.03125,8.140625 Z M8.03125,1.890625 C6.55,1.890625 5.34375,3.096875 5.34375,4.578125 C5.34375,6.059375 6.55,7.265625 8.03125,7.265625 C9.5125,7.265625 10.71875,6.059375 10.71875,4.578125 C10.71875,3.096875 9.5125,1.890625 8.03125,1.890625 Z M8.0078125,14.275 L1.8359375,14.275 L1.8109375,13.865625 C1.803125,13.7296875 1.7984375,13.5984375 1.7984375,13.471875 C1.7984375,12.6359375 1.9625,11.825 2.2859375,11.0609375 C2.5984375,10.3234375 3.04375,9.6609375 3.6125,9.0921875 C4.18125,8.5234375 4.84375,8.0765625 5.58125,7.765625 C6.3453125,7.4421875 7.15625,7.278125 7.9921875,7.278125 C8.234375,7.278125 8.4296875,7.4734375 8.4296875,7.715625 C8.4296875,7.9578125 8.234375,8.153125 7.9921875,8.153125 C5.0828125,8.153125 2.7109375,10.5015625 2.6734375,13.4015625 L8.009375,13.4015625 C8.2515625,13.4015625 8.446875,13.596875 8.446875,13.8390625 C8.446875,14.08125 8.25,14.275 8.0078125,14.275 L8.0078125,14.275 Z M11.3578125,10.0578125 L11.6671875,10.684375 C11.8140625,10.9828125 12.0984375,11.1890625 12.428125,11.2375 L13.11875,11.3375 L12.61875,11.825 C12.38125,12.0578125 12.271875,12.3921875 12.328125,12.7203125 L12.446875,13.409375 L11.828125,13.0828125 C11.684375,13.00625 11.5203125,12.9671875 11.3578125,12.9671875 C11.1953125,12.9671875 11.03125,13.0078125 10.8875,13.0828125 L10.26875,13.4078125 L10.3875,12.71875 C10.44375,12.390625 10.334375,12.05625 10.096875,11.8234375 L9.596875,11.3359375 L10.2875,11.2359375 C10.6171875,11.1875 10.9015625,10.98125 11.0484375,10.6828125 L11.3578125,10.0578125 M11.3578125,8.2375 C11.3125,8.2375 11.26875,8.2609375 11.2453125,8.3078125 L10.2640625,10.296875 C10.24375,10.3375 10.20625,10.3640625 10.1625,10.371875 L7.9890625,10.6875 C7.878125,10.703125 7.8328125,10.840625 7.9140625,10.91875 L9.4875,12.4515625 C9.51875,12.4828125 9.534375,12.528125 9.5265625,12.571875 L9.1546875,14.7375 C9.1390625,14.825 9.209375,14.896875 9.2890625,14.896875 C9.309375,14.896875 9.33125,14.8921875 9.3515625,14.88125 L11.2953125,13.859375 C11.315625,13.8484375 11.3375,13.84375 11.3578125,13.84375 C11.3796875,13.84375 11.4015625,13.8484375 11.4203125,13.859375 L13.3640625,14.88125 C13.384375,14.8921875 13.40625,14.896875 13.4265625,14.896875 C13.50625,14.896875 13.575,14.825 13.5609375,14.7375 L13.1890625,12.571875 C13.18125,12.528125 13.196875,12.4828125 13.228125,12.4515625 L14.8015625,10.91875 C14.8828125,10.840625 14.8375,10.703125 14.7265625,10.6875 L12.553125,10.371875 C12.509375,10.365625 12.4703125,10.3375 12.4515625,10.296875 L11.4703125,8.3078125 C11.446875,8.2609375 11.403125,8.2375 11.3578125,8.2375 L11.3578125,8.2375 Z" id="形状"></path>
                    </g>
                </g>
            </g>
        </g>
    </g>
</svg>