<?xml version="1.0" encoding="UTF-8"?>
<svg width="32px" height="32px" viewBox="0 0 32 32" version="1.1" xmlns="http://www.w3.org/2000/svg" xmlns:xlink="http://www.w3.org/1999/xlink">
    <title>钱包</title>
    <g id="HiDPI" stroke="none" stroke-width="1" fill="none" fill-rule="evenodd">
        <g id="H-01-Profile" transform="translate(-60.000000, -418.000000)" fill="#000000" fill-rule="nonzero">
            <g id="wallet" transform="translate(36.000000, 393.000000)">
                <g id="钱包" transform="translate(24.000000, 25.000000)">
                    <rect id="矩形" opacity="0" x="0" y="0" width="32" height="32"></rect>
                    <path d="M31.9965631,9.621875 L31.9965631,12.4634375 L29.7112506,12.4634375 L29.7112506,9.621875 C29.7112506,8.9871875 29.1968756,8.4678125 28.5684381,8.4678125 L24.5653131,8.4678125 L24.5653131,6.16 L28.5684381,6.16 C30.4571881,6.16 31.9965631,7.7140625 31.9965631,9.621875 Z M29.7109381,27.46375 C29.7109381,28.0984375 29.1965631,28.6178125 28.5681256,28.6178125 L3.42812562,28.6178125 C2.79968812,28.6178125 2.28531313,28.09875 2.28531313,27.46375 L2.28531313,8.4678125 L6.25e-07,8.4678125 L6.25e-07,27.46375 C6.25e-07,29.37125 1.53906312,30.925625 3.42812563,30.925625 L28.5681256,30.925625 C30.4571881,30.925625 31.9962506,29.3715625 31.9962506,27.46375 L31.9962506,25.1559375 L29.7109381,25.1559375 L29.7109381,27.46375 Z M18.2837506,18.8096875 C18.2837506,22.3075 21.0584381,25.15625 24.4687506,25.15625 L29.7112506,25.15625 L29.7112506,22.8484375 L24.4687506,22.8484375 C22.3190631,22.8484375 20.5693756,21.038125 20.5693756,18.8096875 C20.5693756,16.58125 22.3190631,14.7709375 24.4687506,14.7709375 L29.7112506,14.7709375 L29.7112506,12.463125 L24.4687506,12.463125 C21.0584381,12.463125 18.2837506,15.311875 18.2837506,18.8096875 L18.2837506,18.8096875 Z M29.7109381,14.7709375 L29.7109381,25.15625 L31.9962506,25.15625 L31.9962506,12.463125 L29.7109381,12.463125 L29.7109381,14.7709375 Z M22.9262506,18.6365625 C22.9262506,19.4946875 23.6153131,20.190625 24.4653131,20.190625 C25.3153131,20.190625 26.0043756,19.49125 26.0043756,18.6365625 C26.0043756,17.7784375 25.3153131,17.0825 24.4653131,17.0825 C23.6153131,17.0825 22.9262506,17.7784375 22.9262506,18.6365625 Z M20.7978131,3.2825 L20.8546881,3.268125 C21.2012506,3.178125 21.5581256,3.25375 21.8403131,3.47375 C22.1225006,3.69375 22.2831256,4.0253125 22.2831256,4.3859375 L22.2831256,6.16 L24.5650006,6.16 L24.5650006,4.3859375 C24.5650006,3.31125 24.0828131,2.3125 23.2403131,1.6525 C22.4081256,0.99625 21.3440631,0.7690625 20.3190631,1.0253125 L1.07843813,4.988125 L1.02125063,5.0025 C0.472813125,5.1434375 0.077813125,5.6059375 0.010313125,6.16 L6.82062563,6.16 L20.7978131,3.2825 Z M24.5650006,8.4678125 L24.5650006,6.16 L0.010313125,6.16 C0.00339716616,6.21629732 1.40918951e-07,6.27296698 1.40918951e-07,6.3296875 L1.40918951e-07,8.4678125 L24.5650006,8.4678125 Z" id="形状"></path>
                </g>
            </g>
        </g>
    </g>
</svg>