<?xml version="1.0" encoding="UTF-8"?>
<svg width="25px" height="25px" viewBox="0 0 25 25" version="1.1" xmlns="http://www.w3.org/2000/svg" xmlns:xlink="http://www.w3.org/1999/xlink">
    <title>google</title>
    <defs>
        <filter id="filter-1">
            <feColorMatrix in="SourceGraphic" type="matrix" values="0 0 0 0 1.000000 0 0 0 0 1.000000 0 0 0 0 1.000000 0 0 0 1.000000 0"></feColorMatrix>
        </filter>
    </defs>
    <g id="页面-1" stroke="none" stroke-width="1" fill="none" fill-rule="evenodd">
        <g id="D-00-登录页面-登录方式" transform="translate(-101.000000, -594.000000)">
            <g id="common/icon/google备份" transform="translate(70.000000, 586.000000)" filter="url(#filter-1)">
                <g transform="translate(31.000000, 8.818182)" id="google" fill="#000000" fill-rule="nonzero">
                    <rect id="矩形" opacity="0" x="0" y="0" width="24" height="24"></rect>
                    <path d="M17.5,14 C16.9020472,16.0801135 15.1416739,17.6175061 13,17.93 C11.3431408,18.1703787 9.65989232,17.724885 8.33886265,16.6963691 C7.01783299,15.6678531 6.1732136,14.1452212 6,12.48 C5.86574547,10.8073054 6.43810585,9.15482554 7.57820266,7.92352098 C8.71829948,6.69221643 10.3219348,5.99462085 12,6 C12.7777511,6.00109434 13.5481657,6.15042579 14.27,6.43999999 C14.5055549,6.54575112 14.7828909,6.45475026 14.91,6.22999999 L16.35,3.58000001 C16.4126025,3.45672213 16.4235321,3.31358833 16.380373,3.1822346 C16.3372139,3.05088087 16.24352,2.94212333 16.12,2.88 C12.9764896,1.45675997 9.32131257,1.75475992 6.44985108,3.6683897 C3.57838959,5.58201949 1.89640997,8.84086399 1.99999999,12.29 C2.20422486,17.512201 6.35131542,21.7199596 11.57,22 C17.0612119,22.2435123 21.7195731,18.0094506 22,12.52 L22,10.52 C21.9946799,10.2460915 21.7739084,10.0253201 21.5,10.02 L12.5,10.02 C12.2238576,10.02 12,10.2438576 12,10.52 L12,13.52 C12,13.6526082 12.0526784,13.7797852 12.1464466,13.8735534 C12.2402148,13.9673216 12.3673917,14.02 12.5,14.02 L17.5,14.02" id="路径"></path>
                </g>
            </g>
        </g>
    </g>
</svg>