<?xml version="1.0" encoding="UTF-8"?>
<svg width="16px" height="16px" viewBox="0 0 16 16" version="1.1" xmlns="http://www.w3.org/2000/svg" xmlns:xlink="http://www.w3.org/1999/xlink">
    <title>common/icon/more</title>
    <g id="HiDPI" stroke="none" stroke-width="1" fill="none" fill-rule="evenodd">
        <g id="D-01-登录页面-登录方式" transform="translate(-111.000000, -325.000000)" fill="#000000" fill-rule="nonzero">
            <g id="phone-login" transform="translate(32.000000, 312.000000)">
                <g id="more" transform="translate(79.000000, 13.000000)">
                    <rect id="矩形" opacity="0" x="0" y="0" width="16" height="16"></rect>
                    <path d="M14.5676751,5.55951066 L13.2739603,4.32706625 C13.0860397,4.14744403 12.7897765,4.14688441 12.6117852,4.32535541 L7.23805259,9.33517475 C7.06018919,9.5129742 7.06885531,9.80290563 7.25690381,9.9818563 L8.55021894,11.2147004 C8.73828344,11.3943226 9.03480239,11.3947384 9.21239398,11.2169389 L14.5862545,6.20659192 C14.763974,6.02853666 14.7557236,5.73886105 14.5676751,5.55951066 Z M2.72018772,4.22644647 L1.42954278,5.48826295 C1.24202192,5.67159466 1.2371772,5.96432419 1.41876609,6.141596 L7.70224989,12.0605589 C7.88411059,12.2385023 8.18357155,12.2332578 8.37107642,12.0503259 L9.66172136,10.7887812 C9.84924222,10.6053056 9.85408694,10.31272 9.67222623,10.1350324 L3.38888633,4.21634133 C3.20702564,4.03839797 2.90756467,4.04309878 2.72018772,4.22644647 Z" id="形状"></path>
                </g>
            </g>
        </g>
    </g>
</svg>