<?xml version="1.0" encoding="UTF-8"?>
<svg width="22px" height="22px" viewBox="0 0 22 22" version="1.1" xmlns="http://www.w3.org/2000/svg" xmlns:xlink="http://www.w3.org/1999/xlink">
    <title>policy</title>
    <g id="HiDPI" stroke="none" stroke-width="1" fill="none" fill-rule="evenodd">
        <g id="H-03-setting-设定" transform="translate(-24.000000, -295.000000)" fill="#000000" fill-rule="nonzero">
            <g id="编组-2" transform="translate(24.000000, 197.000000)">
                <g id="policy" transform="translate(0.000000, 98.000000)">
                    <rect id="矩形" opacity="0" x="0" y="0" width="22" height="22"></rect>
                    <path d="M0.6875,1.222375 C0.6875,0.54725 1.2375,0 1.91125,0 L19.630875,0 C20.306,0 20.854625,0.5445 20.854625,1.222375 L20.854625,20.777625 C20.854625,21.45275 20.304625,22 19.630875,22 L1.91125,22 C1.236125,22 0.6875,21.4555 0.6875,20.777625 L0.6875,1.222375 Z M12.75175,15.06725 L8.787625,15.06725 L8.787625,13.87375 L9.829875,13.87375 L9.829875,10.278125 L8.875625,10.278125 L8.875625,8.996625 L11.798875,8.996625 L11.798875,13.87375 L12.753125,13.87375 L12.753125,15.06725 L12.75175,15.06725 Z M9.884875,6.04725 C10.102125,5.798375 10.401875,5.674625 10.784125,5.674625 C11.166375,5.674625 11.477125,5.798375 11.713625,6.04725 C11.950125,6.296125 12.068375,6.5945 12.068375,6.9465 C12.068375,7.2985 11.950125,7.59275 11.713625,7.82925 C11.47575,8.06575 11.16775,8.184 10.784125,8.184 C10.4005,8.184 10.102125,8.06575 9.884875,7.82925 C9.669,7.59275 9.560375,7.2985 9.560375,6.9465 C9.560375,6.5945 9.669,6.296125 9.884875,6.04725 L9.884875,6.04725 L9.884875,6.04725 Z M12.984125,4.673625 C9.658,3.45125 5.971625,5.157625 4.750625,8.482375 C3.529625,11.807125 5.234625,15.4935 8.559375,16.715875 C11.8855,17.936875 15.571875,16.231875 16.792875,12.90575 C18.013875,9.579625 16.308875,5.894625 12.984125,4.67225 L12.984125,4.67225 L12.984125,4.673625 Z" id="形状"></path>
                </g>
            </g>
        </g>
    </g>
</svg>