<?xml version="1.0" encoding="UTF-8"?>
<svg width="32px" height="32px" viewBox="0 0 32 32" version="1.1" xmlns="http://www.w3.org/2000/svg" xmlns:xlink="http://www.w3.org/1999/xlink">
    <title>common/icon/vip_会员等级</title>
    <g id="HiDPI" stroke="none" stroke-width="1" fill="none" fill-rule="evenodd">
        <g id="H-01-Profile" transform="translate(-220.000000, -506.000000)" fill-rule="nonzero">
            <g id="贵族" transform="translate(196.000000, 481.000000)">
                <g id="等级" transform="translate(24.000000, 25.000000)">
                    <rect id="矩形" fill="#000000" opacity="0" x="0" y="0" width="32" height="32"></rect>
                    <path d="M27.2668589,3.74980135 C26.7178899,2.67285895 25.6256845,1.99793223 24.4352529,2.00000735 L7.57681544,2.00000735 C6.38093455,1.99741958 5.2845224,2.67840162 4.73827625,3.76303259 L0.355224723,12.4182594 C-0.263618153,13.6441469 -0.0608829015,15.134183 0.861884502,16.1420388 L13.5562897,29.968688 C14.1593975,30.62361 15.0002988,30.9965929 15.8814137,31.0000073 L15.8879914,31.0000073 C16.7668265,30.9984733 17.6065294,30.6292551 18.2108042,29.9786568 L31.1281397,16.0278514 C32.0631332,15.0168966 32.2674833,13.5130951 31.6372884,12.2810533 L27.2668589,3.74980135 Z M29.4748289,14.4350272 L16.5580267,28.3858326 C16.3848303,28.5745503 16.1423719,28.681205 15.8888802,28.6801897 L15.8862136,28.6801897 C15.6319861,28.6806864 15.3891004,28.5729342 15.2161783,28.3829326 L2.52123972,14.5561021 C2.25530917,14.2657057 2.1969027,13.8363219 2.37528615,13.4831027 L6.75904878,4.8275133 C6.91654314,4.51520994 7.23238308,4.31920209 7.57681544,4.32001105 L24.4352529,4.32001105 C24.7782887,4.31945903 25.0930098,4.51393973 25.2512418,4.8242508 L29.6207824,13.3553215 C29.8026976,13.7101746 29.7441111,14.1435739 29.4748289,14.4350272 L29.4748289,14.4350272 Z" id="形状" fill="#556FB5"></path>
                    <path d="M22.317601,14.35944 L15.8616282,20.7362283 L9.34758349,14.3561476 C9.06080904,14.0599905 8.62824844,13.9358562 8.21800076,14.0319851 C7.80775307,14.128114 7.48451184,14.4293471 7.3738931,14.818621 C7.26327436,15.207895 7.382722,15.6238237 7.68581701,15.9047715 L14.2791663,22.3624827 C14.693932,22.7717023 15.2654068,23.0018984 15.8618097,23 L15.8665281,23 C16.4646313,23.0007324 17.0371065,22.7681968 17.4513492,22.3562445 L23.9862635,15.9014791 C24.2869768,15.6190815 24.4037212,15.2032143 24.2912482,14.8150615 C24.1787753,14.4269087 23.8547651,14.1274854 23.4447992,14.0328437 C23.0348334,13.9382021 22.6033558,14.0632191 22.317601,14.35944 Z" id="路径" fill="#F19149"></path>
                </g>
            </g>
        </g>
    </g>
</svg>