<?xml version="1.0" encoding="UTF-8"?>
<svg width="16px" height="16px" viewBox="0 0 16 16" version="1.1" xmlns="http://www.w3.org/2000/svg" xmlns:xlink="http://www.w3.org/1999/xlink">
    <title>踢出</title>
    <defs>
        <filter id="filter-1">
            <feColorMatrix in="SourceGraphic" type="matrix" values="0 0 0 0 1.000000 0 0 0 0 0.534042 0 0 0 0 0.523149 0 0 0 1.000000 0"></feColorMatrix>
        </filter>
    </defs>
    <g id="HiDPI" stroke="none" stroke-width="1" fill="none" fill-rule="evenodd">
        <g id="hi/message/room/user/kick-out" transform="translate(-73.000000, -369.000000)" filter="url(#filter-1)">
            <g transform="translate(60.000000, 369.000000)">
                <g id="common/icon/voice-off" transform="translate(13.000000, 0.000000)" fill="#000000" fill-rule="nonzero">
                    <g id="踢出">
                        <rect id="矩形" opacity="0" x="0" y="0.0156097561" width="15.9843902" height="15.9843902"></rect>
                        <path d="M6.56709882,14.0291247 C6.52234252,14.0331208 6.49117296,14.0371169 6.46080262,14.0379161 C5.61522838,14.0459083 4.77205179,13.9979551 3.93127287,13.9164347 C3.31844737,13.8609175 2.7066777,13.794305 2.09626487,13.7166299 C1.67827306,13.6606845 1.26587579,13.5695735 0.851080866,13.4928484 C0.661665842,13.4576827 0.564960281,13.3330045 0.514609452,13.1523809 C0.408973745,12.7577581 0.375134839,12.3473598 0.414707013,11.9407641 C0.4346875,11.6986006 0.460262525,11.4564371 0.494628964,11.215872 C0.558566525,10.7818958 0.823907403,10.4901807 1.18275696,10.2663992 C1.4912557,10.0745865 1.84131384,9.99466459 2.18178135,9.88836839 C2.54302857,9.77647766 2.90747267,9.67337834 3.25912926,9.5367118 C3.61877804,9.39524995 3.9408635,9.18345678 4.17663326,8.86376898 C4.30211072,8.692736 4.3668475,8.50092332 4.35885531,8.28833093 C4.35403055,8.13617235 4.34390095,7.9842283 4.32848496,7.8327758 C4.3077153,7.65575855 4.22095553,7.49308399 4.08552223,7.37722068 C3.99441121,7.29410185 3.90649706,7.20698693 3.80739384,7.13505717 C3.60383295,6.98283327 3.44912026,6.77451277 3.36222857,6.53564254 C3.29509413,6.36780644 3.24074721,6.19357659 3.17601043,6.02414205 C3.16322292,5.98977561 3.13445101,5.94981463 3.10328145,5.9362279 C2.93285106,5.86628045 2.79366587,5.73675301 2.71166389,5.5717838 C2.47829179,5.121024 2.45351599,4.67665795 2.78439287,4.25307161 C2.80517257,4.22669737 2.80916867,4.18353951 2.81236555,4.14677541 C2.84273589,3.74956332 2.85152731,3.34995356 2.90507501,2.95593834 C2.96821335,2.49398946 3.07291111,2.03763512 3.29829101,1.62124176 C3.7522477,0.784458927 4.45156477,0.266564683 5.3866516,0.0915356098 C6.36708461,-0.102223405 7.38453736,0.0728069289 8.24386135,0.58305561 C8.75536184,0.878766829 9.10222311,1.3159399 9.31961082,1.85541307 C9.53939618,2.39968156 9.65768067,2.96952507 9.69124789,3.55695141 C9.70323618,3.76474849 9.71042916,3.97254556 9.72241745,4.18034263 C9.72401589,4.2075161 9.73040965,4.24188254 9.7487917,4.25866615 C9.93261218,4.432896 9.99654974,4.6542798 9.98775833,4.89724254 C9.97896692,5.15938654 9.9453997,5.41753444 9.78795345,5.64211512 C9.69844087,5.76999024 9.5849517,5.86589659 9.4418914,5.93143259 C9.40465784,5.94998229 9.37520692,5.98113231 9.35877257,6.01934673 C9.30042955,6.17279688 9.25247638,6.33024312 9.19413335,6.48289405 C9.17895678,6.51943901 9.15076411,6.54905555 9.11501062,6.56601288 C8.4309042,6.85121136 7.81441992,7.27708654 7.30557765,7.8159922 C6.57349257,8.58324293 6.09875618,9.48476254 5.92452633,10.5333385 C5.72711911,11.7209787 5.93012087,12.8430829 6.50396048,13.9004503 C6.52394096,13.9372144 6.54232301,13.9763762 6.56789804,14.0283255 L6.56709882,14.0291247 Z M11.137036,6.87930693 C13.594636,6.87930693 15.5886887,8.87335961 15.5854956,11.3253651 C15.5780177,13.7741974 13.5930687,15.7566459 11.144229,15.7610343 C8.68662896,15.7626318 6.69017862,13.7701776 6.6917761,11.3181721 C6.69574455,8.86580346 8.68466418,6.87974455 11.137036,6.87930693 L11.137036,6.87930693 Z M9.48425004,11.878425 C9.21752041,12.2389345 9.01277623,12.6413999 8.87844165,13.069262 C8.82356534,13.2601351 8.92846126,13.4604229 9.11660906,13.524018 C9.15257394,13.5384039 9.18853882,13.5384039 9.2245037,13.5384039 C9.3763554,13.5384039 9.52021492,13.436903 9.57056574,13.2858505 C9.6792596,12.9317963 9.84469804,12.6073132 10.0612865,12.311602 C10.63113,11.5467489 11.5334489,11.0784062 12.6155921,10.9481335 L12.0881072,11.4748191 C11.9442477,11.6186786 11.9442477,11.8424601 12.0881072,11.9863196 C12.1541203,12.0550979 12.2453287,12.0939783 12.3406606,12.0939783 C12.4359925,12.0939783 12.5272009,12.0550979 12.5932139,11.9863196 L13.7265072,10.8546248 C13.8032301,10.7994371 13.8549588,10.7160964 13.8703667,10.6228511 L13.8703667,10.6164574 C13.8703667,10.6020714 13.8783589,10.5948784 13.8783589,10.5804925 L13.8783589,10.5077635 C13.8701871,10.4284363 13.8342355,10.3545515 13.776858,10.2991672 L12.6004069,9.1227161 C12.5331711,9.05377926 12.4409528,9.0149047 12.3446567,9.0149047 C12.2483605,9.0149047 12.1561423,9.05377926 12.0889064,9.1227161 C11.9442477,9.26657561 11.9442477,9.49035707 12.0889064,9.6350158 L12.6723367,10.2192453 C11.3376401,10.3423251 10.1987523,10.9265545 9.48425004,11.878425 L9.48425004,11.878425 Z" id="形状"></path>
                    </g>
                </g>
            </g>
        </g>
    </g>
</svg>