<?xml version="1.0" encoding="UTF-8"?>
<svg width="16px" height="17px" viewBox="0 0 16 17" version="1.1" xmlns="http://www.w3.org/2000/svg" xmlns:xlink="http://www.w3.org/1999/xlink">
    <title>common/icon/plus_crude</title>
    <g id="HiDPI" stroke="none" stroke-width="1" fill="none" fill-rule="evenodd">
        <g id="H-08-edit-myproifle" transform="translate(-179.000000, -195.000000)" fill="#000000" fill-rule="nonzero">
            <g id="编组-4备份-2" transform="translate(112.000000, 128.000000)">
                <g id="cc-plus-crude" transform="translate(67.000000, 67.000000)">
                    <rect id="矩形" opacity="0" x="0" y="0" width="16" height="16"></rect>
                    <path d="M14.0537116,8.90935145 L8.88892531,8.90935145 L8.88892531,14.0735461 C8.88892531,14.5769328 8.48105784,14.9859995 7.97733538,14.9859995 C7.47394867,14.9859995 7.06665681,14.5769328 7.06665681,14.0735461 L7.06665681,8.90935145 L1.90185455,8.90935145 C1.39845186,8.90935145 0.989992797,8.50119619 0.989992797,7.9977775 C0.989992797,7.49435881 1.39845186,7.08708295 1.90185455,7.08708295 L7.06665681,7.08708295 L7.06665681,1.9214013 C7.06665681,1.4185902 7.47394867,1.00982734 7.97733538,1.00982734 C8.48105784,1.00982734 8.88892531,1.4185902 8.88892531,1.9214013 L8.88892531,7.08708295 L14.0537276,7.08708295 C14.5571463,7.08708295 14.9655893,7.49435881 14.9655893,7.9977775 C14.9655893,8.50119619 14.5571303,8.90935145 14.0537116,8.90935145" id="路径"></path>
                </g>
            </g>
        </g>
    </g>
</svg>