<?xml version="1.0" encoding="UTF-8"?>
<svg width="24px" height="24px" viewBox="0 0 24 24" version="1.1" xmlns="http://www.w3.org/2000/svg" xmlns:xlink="http://www.w3.org/1999/xlink">
    <title>account_circle_fill</title>
    <g id="HiDPI" stroke="none" stroke-width="1" fill="none" fill-rule="evenodd">
        <g id="H-03-setting-设定" transform="translate(-24.000000, -117.000000)" fill="#000000" fill-rule="nonzero">
            <g id="account-账户" transform="translate(24.000000, 116.000000)">
                <g id="account-circle-fill" transform="translate(0.000000, 1.000000)">
                    <rect id="矩形" opacity="0" x="0" y="0" width="24" height="24"></rect>
                    <path d="M11.9999922,1.99999219 C17.52,1.99999219 22.0000078,6.48 22.0000078,11.9999922 C22.0000078,17.52 17.52,22.0000078 11.9999922,22.0000078 C6.48,22.0000078 1.99999219,17.52 1.99999219,11.9999922 C1.99999219,6.48 6.48,1.99999219 11.9999922,1.99999219 Z M6.02296875,15.4160156 C7.491,17.6060156 9.69499219,19.0000312 12.1600078,19.0000312 C14.6239922,19.0000312 16.8289922,17.6070234 18.2959922,15.4160156 C16.6317326,13.8606223 14.437945,12.9968397 12.1600078,13.0000209 C9.88170964,12.9965653 7.68749786,13.8603581 6.02296875,15.4159922 L6.02296875,15.4160156 Z M12,10.9999922 C13.6568542,10.9999922 15,9.65684644 15,7.99999219 C15,6.34313794 13.6568542,4.99999219 12,4.99999219 C10.3431458,4.99999219 9,6.34313794 9,7.99999219 C9,9.65684644 10.3431458,10.9999922 12,10.9999922 Z" id="形状"></path>
                </g>
            </g>
        </g>
    </g>
</svg>