<?xml version="1.0" encoding="UTF-8"?>
<svg width="12px" height="11px" viewBox="0 0 12 11" version="1.1" xmlns="http://www.w3.org/2000/svg" xmlns:xlink="http://www.w3.org/1999/xlink">
    <title>check_circle</title>
    <g id="HiDPI" stroke="none" stroke-width="1" fill="none" fill-rule="evenodd">
        <g id="H-19-task-任务" transform="translate(-118.000000, -468.000000)" fill-rule="nonzero">
            <g id="编组-3" transform="translate(35.000000, 468.000000)">
                <g id="check-circle" transform="translate(83.500000, 0.000000)">
                    <rect id="矩形" fill="#000000" opacity="0" x="0" y="0" width="11" height="11"></rect>
                    <path d="M10.828125,5.5 C10.828125,8.44265039 8.44265039,10.828125 5.5,10.828125 C2.55734961,10.828125 0.171875,8.44265039 0.171875,5.5 C0.171875,2.55734961 2.55734961,0.171875 5.5,0.171875 C8.44265039,0.171875 10.828125,2.55734961 10.828125,5.5 Z M4.88369922,8.32119922 L8.83682422,4.36807422 C8.97105859,4.23383984 8.97105859,4.01618164 8.83682422,3.88194727 L8.35069727,3.39582031 C8.21646289,3.26156445 7.99880469,3.26156445 7.86454883,3.39582031 L4.640625,6.61972266 L3.13545117,5.11454883 C3.0012168,4.98031445 2.78355859,4.98031445 2.64930273,5.11454883 L2.16317578,5.60067578 C2.02894141,5.73491016 2.02894141,5.95256836 2.16317578,6.08680273 L4.39755078,8.32117773 C4.53180664,8.45543359 4.74944336,8.45543359 4.88369922,8.32119922 L4.88369922,8.32119922 Z" id="形状" fill="#9CEEA3"></path>
                    <path d="M4.88369922,8.32119922 L8.83682422,4.36807422 C8.97105859,4.23383984 8.97105859,4.01618164 8.83682422,3.88194727 L8.35069727,3.39582031 C8.21646289,3.26156445 7.99880469,3.26156445 7.86454883,3.39582031 L4.640625,6.61972266 L3.13545117,5.11454883 C3.0012168,4.98031445 2.78355859,4.98031445 2.64930273,5.11454883 L2.16317578,5.60067578 C2.02894141,5.73491016 2.02894141,5.95256836 2.16317578,6.08680273 L4.39755078,8.32117773 C4.53180664,8.45543359 4.74944336,8.45543359 4.88369922,8.32119922 L4.88369922,8.32119922 Z" id="路径备份" fill="#FFFFFF"></path>
                </g>
            </g>
        </g>
    </g>
</svg>