<?xml version="1.0" encoding="UTF-8"?>
<svg width="15px" height="15px" viewBox="0 0 15 15" version="1.1" xmlns="http://www.w3.org/2000/svg" xmlns:xlink="http://www.w3.org/1999/xlink">
    <title>common/icon/diamond</title>
    <g id="HiDPI" stroke="none" stroke-width="1" fill="none" fill-rule="evenodd">
        <g id="Room-info-recharge" transform="translate(-84.000000, -381.000000)" fill-rule="nonzero">
            <g id="hi/message/recharge/recharge-item-select" transform="translate(42.000000, 360.000000)">
                <g id="编组" transform="translate(42.000000, 15.000000)">
                    <g id="钻石会员" transform="translate(0.000000, 6.000000)">
                        <rect id="矩形" fill="#000000" opacity="0" x="0" y="0" width="15" height="15"></rect>
                        <path d="M9.94482422,3.15380859 L10.9438477,2.67041016 L9.93896484,2.25146484 L5.0390625,2.25146484 L4.02099609,2.61767578 L4.85888672,3.08642578 L5.52246094,3.2578125 C5.62353516,3.28417969 5.68945312,3.37353516 5.69238281,3.47314453 L9.81738281,3.36621094 C9.81445312,3.27832031 9.86132812,3.19482422 9.94482422,3.15380859 L9.94482422,3.15380859 Z M11.8652344,3.33398437 L11.0493164,5.44775391 L13.1176758,4.38574219 L11.8652344,3.33398437 Z M4.18359375,5.45654297 L3.00146484,3.36914063 L1.62890625,4.38867188 L4.18359375,5.45654297 Z M9.97705078,6.56835937 L5.16357422,6.59033203 L7.66259766,12.3881836 L9.97705078,6.56835937 Z M5.69091797,4.49560547 L5.34521484,5.6015625 L9.92578125,5.63378906 L9.42041016,4.52783203 L5.69091797,4.49560547 Z" id="形状" fill="#FFD524"></path>
                        <path d="M13.9628906,4.90722656 C13.8632813,4.83105469 13.7197266,4.85009766 13.6435547,4.94970703 L8.37011719,11.8447266 L10.4355469,6.65185547 C10.4824219,6.53466797 10.425293,6.40136719 10.3081055,6.35595703 C10.190918,6.30908203 10.0576172,6.36621094 10.012207,6.48339844 L9.97851563,6.56835937 L7.6640625,12.3867187 L5.16357422,6.59033203 L5.12548828,6.50097656 C5.07568359,6.38525391 4.94091797,6.33105469 4.82519531,6.38232422 C4.70947266,6.43212891 4.65673828,6.56689453 4.70654297,6.68261719 L7.00927734,12.0263672 L1.34765625,5.07568359 C1.26855469,4.97753906 1.12353516,4.96289062 1.02685547,5.04345703 C0.928710938,5.12255859 0.9140625,5.26757812 0.994628906,5.36425781 L7.28027344,13.0810547 C7.34033203,13.1542969 7.43554688,13.1806641 7.52197266,13.1557617 C7.56298828,13.1923828 7.61572266,13.2128906 7.67285156,13.2128906 L7.67578125,13.2128906 C7.74462891,13.2114258 7.80761719,13.1806641 7.84863281,13.1293945 L7.85009766,13.1293945 C7.91894531,13.1293945 7.98632812,13.0986328 8.03173828,13.0400391 L14.0068359,5.22802734 C14.0830078,5.12695312 14.0639648,4.98339844 13.9628906,4.90722656 Z" id="路径" fill="#6B400D"></path>
                        <path d="M1.08251953,4.65527344 L4.27880859,5.99121094 C4.30810547,6.00292969 4.33740234,6.00878906 4.36669922,6.00878906 C4.45605469,6.00878906 4.54101562,5.95605469 4.57763672,5.86816406 C4.62597656,5.75244141 4.57177734,5.61767578 4.45458984,5.56933594 L4.18359375,5.45654297 L1.62890625,4.38867188 L3.00146484,3.36914062 L3.02490234,3.3515625 C3.12597656,3.27685547 3.14648438,3.13330078 3.07177734,3.03222656 C2.99560547,2.93115234 2.85351562,2.91064453 2.75244141,2.98535156 L1.03417969,4.26123047 C0.968261719,4.30957031 0.933105469,4.39013672 0.943359375,4.47216797 C0.953613281,4.55419922 1.00634766,4.62304687 1.08251953,4.65527344 L1.08251953,4.65527344 Z M11.8051758,3.28417969 L11.8652344,3.33544922 L13.1176758,4.38720703 L11.0507813,5.44921875 L10.8222656,5.56640625 C10.7109375,5.62353516 10.6655273,5.76123047 10.7241211,5.87402344 C10.7651367,5.953125 10.8442383,5.99853516 10.9277344,5.99853516 C10.9628906,5.99853516 10.9980469,5.98974609 11.0317383,5.97363281 L13.6318359,4.63769531 C13.6992188,4.60253906 13.7460938,4.53662109 13.7548828,4.46044922 C13.7636719,4.38427734 13.7329102,4.30957031 13.6757813,4.25976562 L12.0996094,2.93408203 C12.0029297,2.85351562 11.859375,2.86523438 11.7773438,2.96191406 C11.6967773,3.05859375 11.7084961,3.20214844 11.8051758,3.28417969 Z M3.36181641,2.77148437 L4.66113281,3.49951172 C4.67871094,3.50976562 4.69628906,3.51708984 4.71533203,3.52148437 L5.40673828,3.70019531 C5.42578125,3.70458984 5.44482422,3.70751953 5.46386719,3.70751953 C5.56494141,3.70751953 5.65869141,3.63867187 5.68505859,3.53613281 C5.69091797,3.515625 5.69238281,3.49365234 5.69091797,3.47314453 C5.68798828,3.37353516 5.62207031,3.28417969 5.52099609,3.2578125 L4.85742187,3.08642578 L4.01953125,2.61767578 L5.03759766,2.25146484 L9.9375,2.25146484 L10.9423828,2.67041016 L9.94335937,3.15380859 C9.85986328,3.19482422 9.81298828,3.27832031 9.81445312,3.36474609 C9.81591797,3.39550781 9.82177734,3.42773437 9.83642578,3.45849609 C9.890625,3.57128906 10.0268555,3.61962891 10.1411133,3.56396484 L11.5957031,2.86083984 C11.6762695,2.82128906 11.7275391,2.73925781 11.7246094,2.6484375 C11.7216797,2.55908203 11.6674805,2.47851562 11.5839844,2.44482422 L10.0693359,1.81201172 C10.0415039,1.80029297 10.012207,1.79443359 9.98144531,1.79443359 L4.99951172,1.79443359 C4.97314453,1.79443359 4.94677734,1.79882812 4.921875,1.80761719 L3.39550781,2.35693359 C3.31201172,2.38769531 3.25341797,2.46386719 3.24462891,2.55322266 C3.23730469,2.64257812 3.28271484,2.72753906 3.36181641,2.77148437 Z M9.56835938,4.07373047 L5.52539063,4.03857422 L5.52392578,4.03857422 C5.42431641,4.03857422 5.33642578,4.10302734 5.30566406,4.19824219 L4.81640625,5.76123047 C4.79443359,5.83007812 4.80761719,5.90478516 4.85009766,5.96337891 C4.89257813,6.02197266 4.95996094,6.05712891 5.03320313,6.05712891 L10.2802734,6.09228516 L10.2817383,6.09228516 C10.359375,6.09228516 10.4311523,6.05273438 10.4736328,5.98828125 C10.5161133,5.92236328 10.5219727,5.84033203 10.4897461,5.77001953 L9.7734375,4.20703125 C9.73681641,4.12646484 9.65771484,4.07373047 9.56835938,4.07373047 L9.56835938,4.07373047 Z M5.34521484,5.6015625 L5.69091797,4.49560547 L9.41894531,4.52929688 L9.92431641,5.63378906 L5.34521484,5.6015625 L5.34521484,5.6015625 Z" id="形状" fill="#6B400D"></path>
                    </g>
                </g>
            </g>
        </g>
    </g>
</svg>