<?xml version="1.0" encoding="UTF-8"?>
<svg width="16px" height="16px" viewBox="0 0 16 16" version="1.1" xmlns="http://www.w3.org/2000/svg" xmlns:xlink="http://www.w3.org/1999/xlink">
    <title>管理员</title>
    <g id="HiDPI" stroke="none" stroke-width="1" fill="none" fill-rule="evenodd">
        <g id="F-19-room-member" transform="translate(-32.000000, -317.000000)" fill="#000000" fill-rule="nonzero">
            <g id="编组" transform="translate(24.000000, 313.000000)">
                <g id="管理员" transform="translate(8.000000, 4.000000)">
                    <rect id="矩形" opacity="0" x="0" y="0" width="16" height="16"></rect>
                    <path d="M10.16,12.848 L11.024,12.848 L11.024,15.44 L10.16,15.44 L10.16,12.848 Z M14.488,12.44 C14.472,12.48 14.44,12.52 14.328,12.52 L13.424,12.52 L13.424,14.712 C13.424,15.056 13.2,15.44 12.832,15.44 L11.896,15.44 L11.896,12.848 C11.896,12.368 11.504,11.984 11.032,11.984 L10.16,11.984 C9.68,11.984 9.296,12.376 9.296,12.848 L9.296,15.44 L8.48,15.44 C8.112,15.44 7.888,15.064 7.888,14.712 L7.888,12.52 L6.976,12.52 C6.864,12.52 6.832,12.48 6.816,12.44 C6.8,12.4 6.816,12.28 6.968,12.128 L10.208,8.712 C10.32,8.584 10.48,8.52 10.648,8.52 C10.824,8.52 10.976,8.584 11.096,8.712 L14.328,12.128 C14.488,12.288 14.496,12.408 14.488,12.44 Z M7.84,8.784 C5.544,8.784 3.688,6.928 3.688,4.632 C3.688,2.344 5.544,0.48 7.84,0.48 C10.136,0.48 11.992,2.336 11.992,4.632 C11.992,6.928 10.136,8.784 7.84,8.784 L7.84,8.784 Z M7.84,1.744 C6.248,1.744 4.96,3.04 4.96,4.632 C4.96,6.224 6.256,7.52 7.84,7.52 C9.432,7.52 10.72,6.224 10.72,4.632 C10.72,3.04 9.432,1.744 7.84,1.744 Z M2.224,14.928 C1.88,14.928 1.592,14.648 1.592,14.296 C1.592,10.64 4.56,7.656 8.208,7.656 C8.552,7.656 8.84,7.936 8.84,8.288 C8.84,8.632 8.56,8.92 8.208,8.92 C5.248,8.92 2.848,11.336 2.848,14.296 C2.856,14.648 2.576,14.928 2.224,14.928 L2.224,14.928 Z" id="形状"></path>
                </g>
            </g>
        </g>
    </g>
</svg>