<?xml version="1.0" encoding="UTF-8"?>
<svg width="15px" height="15px" viewBox="0 0 15 15" version="1.1" xmlns="http://www.w3.org/2000/svg" xmlns:xlink="http://www.w3.org/1999/xlink">
    <title>common/icon/user</title>
    <g id="HiDPI" stroke="none" stroke-width="1" fill="none" fill-rule="evenodd">
        <g id="chat-单聊界面" transform="translate(-320.000000, -56.000000)" fill="#000000" fill-rule="nonzero">
            <g id="user" transform="translate(320.000000, 56.000000)">
                <rect id="矩形" opacity="0" x="0" y="0" width="15" height="15"></rect>
                <path d="M7.5,2.34375 C5.69296875,2.34375 4.21875,3.81796875 4.21875,5.625 C4.21875,6.7546875 4.7953125,7.7578125 5.6690625,8.34984375 C3.99703125,9.06703125 2.8125,10.7264063 2.8125,12.65625 L3.75,12.65625 C3.75,10.5796875 5.4234375,8.90625 7.5,8.90625 C9.5765625,8.90625 11.25,10.5796875 11.25,12.65625 L12.1875,12.65625 C12.1875,10.7264063 11.0029687,9.0675 9.3309375,8.349375 C10.2364294,7.73810999 10.7797475,6.71750092 10.78125,5.625 C10.78125,3.81796875 9.30703125,2.34375 7.5,2.34375 Z M7.5,3.28125 C8.79984375,3.28125 9.84375,4.32515625 9.84375,5.625 C9.84375,6.92484375 8.79984375,7.96875 7.5,7.96875 C6.20015625,7.96875 5.15625,6.92484375 5.15625,5.625 C5.15625,4.32515625 6.20015625,3.28125 7.5,3.28125 Z" id="形状"></path>
            </g>
        </g>
    </g>
</svg>