<?xml version="1.0" encoding="UTF-8"?>
<svg width="20px" height="20px" viewBox="0 0 20 20" version="1.1" xmlns="http://www.w3.org/2000/svg" xmlns:xlink="http://www.w3.org/1999/xlink">
    <title>gift备份</title>
    <g id="HiDPI" stroke="none" stroke-width="1" fill="none" fill-rule="evenodd">
        <g id="Room-base" transform="translate(-335.000000, -635.000000)" fill="#000000" fill-rule="nonzero">
            <g id="hi/message/room/room-base" transform="translate(0.000000, 48.000000)">
                <g id="room-gift-button" transform="translate(330.000000, 582.000000)">
                    <g id="gift备份" transform="translate(5.000000, 5.000000)">
                        <rect id="矩形" opacity="0" x="0" y="0" width="20" height="20"></rect>
                        <path d="M15.3333333,15.4736842 C15.3333333,15.9387661 14.9353642,16.3157895 14.4444444,16.3157895 L12.6666667,16.3157895 L12.6666667,10.4210526 L15.3333333,10.4210526 L15.3333333,15.4736842 Z M9.1111111,16.3157895 L10.8888889,16.3157895 L10.8888889,10.4210526 L9.1111111,10.4210526 L9.1111111,16.3157895 Z M5.55555556,16.3157895 C5.06463578,16.3157895 4.66666667,15.9387661 4.66666667,15.4736842 L4.66666667,10.4210526 L7.33333333,10.4210526 L7.33333333,16.3157895 L5.55555556,16.3157895 L5.55555556,16.3157895 Z M3.77777777,7.89473685 C3.77777777,7.42965495 4.17574689,7.05263158 4.66666667,7.05263158 L7.33333333,7.05263158 L7.33333333,8.73684212 L3.77777777,8.73684212 L3.77777777,7.89473685 Z M7.33333333,4.52631579 C7.33340848,4.06128424 7.73135558,3.68433944 8.22222222,3.68433944 C8.71308886,3.68433944 9.11103596,4.06128424 9.1111111,4.52631579 L9.1111111,5.36842106 L8.22222223,5.36842106 C7.73130245,5.36842106 7.33333333,4.99139769 7.33333333,4.52631579 L7.33333333,4.52631579 Z M11.7777778,3.68421054 C12.2686444,3.68428173 12.6665306,4.06128425 12.6665306,4.5263158 C12.6665306,4.99134735 12.2686444,5.36834986 11.7777778,5.36842106 L10.8888889,5.36842106 L10.8888889,4.52631579 C10.8888889,4.06123391 11.286858,3.68421054 11.7777778,3.68421054 L11.7777778,3.68421054 Z M9.1111111,7.05263158 L10.8888889,7.05263158 L10.8888889,8.73684212 L9.1111111,8.73684212 L9.1111111,7.05263158 L9.1111111,7.05263158 Z M16.2222222,7.89473685 L16.2222222,8.73684212 L12.6666667,8.73684212 L12.6666667,7.05263158 L15.3333333,7.05263158 C15.8242531,7.05263158 16.2222222,7.42965495 16.2222222,7.89473685 L16.2222222,7.89473685 Z M15.3333333,5.36842106 L14.28,5.36842106 C14.3804444,5.10400001 14.4444444,4.82357896 14.4444444,4.52631579 C14.4444444,3.13347368 13.248,2 11.7777778,2 C11.1196292,2.00211186 10.4858805,2.23626532 10,2.6568421 C9.51411949,2.23626532 8.88037081,2.00211186 8.22222223,2 C6.752,2 5.55555556,3.1334737 5.55555556,4.52631579 C5.55555556,4.82357894 5.61955556,5.10399999 5.72,5.36842106 L4.66666667,5.36842106 C3.19644444,5.36842106 2,6.50189473 2,7.89473685 L2,9.57894737 C2,10.0440293 2.39796911,10.4210526 2.8888889,10.4210526 L2.8888889,15.4736842 C2.8888889,16.8665263 4.08533333,18 5.55555556,18 L14.4444444,18 C15.9146667,18 17.1111111,16.8665263 17.1111111,15.4736842 L17.1111111,10.4210526 C17.6020309,10.4210526 18,10.0440293 18,9.57894737 L18,7.89473685 C18,6.50189473 16.8035556,5.36842106 15.3333333,5.36842106 Z" id="形状"></path>
                    </g>
                </g>
            </g>
        </g>
    </g>
</svg>