<?xml version="1.0" encoding="UTF-8"?>
<svg width="16px" height="16px" viewBox="0 0 16 16" version="1.1" xmlns="http://www.w3.org/2000/svg" xmlns:xlink="http://www.w3.org/1999/xlink">
    <title>common/icon/smail</title>
    <g id="HiDPI" stroke="none" stroke-width="1" fill="none" fill-rule="evenodd">
        <g id="E-03-chat-单聊界面" transform="translate(-44.000000, -643.000000)" fill="#000000" fill-rule="nonzero">
            <g id="hi/message/info/moment/overview-full" transform="translate(0.000000, 539.000000)">
                <g id="表情" transform="translate(44.000000, 104.000000)">
                    <rect id="矩形" opacity="0" x="1" y="1" width="14" height="14"></rect>
                    <path d="M7.99526271,1.0000003 C10.8268765,0.998136841 13.3807203,2.70240805 14.4656394,5.31793679 C15.5505584,7.93346553 14.9528294,10.9450064 12.951243,12.9479272 C10.9496566,14.9508481 7.93851471,15.5505839 5.32226351,14.4674082 C2.70601232,13.3842325 1.00000235,10.831525 1.00000235,7.99991061 C0.994032083,6.14239882 1.72894801,4.35916594 3.04197632,3.04526229 C4.35500462,1.73135863 6.13774732,0.995254449 7.99526271,1.0000003 Z M7.99526271,13.6000635 C11.085441,13.6000635 13.5907254,11.0952696 13.5914404,8.00509137 C13.5921551,4.91491316 11.0880297,2.4090488 7.99785174,2.40761779 C4.90767378,2.40618801 2.40122962,4.90973306 2.39897304,7.99991061 C2.38971185,9.48731894 2.97617217,10.916578 4.02758442,11.9687204 C5.07899668,13.0208628 6.50784824,13.6083151 7.99526271,13.6000635 Z M11.4291404,9.40284162 C11.0946642,11.0333379 9.65971227,12.2038085 7.99526271,12.2038085 C6.33081315,12.2038085 4.89586118,11.0333379 4.56138506,9.40284162 L11.4291404,9.40284162 Z M5.89669556,5.90522971 C6.17962596,5.90522971 6.43469721,6.07566287 6.54296998,6.33705647 C6.65124275,6.59845008 6.59139458,6.89932713 6.39133258,7.09938913 C6.19127058,7.29945113 5.89039353,7.35929929 5.62899993,7.25102651 C5.36760632,7.14275373 5.19717318,6.88768248 5.19717318,6.60475208 C5.20054994,6.21982392 5.51176739,5.90860646 5.89669556,5.90522971 L5.89669556,5.90522971 Z M10.0938299,5.90522971 C10.3767603,5.90522971 10.6318315,6.07566287 10.7401043,6.33705647 C10.848377,6.59845008 10.7885289,6.89932713 10.5884669,7.09938913 C10.3884049,7.29945113 10.0875278,7.35929929 9.82613422,7.25102651 C9.56474062,7.14275373 9.39430747,6.88768248 9.39430747,6.60475208 C9.3972683,6.21964963 9.7087274,5.90819054 10.0938299,5.90522971 L10.0938299,5.90522971 Z" id="形状"></path>
                </g>
            </g>
        </g>
    </g>
</svg>