<?xml version="1.0" encoding="UTF-8"?>
<svg width="44px" height="44px" viewBox="0 0 44 44" version="1.1" xmlns="http://www.w3.org/2000/svg" xmlns:xlink="http://www.w3.org/1999/xlink">
    <title>mic</title>
    <g id="HiDPI" stroke="none" stroke-width="1" fill="none" fill-rule="evenodd">
        <g id="F-07-Room-black-座位操作" transform="translate(-165.000000, -307.000000)" fill="#000000" fill-rule="nonzero">
            <g id="mic" transform="translate(165.000000, 307.000000)">
                <rect id="矩形" opacity="0" x="0" y="0" width="44" height="44"></rect>
                <path d="M28.138,42.1666667 L15.9316667,42.1666667 C14.7528333,42.1666667 13.8526667,41.294 13.8526667,40.1536667 C13.8526667,39.0133333 14.7528333,38.1406667 15.9316667,38.1406667 L28.138,38.1406667 C29.3168333,38.1406667 30.217,39.0133333 30.217,40.1536667 C30.217,41.294 29.2453333,42.1666667 28.138,42.1666667 Z M22.0348333,42.1666667 C20.856,42.1666667 19.954,41.294 19.954,40.1536667 L19.954,34.5161667 C19.954,33.3758333 20.856,32.5031667 22.0348333,32.5031667 C23.2136667,32.5031667 24.1156667,33.3758333 24.1156667,34.5161667 L24.1156667,40.1536667 C24.1156667,41.294 23.144,42.1666667 22.0348333,42.1666667 Z M22.0348333,36.5291667 C13.9205,36.5291667 7.33333335,30.1546667 7.33333335,22.3025 L7.33333335,18.3425 C7.33333335,17.2021667 8.23533335,16.3295 9.41416665,16.3295 C10.593,16.3295 11.495,17.2021667 11.495,18.3425 L11.495,22.3025 C11.495,27.94 16.2103333,32.5031667 22.0348333,32.5031667 C27.8593333,32.5031667 32.5765,27.9381667 32.5765,22.3025 L32.5765,18.3425 C32.5765,17.2021667 33.4766667,16.3295 34.6555,16.3295 C35.8343333,16.3295 36.7363333,17.2021667 36.7363333,18.3425 L36.7363333,22.3025 C36.6666667,30.1546667 30.0795,36.5291667 22.033,36.5291667 L22.0348333,36.5291667 Z M22.0348333,30.0868333 C18.0125,30.0868333 14.6831667,26.8656667 14.6831667,22.9735 L14.6831667,10.89 C14.6831667,9.74966665 15.5851667,8.87883335 16.764,8.87883335 C17.9428333,8.87883335 18.8448333,9.7496667 18.8448333,10.8918333 L18.8448333,22.9716667 C18.8448333,24.6491667 20.3005,26.059 22.0348333,26.059 C23.7673333,26.059 25.2248333,24.6491667 25.2248333,22.9716667 L25.2248333,10.89 C25.2248333,9.74966665 26.1268333,8.87883335 27.3056667,8.87883335 C28.4845,8.87883335 29.3846667,9.7496667 29.3846667,10.8918333 L29.3846667,22.9716667 C29.3846667,26.8638333 26.0571667,30.085 22.033,30.085 L22.0348333,30.0868333 Z M27.3056667,23.0395 C26.1268333,23.0395 25.2248333,22.1668333 25.2248333,21.0265 L25.2248333,8.94666665 C25.2248333,7.26916665 23.7673333,5.8593333 22.0348333,5.85933335 C20.3005,5.85933335 18.8448333,7.271 18.8448333,8.94666665 L18.8448333,21.0283333 C18.8448333,22.1668333 17.9428333,23.0395 16.764,23.0395 C15.5851667,23.0395 14.685,22.1668333 14.685,21.0283333 L14.685,8.94666665 C14.685,5.0545 17.9428333,1.83333335 22.0366667,1.83333335 C26.1286667,1.83333335 29.3883333,5.0545 29.3883333,8.94666665 L29.3883333,21.0283333 C29.3883333,22.1668333 28.4166667,23.0395 27.3075,23.0395 L27.3056667,23.0395 Z" id="形状"></path>
            </g>
        </g>
    </g>
</svg>