<?xml version="1.0" encoding="UTF-8"?>
<svg width="20px" height="20px" viewBox="0 0 20 20" version="1.1" xmlns="http://www.w3.org/2000/svg" xmlns:xlink="http://www.w3.org/1999/xlink">
    <title>common/icon/chat</title>
    <g id="HiDPI" stroke="none" stroke-width="1" fill="none" fill-rule="evenodd">
        <g id="Room-base" transform="translate(-282.000000, -635.000000)" fill="#000000" fill-rule="nonzero">
            <g id="hi/message/room/room-base" transform="translate(0.000000, 48.000000)">
                <g id="room-chat-button" transform="translate(277.000000, 582.000000)">
                    <g id="chat-smile-3-line" transform="translate(5.000000, 5.000000)">
                        <rect id="矩形" opacity="0" x="0" y="0" width="20" height="20"></rect>
                        <path d="M1.6666599,10 C1.6666599,5.3975 5.3975,1.66666666 10,1.66666666 C14.6025,1.66666666 18.3333333,5.3975 18.3333333,10 C18.3333333,14.6025 14.6025,18.3333333 10,18.3333333 L1.6666599,18.3333333 L4.1075,15.8925 C2.54227604,14.331334 1.66384841,12.2106916 1.6666599,10 Z M5.69,16.6666667 L10,16.6666667 C13.6818983,16.6666667 16.6666667,13.6818983 16.6666667,10 C16.6666667,6.31810167 13.6818983,3.33333334 10,3.33333334 C6.31810167,3.33333334 3.33333334,6.31810167 3.33333334,10 C3.33333334,11.7933333 4.0425,13.4708333 5.28583334,14.7141667 L6.46416666,15.8925 L5.69,16.6666667 L5.69,16.6666667 Z M6.66666666,10.8333333 L13.3333333,10.8333333 C13.3333333,12.6742825 11.8409492,14.1666667 10,14.1666667 C8.15905083,14.1666667 6.66666666,12.6742825 6.66666666,10.8333333 Z" id="形状"></path>
                    </g>
                </g>
            </g>
        </g>
    </g>
</svg>