<?xml version="1.0" encoding="UTF-8"?>
<svg width="16px" height="16px" viewBox="0 0 16 16" version="1.1" xmlns="http://www.w3.org/2000/svg" xmlns:xlink="http://www.w3.org/1999/xlink">
    <title>common_icon_search_in_2_放大</title>
    <g id="HiDPI" stroke="none" stroke-width="1" fill="none" fill-rule="evenodd">
        <g id="H-14-car-ef-shop" transform="translate(-145.000000, -325.000000)">
            <rect fill="#FFFFFF" x="0" y="0" width="375" height="667"></rect>
            <g id="编组-2备份-4" transform="translate(24.000000, 316.000000)">
                <g id="编组备份-4" fill="#FAFAFA">
                    <rect id="矩形备份" x="1" y="0" width="150" height="157" rx="10"></rect>
                </g>
                <g id="编组" transform="translate(121.000000, 9.000000)" fill="#000000" fill-rule="nonzero">
                    <g id="search-in-2">
                        <rect id="矩形" opacity="0" x="0" y="0" width="16" height="16"></rect>
                        <path d="M5.66666667,5.66666667 L5.66666667,4.33333333 C5.6666302,4.09513196 5.79368818,3.87500922 5.99997054,3.755898 C6.2062529,3.63678679 6.46041377,3.63678679 6.66669613,3.755898 C6.87297849,3.87500922 7.00003647,4.09513196 7,4.33333333 L7,5.66666667 L8.33333333,5.66666667 C8.5715347,5.6666302 8.79165744,5.79368818 8.91076865,5.99997054 C9.02987987,6.2062529 9.02987987,6.46041377 8.91076865,6.66669613 C8.79165744,6.87297849 8.5715347,7.00003647 8.33333333,7 L7,7 L7,8.33333333 C7.00003647,8.5715347 6.87297849,8.79165744 6.66669613,8.91076865 C6.46041377,9.02987987 6.2062529,9.02987987 5.99997054,8.91076865 C5.79368818,8.79165744 5.6666302,8.5715347 5.66666667,8.33333333 L5.66666667,7 L4.33333333,7 C4.09513196,7.00003647 3.87500922,6.87297849 3.755898,6.66669613 C3.63678679,6.46041377 3.63678679,6.2062529 3.755898,5.99997054 C3.87500922,5.79368818 4.09513196,5.6666302 4.33333333,5.66666667 L5.66666667,5.66666667 Z M11.369,8.935 L14.8393333,12.4053333 C15.4971637,13.0633315 15.4979095,14.1297491 14.841,14.7886667 L14.7886667,14.841 C14.472518,15.1570588 14.0436926,15.3344728 13.5966545,15.3341606 C13.1496165,15.3338476 12.7210396,15.155834 12.4053333,14.8393333 L8.935,11.369 C8.13095591,11.7850003 7.23861845,12.001425 6.33333333,12 C3.20366667,12 0.666666672,9.463 0.666666672,6.33333333 C0.666666672,3.20366666 3.20366667,0.666666672 6.33333333,0.666666672 C9.46299998,0.666666672 12,3.20366667 12,6.33333333 C12,7.271 11.7723333,8.15566666 11.369,8.935 Z M10.605,10.0566667 C10.435,10.2516667 10.2516667,10.435 10.0566667,10.605 L13.3483333,13.8966667 C13.4139878,13.9631047 13.5034156,14.000634 13.5968202,14.0009488 C13.6902249,14.0012597 13.779902,13.9643302 13.846,13.8983333 L13.8983333,13.846 C14.0345157,13.7077921 14.0337717,13.485626 13.8966667,13.3483333 L10.605,10.0566667 L10.605,10.0566667 Z M6.33333333,10.6666667 C8.72666666,10.6666667 10.6666667,8.72666667 10.6666667,6.33333333 C10.6666667,3.93999998 8.72666667,2 6.33333333,2 C3.93999998,2 2,3.94 2,6.33333333 C2,8.72666666 3.94,10.6666667 6.33333333,10.6666667 Z" id="形状"></path>
                    </g>
                </g>
                <g id="common/icon/search-in-2-放大" transform="translate(121.000000, 9.000000)" fill="#000000" fill-rule="nonzero">
                    <g id="search-in-2">
                        <rect id="矩形" opacity="0" x="0" y="0" width="16" height="16"></rect>
                        <path d="M5.66666667,5.66666667 L5.66666667,4.33333333 C5.6666302,4.09513196 5.79368818,3.87500922 5.99997054,3.755898 C6.2062529,3.63678679 6.46041377,3.63678679 6.66669613,3.755898 C6.87297849,3.87500922 7.00003647,4.09513196 7,4.33333333 L7,5.66666667 L8.33333333,5.66666667 C8.5715347,5.6666302 8.79165744,5.79368818 8.91076865,5.99997054 C9.02987987,6.2062529 9.02987987,6.46041377 8.91076865,6.66669613 C8.79165744,6.87297849 8.5715347,7.00003647 8.33333333,7 L7,7 L7,8.33333333 C7.00003647,8.5715347 6.87297849,8.79165744 6.66669613,8.91076865 C6.46041377,9.02987987 6.2062529,9.02987987 5.99997054,8.91076865 C5.79368818,8.79165744 5.6666302,8.5715347 5.66666667,8.33333333 L5.66666667,7 L4.33333333,7 C4.09513196,7.00003647 3.87500922,6.87297849 3.755898,6.66669613 C3.63678679,6.46041377 3.63678679,6.2062529 3.755898,5.99997054 C3.87500922,5.79368818 4.09513196,5.6666302 4.33333333,5.66666667 L5.66666667,5.66666667 Z M11.369,8.935 L14.8393333,12.4053333 C15.4971637,13.0633315 15.4979095,14.1297491 14.841,14.7886667 L14.7886667,14.841 C14.472518,15.1570588 14.0436926,15.3344728 13.5966545,15.3341606 C13.1496165,15.3338476 12.7210396,15.155834 12.4053333,14.8393333 L8.935,11.369 C8.13095591,11.7850003 7.23861845,12.001425 6.33333333,12 C3.20366667,12 0.666666672,9.463 0.666666672,6.33333333 C0.666666672,3.20366666 3.20366667,0.666666672 6.33333333,0.666666672 C9.46299998,0.666666672 12,3.20366667 12,6.33333333 C12,7.271 11.7723333,8.15566666 11.369,8.935 Z M10.605,10.0566667 C10.435,10.2516667 10.2516667,10.435 10.0566667,10.605 L13.3483333,13.8966667 C13.4139878,13.9631047 13.5034156,14.000634 13.5968202,14.0009488 C13.6902249,14.0012597 13.779902,13.9643302 13.846,13.8983333 L13.8983333,13.846 C14.0345157,13.7077921 14.0337717,13.485626 13.8966667,13.3483333 L10.605,10.0566667 L10.605,10.0566667 Z M6.33333333,10.6666667 C8.72666666,10.6666667 10.6666667,8.72666667 10.6666667,6.33333333 C10.6666667,3.93999998 8.72666667,2 6.33333333,2 C3.93999998,2 2,3.94 2,6.33333333 C2,8.72666666 3.94,10.6666667 6.33333333,10.6666667 Z" id="形状"></path>
                    </g>
                </g>
            </g>
        </g>
    </g>
</svg>