<?xml version="1.0" encoding="UTF-8"?>
<svg width="24px" height="25px" viewBox="0 0 24 25" version="1.1" xmlns="http://www.w3.org/2000/svg" xmlns:xlink="http://www.w3.org/1999/xlink">
    <title>common/icon/apple</title>
    <defs>
        <filter id="filter-1">
            <feColorMatrix in="SourceGraphic" type="matrix" values="0 0 0 0 1.000000 0 0 0 0 1.000000 0 0 0 0 1.000000 0 0 0 1.000000 0"></feColorMatrix>
        </filter>
    </defs>
    <g id="页面-1" stroke="none" stroke-width="1" fill="none" fill-rule="evenodd">
        <g id="D-00-登录页面-登录方式" transform="translate(-250.000000, -594.000000)">
            <g id="common/icon/apple备份" transform="translate(220.000000, 586.000000)" filter="url(#filter-1)">
                <g transform="translate(30.000000, 8.818182)" id="apple" fill="#000000" fill-rule="nonzero">
                    <rect id="矩形" opacity="0" x="0" y="0" width="24" height="24"></rect>
                    <path d="M18.71,19.5 C17.88,20.74 17,21.95 15.66,21.97 C14.32,22 13.89,21.18 12.37,21.18 C10.84,21.18 10.37,21.95 9.10000001,22 C7.78999999,22.05 6.79999999,20.68 5.95999999,19.47 C4.24999999,17 2.94,12.45 4.69999999,9.39 C5.56999999,7.87000001 7.12999999,6.91000001 8.82,6.88000001 C10.1,6.85999999 11.32,7.75000001 12.11,7.75000001 C12.89,7.75000001 14.37,6.67999999 15.92,6.84 C16.57,6.87 18.39,7.09999999 19.56,8.82 C19.47,8.88 17.39,10.1 17.41,12.63 C17.44,15.65 20.06,16.66 20.09,16.67 C20.06,16.74 19.67,18.11 18.71,19.5 M13,3.49999999 C13.73,2.67 14.94,2.04 15.94,1.99999999 C16.07,3.16999999 15.6,4.35 14.9,5.19 C14.21,6.04000001 13.07,6.70000001 11.95,6.61000001 C11.8,5.46 12.36,4.26 13,3.49999999 Z" id="形状"></path>
                </g>
            </g>
        </g>
    </g>
</svg>