<?xml version="1.0" encoding="UTF-8"?>
<svg width="16px" height="16px" viewBox="0 0 16 16" version="1.1" xmlns="http://www.w3.org/2000/svg" xmlns:xlink="http://www.w3.org/1999/xlink">
    <title>齿轮</title>
    <defs>
        <filter id="filter-1">
            <feColorMatrix in="SourceGraphic" type="matrix" values="0 0 0 0 0.701856 0 0 0 0 0.701856 0 0 0 0 0.701856 0 0 0 0.300000 0"></feColorMatrix>
        </filter>
    </defs>
    <g id="HiDPI" stroke="none" stroke-width="1" fill="none" fill-rule="evenodd">
        <g id="F-19-room-member" transform="translate(-327.000000, -317.000000)">
            <g id="编组" transform="translate(24.000000, 313.000000)">
                <g id="齿轮" transform="translate(303.000000, 4.000000)" filter="url(#filter-1)">
                    <g>
                        <rect id="矩形" fill="#000000" fill-rule="nonzero" opacity="0" x="0" y="0" width="16" height="16"></rect>
                        <path d="M13.1506039,8.67611759 C13.1783451,8.45422005 13.199147,8.22883684 13.199147,8 C13.199147,7.77116316 13.1783451,7.54579595 13.1506039,7.32388241 L14.6172575,6.17622852 C14.7490082,6.07221903 14.7871583,5.88498598 14.7004651,5.73241742 L13.3135654,3.32961452 C13.2268882,3.18051561 13.0465784,3.11810992 12.8905562,3.18051561 L11.1638549,3.87743509 C10.806721,3.60352481 10.4149227,3.37121831 9.99192945,3.1943782 L9.73189777,1.35672814 C9.70068692,1.19376662 9.55852731,1.06548561 9.38517284,1.06548561 L6.61137348,1.06548561 C6.43800303,1.06548561 6.29585941,1.19376664 6.26811822,1.35672814 L6.00807053,3.19437822 C5.58506133,3.37120233 5.19326297,3.60003919 4.83614509,3.87743511 L3.10945978,3.18051562 C2.95343756,3.12157958 2.7731438,3.18051562 2.68645058,3.32961453 L1.29955089,5.73241744 C1.21287366,5.88151634 1.2510078,6.06873342 1.38275847,6.17622853 L2.84594244,7.32388242 C2.81820125,7.54577997 2.79739934,7.77116317 2.79739934,8.00000002 C2.79739934,8.22883686 2.81820123,8.45420406 2.84594244,8.67611761 L1.38275847,9.8237715 C1.2510078,9.92778098 1.21285766,10.115014 1.29955089,10.2675826 L2.68645058,12.6703855 C2.77312781,12.8194844 2.95342158,12.8818901 3.10945978,12.8194844 L4.83616108,12.1225649 C5.19329494,12.3964752 5.5850933,12.6287817 6.00808652,12.8056218 L6.2681342,14.6432719 C6.29587539,14.8062334 6.43803502,14.9345144 6.61138947,14.9345144 L9.38518883,14.9345144 C9.55855928,14.9345144 9.70070291,14.8062334 9.72844409,14.6432719 L9.98849178,12.8056218 C10.411501,12.6287977 10.8032993,12.3999608 11.1604172,12.1225649 L12.8871025,12.8194844 C13.0431248,12.8784205 13.2234345,12.8194844 13.3101117,12.6703855 L14.6970114,10.2675826 C14.7836887,10.1184837 14.7455545,9.93126661 14.6138038,9.8237715 L13.1506039,8.67611759 Z M7.99825719,10.4270744 C6.65643095,10.4270744 5.57118275,9.34182623 5.57118275,8 C5.57118275,6.65817377 6.65643095,5.57292556 7.99825719,5.57292556 C9.34008342,5.57292556 10.4253316,6.65817377 10.4253316,8 C10.4253316,9.34182623 9.34008342,10.4270744 7.99825719,10.4270744 Z" id="形状" fill="#000000" fill-rule="nonzero"></path>
                    </g>
                </g>
            </g>
        </g>
    </g>
</svg>