<?xml version="1.0" encoding="UTF-8"?>
<svg width="10px" height="10px" viewBox="0 0 10 10" version="1.1" xmlns="http://www.w3.org/2000/svg" xmlns:xlink="http://www.w3.org/1999/xlink">
    <title>common/icon/check</title>
    <defs>
        <filter id="filter-1">
            <feColorMatrix in="SourceGraphic" type="matrix" values="0 0 0 0 1.000000 0 0 0 0 1.000000 0 0 0 0 1.000000 0 0 0 1.000000 0"></feColorMatrix>
        </filter>
    </defs>
    <g id="页面-1" stroke="none" stroke-width="1" fill="none" fill-rule="evenodd">
        <g id="A-14-T-01创建房间-未填写完成备份-2" transform="translate(-118.000000, -402.000000)">
            <g id="hi/message/room-create-room-type" transform="translate(32.000000, 371.000000)">
                <g id="common/icon/edit" transform="translate(83.000000, 28.000000)" filter="url(#filter-1)">
                    <g transform="translate(3.200000, 3.200000)" id="check" fill="#000000" fill-rule="nonzero">
                        <rect id="矩形" opacity="0" x="0" y="0" width="9.6" height="9.6"></rect>
                        <path d="M8.952,3.03222857 C8.952,3.17485714 8.90194286,3.29622857 8.80182857,3.39634285 L4.19451428,8.00365714 C4.0944,8.10377142 3.97302857,8.15382857 3.8304,8.15382857 C3.68777143,8.15382857 3.5664,8.10377142 3.46628572,8.00365714 L0.798171431,5.33554285 C0.698057144,5.23542857 0.648,5.11405714 0.648,4.97142857 C0.648,4.8288 0.698057144,4.70742857 0.798171431,4.60731428 L1.5264,3.87908572 C1.62651429,3.77897143 1.74788572,3.72891428 1.89051428,3.72891428 C2.03314285,3.72891428 2.15451428,3.77897143 2.25462857,3.87908572 L3.82971428,5.45965715 L7.344,1.93988572 C7.44411429,1.83977143 7.56548572,1.78971428 7.70811428,1.78971428 C7.85074285,1.78971428 7.97211428,1.83977143 8.07222857,1.93988572 L8.80045714,2.66811428 C8.90057142,2.76822857 8.95062857,2.8896 8.95062857,3.03222857 L8.952,3.03222857 Z" id="路径"></path>
                    </g>
                </g>
            </g>
        </g>
    </g>
</svg>