<?xml version="1.0" encoding="UTF-8"?>
<svg width="16px" height="16px" viewBox="0 0 16 16" version="1.1" xmlns="http://www.w3.org/2000/svg" xmlns:xlink="http://www.w3.org/1999/xlink">
    <title>common_icon_time_记录_record</title>
    <g id="HiDPI" stroke="none" stroke-width="1" fill="none" fill-rule="evenodd">
        <g id="H-15-我的衣服" transform="translate(-32.000000, -300.000000)" fill-rule="nonzero">
            <g id="编组-2备份-2" transform="translate(26.000000, 294.000000)">
                <g id="记录-record" transform="translate(6.000000, 6.000000)">
                    <rect id="矩形" fill="#000000" opacity="0" x="0" y="0" width="16" height="16"></rect>
                    <path d="M8,14.40625 C7.1359375,14.40625 6.296875,14.2375 5.50625,13.903125 C4.74375,13.5796875 4.0578125,13.11875 3.4703125,12.5296875 C2.8828125,11.9421875 2.4203125,11.25625 2.096875,10.49375 C1.7625,9.703125 1.59375,8.8640625 1.59375,8 C1.59375,7.1359375 1.7625,6.296875 2.096875,5.50625 C2.4203125,4.74375 2.88125,4.0578125 3.4703125,3.4703125 C4.0578125,2.8828125 4.74375,2.4203125 5.50625,2.096875 C6.296875,1.7625 7.1359375,1.59375 8,1.59375 C8.8640625,1.59375 9.703125,1.7625 10.49375,2.096875 C11.25625,2.4203125 11.9421875,2.88125 12.5296875,3.4703125 C13.1171875,4.0578125 13.5796875,4.74375 13.903125,5.50625 C14.2375,6.296875 14.40625,7.1359375 14.40625,8 C14.40625,8.8640625 14.2375,9.703125 13.903125,10.49375 C13.5796875,11.25625 13.11875,11.9421875 12.5296875,12.5296875 C11.9421875,13.1171875 11.25625,13.5796875 10.49375,13.903125 C9.703125,14.2375 8.8640625,14.40625 8,14.40625 Z M8,2.6875 C5.0703125,2.6875 2.6875,5.0703125 2.6875,8 C2.6875,10.9296875 5.0703125,13.3125 8,13.3125 C10.9296875,13.3125 13.3125,10.9296875 13.3125,8 C13.3125,5.0703125 10.9296875,2.6875 8,2.6875 Z" id="形状" fill="#151515"></path>
                    <path d="M7.928125,8.5703125 C7.6265625,8.5703125 7.38125,8.325 7.38125,8.0234375 L7.38125,5.265625 C7.38125,4.9640625 7.6265625,4.71875 7.928125,4.71875 C8.2296875,4.71875 8.475,4.9640625 8.475,5.265625 L8.475,8.0234375 C8.475,8.325 8.2296875,8.5703125 7.928125,8.5703125 Z" id="路径" fill="#151515"></path>
                    <path d="M9.996875,8.5703125 L7.928125,8.5703125 C7.6265625,8.5703125 7.38125,8.325 7.38125,8.0234375 C7.38125,7.721875 7.6265625,7.4765625 7.928125,7.4765625 L9.996875,7.4765625 C10.2984375,7.4765625 10.54375,7.721875 10.54375,8.0234375 C10.54375,8.325 10.2984375,8.5703125 9.996875,8.5703125 Z" id="路径" fill="#151515"></path>
                </g>
            </g>
        </g>
    </g>
</svg>