<?xml version="1.0" encoding="UTF-8"?>
<svg width="14px" height="14px" viewBox="0 0 14 14" version="1.1" xmlns="http://www.w3.org/2000/svg" xmlns:xlink="http://www.w3.org/1999/xlink">
    <title>common/icon/kick_out_room</title>
    <defs>
        <filter id="filter-1">
            <feColorMatrix in="SourceGraphic" type="matrix" values="0 0 0 0 1.000000 0 0 0 0 0.534042 0 0 0 0 0.523149 0 0 0 1.000000 0"></feColorMatrix>
        </filter>
    </defs>
    <g id="页面-1" stroke="none" stroke-width="1" fill="none" fill-rule="evenodd">
        <g id="F-21-room-member-set-admin" transform="translate(-289.000000, -366.000000)">
            <g id="编组-2" transform="translate(32.000000, 201.000000)">
                <g id="编组" transform="translate(239.000000, 163.000000)" filter="url(#filter-1)">
                    <g transform="translate(9.000000, 2.000000)">
                        <g id="common/icon/voice-off" transform="translate(9.000000, 0.000000)" fill="#000000" fill-rule="nonzero">
                            <g id="踢出">
                                <rect id="矩形" opacity="0" x="0" y="0" width="14" height="14"></rect>
                                <path d="M9.12229721,6.85500672 C9.10013382,6.63374529 8.94722504,6.51361598 8.63805503,6.37579321 C8.12531706,6.14764065 7.59842433,6.13367212 7.03633092,6.13553459 C6.78749878,6.13574061 6.5388416,6.14873295 6.29134296,6.17446022 C5.33366094,5.85951656 4.63039229,4.70497147 4.6307648,3.64150114 C4.63250396,2.65203549 5.24158734,1.7651561 6.164463,1.40830063 C7.08733866,1.05144515 8.13463389,1.29783981 8.80159751,2.02873299 C9.46856113,2.75962616 9.61833321,3.82503967 9.17873005,4.71149011 C9.10220946,4.86493052 9.11336101,5.04753856 9.20798401,5.19052753 C9.302607,5.33351651 9.46632598,5.41516301 9.63746956,5.40471158 C9.80861315,5.39426014 9.96118058,5.2932986 10.0377012,5.13985819 C10.6397094,3.89623022 10.4247541,2.41146795 9.49476538,1.38963363 C8.56477665,0.36779931 7.10676056,0.0143677578 5.81209656,0.496933358 C4.51743256,0.979498957 3.64645722,2.20102535 3.61218,3.58227461 C3.5935553,4.64611741 4.31991857,5.80047627 5.07999253,6.42961859 C2.49842301,7.28858971 0.446167422,9.47810932 0.315794527,12.6839788 C0.312442083,12.7747431 0.311883341,12.8655696 0.314118301,12.9564581 L0.315235785,13.0628052 C0.315235785,13.4231931 0.565924229,13.7146696 0.873976756,13.7146696 C1.18202928,13.7146696 1.43271773,13.4226343 1.43271773,13.0616877 L1.43271773,12.935226 C1.43097942,12.8717778 1.43097942,12.8083297 1.43271773,12.7448815 C1.56811929,9.42968511 3.8876393,7.18596762 7.02459736,7.18596762 C7.50732319,7.18503879 7.98837761,7.24270027 8.45720921,7.35768734 C8.7611643,7.43348986 9.1694177,7.21073846 9.12229721,6.85500672 L9.12229721,6.85500672 Z" id="路径"></path>
                                <path d="M0.87472175,14 C0.409104281,14 0.0304641504,13.5796405 0.0304641367,13.0628052 L0.0293466523,12.9594381 C0.0271116836,12.8663146 0.0276704258,12.7702111 0.0312091309,12.6737352 C0.148730982,9.78690684 1.86518324,7.39270178 4.54751239,6.32066411 C3.8967654,5.63825514 3.30803867,4.59527199 3.32666337,3.5766872 C3.34150002,2.61012257 3.74249761,1.68968588 4.44023412,1.02063351 C5.14070905,0.34530192 6.06468037,-0.0208596582 7.03502719,0.000931232422 L7.03726216,0.000931232422 C7.59811549,0.00224741093 8.15114094,0.132633454 8.65351353,0.38199257 C10.4517282,1.27597813 11.1864726,3.46773271 10.2924871,5.26594739 C10.1728487,5.51421883 9.92887806,5.67891301 9.65388107,5.69704316 C9.37888407,5.71517331 9.11540306,5.58393468 8.96420552,5.35351906 C8.81300799,5.12310344 8.79748439,4.82915644 8.92357167,4.58409716 C9.06985761,4.29193799 9.14557717,3.96953977 9.14464685,3.64280488 C9.14341627,2.47586311 8.19805697,1.53000397 7.03111601,1.52815656 C5.86405919,1.52928497 4.91811015,2.47481743 4.91646768,3.64187365 C4.91646768,4.60160438 5.54412004,5.59281086 6.32710239,5.8850324 C6.58300575,5.86082029 6.84021285,5.85094919 7.08475514,5.85076294 C7.67627558,5.85076294 8.21285315,5.87516129 8.75315567,6.11560616 C9.04649468,6.24597906 9.36255582,6.41918875 9.40502015,6.822041 C9.43388843,7.05186978 9.34802857,7.27517993 9.16904521,7.43553859 C8.96026234,7.62178558 8.65444478,7.7007543 8.38960155,7.63500912 C7.94311859,7.5256197 7.48502973,7.47071158 7.02534235,7.47148426 C4.0267658,7.47148426 1.84506857,9.64498664 1.71730314,12.7573601 C1.71581316,12.8117442 1.71581316,12.8691083 1.71730314,12.9277761 L1.71730314,13.0611289 C1.71897936,13.5794543 1.34033923,14 0.87472175,14 Z M6.97188946,0.569727528 C5.29510048,0.567826406 3.92632018,1.91041788 3.89583417,3.58693079 C3.87720946,4.55336641 4.56893079,5.63806888 5.26027962,6.20984715 L5.65624072,6.53671061 L5.1690186,6.69893174 C2.42392421,7.61321821 0.715853072,9.85488699 0.600193686,12.6960848 C0.597213736,12.779896 0.596654994,12.8651971 0.598703711,12.9501257 L0.600007434,13.0605702 C0.600007434,13.2628344 0.725910404,13.4312017 0.874907988,13.4312017 C1.02390557,13.4312017 1.1496223,13.2624619 1.1496223,13.0628052 L1.1496223,12.9376472 C1.14775984,12.8756269 1.14775984,12.8072743 1.1496223,12.7381766 C1.29005253,9.30098843 3.70623474,6.90268595 7.02590109,6.90268595 C7.53159989,6.90186026 8.03553446,6.96233491 8.52667934,7.08278679 C8.60918676,7.10252897 8.72167994,7.0725432 8.78966009,7.01182668 C8.84907287,6.95856004 8.84274048,6.91069456 8.84050552,6.89281485 L8.83938803,6.88406124 C8.83435937,6.83451955 8.82821321,6.77231305 8.52276815,6.63635275 C8.06981547,6.43483351 7.60587421,6.42105123 7.03837963,6.42067874 C6.79931825,6.42088606 6.56042388,6.43331876 6.32263245,6.45792813 L6.26210218,6.46426054 L6.20436562,6.44563583 C5.16212746,6.10256888 4.34711063,4.87110378 4.34711063,3.6416874 C4.34711063,2.16232755 5.55119742,0.959730734 7.03074351,0.959730734 C8.51047585,0.959730734 9.71400389,2.16437627 9.71381765,3.64392237 C9.71485995,4.05883619 9.6186689,4.46822222 9.43295719,4.83925554 C9.3848695,4.93573951 9.42410244,5.05293799 9.5205864,5.10102568 C9.61707036,5.14911337 9.73426884,5.10988045 9.78235654,5.01339649 C10.5372156,3.4962285 9.91682687,1.64772713 8.39965889,0.892868074 C7.974323,0.681909408 7.50607987,0.571843276 7.03130225,0.571219523 L7.02962602,0.571219523 C7.01044258,0.569915801 6.99181789,0.569727528 6.97188946,0.569727528 L6.97188946,0.569727528 Z M13.5238723,10.2191861 L13.5227548,10.2180686 L13.5203336,10.2156474 L11.147547,7.84286076 C10.9285044,7.62637416 10.5759165,7.62687288 10.3574872,7.84397824 L10.3556248,7.84584071 C10.2510816,7.95035063 10.1923471,8.09211647 10.1923471,8.23993934 C10.1923471,8.38776221 10.2510816,8.52952805 10.3556248,8.63403797 L11.7995977,10.0783834 L7.58780825,10.0783834 C7.27879542,10.0784317 7.02831664,10.3289496 7.02831664,10.6379625 C7.02831664,10.9469753 7.27879542,11.1974932 7.58780825,11.1975415 L11.7517322,11.1975415 L10.3561835,12.5930902 C10.1394289,12.8122404 10.1399278,13.1651721 10.357301,13.3837087 L10.3591635,13.3855712 C10.4636734,13.4901144 10.6054392,13.5488489 10.7532621,13.5488489 C10.901085,13.5488489 11.0428508,13.4901144 11.1473607,13.3855712 L13.5227548,11.0092458 L13.5238723,11.0081283 C13.6286436,10.9035883 13.687523,10.7616628 13.687523,10.6136572 C13.687523,10.4656517 13.6286436,10.3237261 13.5238723,10.2191861 L13.5238723,10.2191861 Z" id="形状"></path>
                                <path d="M10.7528896,13.832566 C10.5321165,13.8329527 10.3200741,13.7463693 10.1626729,13.5915603 L10.1440482,13.5729356 C9.82807748,13.2414659 9.83228204,12.7190298 10.1535468,12.3926885 L11.0642946,11.4821269 L7.58780825,11.4821269 C7.12153765,11.4821269 6.74355065,11.1041399 6.74355065,10.6378693 C6.74355065,10.1715987 7.12153765,9.79361173 7.58780825,9.79361173 L11.112905,9.79361173 L10.1548505,8.83537096 C9.83048598,8.5116748 9.82469093,7.987967 10.1418132,7.65717251 L10.1604379,7.63854781 C10.4909353,7.31638689 11.0182943,7.31737972 11.3475762,7.64078278 L13.7212941,10.0141282 L13.5238723,10.2189998 L13.7252053,10.0176669 C14.0460373,10.3388182 14.0550111,10.8563339 13.7455063,11.1884154 L13.7117955,11.2226849 L11.3485075,13.5859729 C11.190784,13.744291 10.9763645,13.8330625 10.7528896,13.832566 L10.7528896,13.832566 Z M10.5690638,13.1924331 C10.676871,13.2906037 10.8428116,13.2866664 10.9458415,13.1834932 L13.3339004,10.7950618 C13.4299495,10.6869548 13.4250491,10.5227075 13.3227256,10.4205191 L13.3216081,10.4192154 L10.9460277,8.04382126 C10.841446,7.9422455 10.6760721,7.93899011 10.5675739,8.03637138 L10.5530466,8.05015366 C10.4500298,8.15727244 10.4517692,8.32715924 10.5569578,8.43214623 L12.4872216,10.3627825 L7.58780825,10.3627825 C7.43572771,10.3627825 7.31244207,10.4860682 7.31244207,10.6381487 C7.31244207,10.7902292 7.43572771,10.9135149 7.58780825,10.9135149 L12.4389836,10.9135149 L10.557889,12.7946095 C10.4538308,12.9013452 10.4528434,13.0712717 10.555654,13.1792095 L10.5690638,13.1924331 Z" id="形状"></path>
                            </g>
                        </g>
                    </g>
                </g>
            </g>
        </g>
    </g>
</svg>