<?xml version="1.0" encoding="UTF-8"?>
<svg width="20px" height="20px" viewBox="0 0 20 20" version="1.1" xmlns="http://www.w3.org/2000/svg" xmlns:xlink="http://www.w3.org/1999/xlink">
    <title>mic话筒</title>
    <defs>
        <filter id="filter-1">
            <feColorMatrix in="SourceGraphic" type="matrix" values="0 0 0 0 1.000000 0 0 0 0 1.000000 0 0 0 0 1.000000 0 0 0 1.000000 0"></feColorMatrix>
        </filter>
    </defs>
    <g id="页面-1" stroke="none" stroke-width="1" fill="none" fill-rule="evenodd">
        <g id="F-15-self-mic-on" transform="translate(-58.000000, -630.000000)">
            <g id="hi/message/room/room-base-W" transform="translate(0.000000, 20.000000)">
                <g id="common/iconvoice-on备份" transform="translate(53.000000, 605.000000)" filter="url(#filter-1)">
                    <g transform="translate(5.000000, 5.000000)">
                        <g id="mic话筒" transform="translate(0.000000, 0.000000)" fill-rule="nonzero">
                            <rect id="矩形" fill="#000000" opacity="0" x="0" y="0" width="20" height="20"></rect>
                            <path d="M15.1041667,7.8125 C15.5068743,7.81250001 15.8333333,8.13895905 15.8333333,8.54166667 L15.8333333,10 C15.8333333,12.9395635 13.6463167,15.4199907 10.7298958,15.788125 L10.7291667,17.2916667 L12.9166667,17.2916667 C13.3193307,17.2917283 13.6457217,17.6181693 13.6457217,18.0208333 C13.6457217,18.4234974 13.3193307,18.75 12.9166667,18.75 L7.08333333,18.75 C6.68066929,18.75 6.35427829,18.4234974 6.35427829,18.0208333 C6.35427829,17.6181693 6.68066929,17.2917283 7.08333333,17.2916667 L9.27083333,17.2916667 L9.27083333,15.788125 C6.35412309,15.4203274 4.16666666,12.9398084 4.16666666,10 L4.16666666,8.54166667 C4.16666666,8.28113393 4.30559644,8.04037467 4.53121778,7.91009679 C4.75683911,7.7798189 5.03482757,7.7798189 5.2604489,7.91009679 C5.48607023,8.04037467 5.62503989,8.28113393 5.625,8.54166667 L5.625,10 C5.62491365,12.3524687 7.48512347,14.2838658 9.8359375,14.3720833 L10,14.375 C12.3524687,14.3750863 14.2838658,12.5148765 14.3720833,10.1640625 L14.375,10 L14.375,8.54166667 C14.375,8.34827965 14.4518227,8.16281325 14.588568,8.02606797 C14.7253133,7.8893227 14.9107796,7.8125 15.1041667,7.8125 Z M10,1.25 C11.6108305,1.25 12.9166667,2.55583615 12.9166667,4.16666667 L12.9166667,10 C12.9166667,11.6108305 11.6108305,12.9166667 10,12.9166667 C8.38916948,12.9166667 7.08333333,11.6108305 7.08333333,10 L7.08333333,4.16666667 C7.08333333,2.55583615 8.38916948,1.25 10,1.25 L10,1.25 Z M10,2.70833325 C9.2368361,2.70809181 8.60254975,3.29627716 8.5453125,4.05729167 L8.54165178,4.16666667 L8.54165178,10 C8.53814634,10.7866463 9.15916774,11.4343169 9.94526801,11.4638326 C10.7313683,11.4933483 11.3992088,10.8940704 11.4546875,10.109375 L11.4583333,10 L11.4583333,4.16666667 C11.4583333,3.77989262 11.3046879,3.40895983 11.0311974,3.13546928 C10.7577068,2.86197872 10.386774,2.70833325 10,2.70833325 Z" id="形状" fill="#666666"></path>
                        </g>
                    </g>
                </g>
            </g>
        </g>
    </g>
</svg>