<?xml version="1.0" encoding="UTF-8"?>
<svg width="17px" height="16px" viewBox="0 0 17 16" version="1.1" xmlns="http://www.w3.org/2000/svg" xmlns:xlink="http://www.w3.org/1999/xlink">
    <title>common/icon/at</title>
    <g id="HiDPI" stroke="none" stroke-width="1" fill="none" fill-rule="evenodd">
        <g id="Room-black-用户操作-已关注" transform="translate(-143.000000, -427.000000)" fill="#000000" fill-rule="nonzero">
            <g id="hi/message/room/user/mention" transform="translate(129.000000, 427.000000)">
                <g id="at" transform="translate(14.340000, 0.000000)">
                    <rect id="矩形" opacity="0" x="0" y="0" width="16.32" height="16"></rect>
                    <path d="M8.84000001,1.33333333 C5.51868659,1.02062884 2.45660905,3.11662315 1.61162825,6.28115908 C0.766647455,9.44569501 2.38841948,12.743786 5.43999999,14.0666667 C6.29559598,14.4459828 7.22114212,14.6501474 8.16,14.6666667 C9.65462919,14.6666667 11.1076644,14.1841291 12.2944,13.2933333 C12.5926231,13.0703832 12.6504272,12.6528098 12.4236,12.36 C12.3142597,12.2176364 12.1513325,12.1241174 11.9711874,12.1003185 C11.7910423,12.0765196 11.6086773,12.1244222 11.4648,12.2333333 C9.5252997,13.6696237 6.84928487,13.6702369 4.90909994,12.2348356 C2.96891502,10.7994342 2.23541538,8.2763699 3.11217283,6.0538336 C3.98893028,3.8312973 6.26316821,2.44866709 8.68359999,2.66666667 C11.5129388,2.98771705 13.6363189,5.35451458 13.6,8.14666667 L13.6,8.6 C13.5984189,8.90945015 13.4685884,9.20497417 13.2403245,9.41870447 C13.0120605,9.63243478 12.7049784,9.74600492 12.3896,9.73333333 C11.7437554,9.66381804 11.2626999,9.1165024 11.288,8.48 L11.288,5.6 C11.288,5.23181016 10.9835536,4.93333333 10.608,4.93333333 C10.2644237,4.93047639 9.97265417,5.17933863 9.92799999,5.51333333 C9.2951606,4.92905202 8.45808583,4.60460444 7.5888,4.60666667 C5.95873039,4.61864759 4.55812507,5.74409923 4.22610308,7.30875035 C3.89408109,8.87340146 4.720646,10.4531109 6.2105931,11.1014563 C7.7005402,11.7498016 9.4499789,11.2910313 10.4108,10 C10.810517,10.606225 11.4673252,11.0038662 12.1992124,11.0827306 C12.9310997,11.1615949 13.660322,10.9133053 14.1848,10.4066667 C14.688703,9.93666149 14.9696824,9.28181595 14.96,8.6 L14.96,8.14666667 C14.9914965,4.67751055 12.3541216,1.74134809 8.84000001,1.33333333 Z M7.60239999,10.06 C6.44193928,10.06 5.50119999,9.13770658 5.50119999,8 C5.50119999,6.86229342 6.44193928,5.94 7.60239999,5.94 C8.76286071,5.94 9.70359999,6.86229342 9.70359999,8 C9.69986756,9.13618742 8.76131117,10.0563407 7.60239999,10.06 L7.60239999,10.06 Z" id="形状"></path>
                </g>
            </g>
        </g>
    </g>
</svg>