<?xml version="1.0" encoding="UTF-8"?>
<svg width="16px" height="16px" viewBox="0 0 16 16" version="1.1" xmlns="http://www.w3.org/2000/svg" xmlns:xlink="http://www.w3.org/1999/xlink">
    <title>common/icon/global_地球_语言</title>
    <g id="HiDPI" stroke="none" stroke-width="1" fill="none" fill-rule="evenodd">
        <g id="H-01-Profile" transform="translate(-55.000000, -612.000000)" fill="#000000" fill-rule="nonzero">
            <g id="编组-3" transform="translate(25.000000, 593.000000)">
                <g id="global" transform="translate(30.000000, 19.000000)">
                    <rect id="矩形" opacity="0" x="0" y="0" width="16" height="16"></rect>
                    <path d="M8.00393505,0.24323637 C10.1368722,0.24323637 12.0749051,1.11501083 13.4801956,2.52419659 L13.4883836,2.52419659 C16.5129953,5.55162134 16.5129953,10.4570636 13.4883836,13.4844883 L13.4458135,13.5137826 C12.0022665,14.9553174 10.0439887,15.7624966 8.00393505,15.7568908 C5.86243217,15.7568908 3.92477691,14.8811932 2.51988394,13.4844883 L2.51129838,13.4844883 C-0.512798307,10.4568505 -0.512798307,5.55183448 2.51129838,2.52419659 L2.55386847,2.48200409 C4.00445921,1.04656292 5.96317459,0.241966178 8.00393505,0.24323637 Z M6.94196792,1.52159309 C6.91229605,1.64423555 6.89510503,1.77117077 6.87010355,1.91489953 C6.73028997,2.67261561 6.56545502,3.56937019 6.13347378,3.99274598 C5.96436592,4.16187372 4.95746964,4.898106 4.95746964,5.08440488 C4.95746964,5.13128764 5.18556353,5.13128764 6.0362303,5.13128764 L6.04052308,5.13128764 C6.48071228,5.13128764 7.03102331,5.28751714 7.5047797,5.55426595 C7.85162073,5.74056481 8.16485483,6.00264323 8.37615517,6.31158455 C8.60504402,6.65451039 8.70658028,7.04781683 8.60504402,7.48371327 C8.53707494,7.75477473 8.39334619,8.03831708 8.13947572,8.32187928 C7.28489377,9.28620545 7.29310173,9.38813919 7.35246538,9.87479381 C7.39120546,10.1538292 7.41103855,10.4351643 7.411829,10.716875 C7.42003697,10.9199873 7.42003697,11.1230797 7.42862253,11.3136713 C7.4368305,11.7663613 7.44970884,12.1557525 7.42003697,12.435022 L7.42003697,12.4604011 C7.19975356,14.1957191 5.69370194,12.9681619 5.16016456,12.3756583 C4.58485205,11.7323767 4.03491862,10.8988811 3.87401872,10.5008844 C3.82284317,10.3782618 3.59474928,10.2681201 3.35767236,10.1501679 C2.79446311,9.86620823 2.15157898,9.55335175 2.12228472,8.55466344 C2.1050937,7.91529702 2.23202894,7.44152077 2.31679155,7.10288769 C2.35936166,6.93807261 2.51129837,6.89120972 2.45193473,6.8743367 C2.33358508,6.82785142 2.11330167,6.8743367 1.89347536,6.92080211 C1.76262495,6.94620108 1.63960489,6.97587295 1.51266967,6.9926665 C1.03567979,10.1301215 2.85934856,13.1628159 5.85422422,14.2125127 C6.41268359,14.102371 6.9884532,13.8356222 7.5219707,13.7383588 C8.72337381,13.5137826 9.89550252,13.2981895 11.1945466,13.734066 C11.7135856,13.4467356 12.1906506,13.0894 12.6123378,12.6720989 L12.6377169,12.6381144 C12.9686343,12.3133456 13.2624818,11.9528501 13.5138621,11.563249 C13.2470934,11.778862 12.9975158,11.9526601 12.7858179,12.0456108 C12.4557903,12.1936522 12.1765209,12.2104458 11.9652205,12.1006817 C11.9129514,12.0698402 11.8644561,12.0330102 11.8207167,11.9909375 L11.800008,11.9694537 C11.2621977,11.3434227 11.5332591,10.505197 11.8125087,9.65920067 C12.1089493,8.75775583 12.417513,7.82663911 11.2793887,7.48371327 C11.0957009,7.42229875 10.9173846,7.34585658 10.7462488,7.25516227 C10.2935787,7.00987737 9.94244489,6.67984975 9.7221615,6.31583759 C9.16370213,5.41439275 9.53586264,4.89804639 10.1369517,4.24226405 C10.2303595,4.14072778 10.3228531,4.03917166 10.3865294,3.95909931 C9.91704594,3.9841008 9.30776875,4.01379256 9.01991375,3.23536777 C8.97303098,3.1166405 8.95194467,2.98970527 8.93515114,2.86706283 L8.92656558,2.84597652 C8.85899398,2.19410936 8.49498181,1.91483992 8.04660453,1.43677015 L8.00401455,1.43677015 C7.64832934,1.43660501 7.29320309,1.46494999 6.94204742,1.52153348 L6.94196792,1.52159309 Z M1.67350995,6.23542739 L1.74108155,6.22292664 C2.05393803,6.15535505 2.36756961,6.08740584 2.67651092,6.19325477 C3.25611622,6.38346881 3.16316553,6.70958125 3.01039409,7.28920644 C2.92602897,7.585647 2.81588727,8.0086452 2.8326808,8.53747242 C2.84947433,9.10068167 3.29004113,9.32050797 3.67084683,9.51507442 C4.04306695,9.68849494 4.37309458,9.85800027 4.52582627,10.2345132 C4.67774311,10.5683964 5.16871038,11.3136713 5.69364231,11.8975893 C5.8287855,12.0542163 6.62046625,13.0314208 6.70920366,12.3674504 C6.74318819,12.0245245 6.72210188,11.6773059 6.71741161,11.3261721 C6.70920364,11.1484588 6.70061808,10.9539519 6.70061808,10.7254805 C6.70061808,10.4040384 6.66703102,10.1540632 6.64554723,9.95915894 C6.55259655,9.21863386 6.53540553,9.05811158 7.6063557,7.8520182 C7.77156825,7.65751138 7.86843413,7.48371325 7.91100423,7.3185007 C7.95748952,7.10288769 7.90279627,6.89120973 7.784069,6.70958125 C7.63994277,6.49790328 7.41184888,6.31158455 7.15368564,6.17216845 C6.79396627,5.96867858 6.37065009,5.85070652 6.04054295,5.85070652 L6.03625017,5.85070652 C4.6352525,5.85070652 4.27201542,5.85070652 4.24623884,5.10119841 C4.22944531,4.43722798 5.19456645,3.91229605 5.63435817,3.48500506 C5.90502216,3.21869348 6.04445814,2.44372677 6.16787567,1.77937873 L6.1846692,1.69501361 C5.12674047,1.99607502 4.16268851,2.56108583 3.38305145,3.33698353 L3.35767236,3.35806984 C2.55916117,4.15715252 1.97925044,5.14791831 1.67350995,6.23542739 Z M10.0900093,14.2250134 C9.27370472,14.1363555 8.46521056,14.2882922 7.65282111,14.4363138 C7.53447145,14.46215 7.42003695,14.4999106 7.29310173,14.5253692 C7.52916595,14.5510993 7.76647325,14.5637452 8.00393505,14.563249 C8.71303051,14.564328 9.41758302,14.450092 10.0900093,14.2250134 L10.0900093,14.2250134 Z M14.33438,9.3881392 C14.3602162,9.34127631 14.3937437,9.31198205 14.4363138,9.27370472 C14.5217562,8.85469432 14.5642875,8.42806914 14.5632676,8.00043723 C14.563669,6.2586173 13.8708433,4.58824709 12.6377169,3.35806984 C11.6667971,2.3876276 10.4164622,1.74544408 9.06208638,1.52159309 C9.35820895,1.88131247 9.58662083,2.27032612 9.63739889,2.77377427 L9.64600433,2.77846453 C9.65164999,2.84895193 9.66594745,2.91847684 9.68857444,2.98547211 L9.68414253,2.98547211 C9.79428423,3.27330723 10.1114335,3.25613609 10.357096,3.24792814 C10.7461097,3.22684183 11.0593438,3.20106525 11.1776934,3.63302661 C11.2878351,4.03923127 10.9956873,4.36067333 10.6617445,4.71649741 C10.2637478,5.16487469 9.98018563,5.37655266 10.3313194,5.93507164 C10.4879464,6.20138322 10.7461097,6.44283244 11.0847427,6.63304648 C11.2069877,6.69664328 11.3471988,6.74748097 11.4909275,6.79825903 C13.3274043,7.35286284 12.9039688,8.63902855 12.4982213,9.88300177 C12.2865235,10.5133851 12.0749051,11.1402707 12.3162152,11.4699008 L12.4892382,11.3980365 C12.667349,11.3136713 12.8958205,11.1570642 13.1411054,10.9367808 C13.5391021,10.577439 13.9667905,10.0568198 14.3343204,9.3881392 L14.33438,9.3881392 Z" id="形状"></path>
                </g>
            </g>
        </g>
    </g>
</svg>