<?xml version="1.0" encoding="UTF-8"?>
<svg width="8px" height="8px" viewBox="0 0 8 8" version="1.1" xmlns="http://www.w3.org/2000/svg" xmlns:xlink="http://www.w3.org/1999/xlink">
    <title>common/icon/mic_off</title>
    <defs>
        <filter id="filter-1">
            <feColorMatrix in="SourceGraphic" type="matrix" values="0 0 0 0 1.000000 0 0 0 0 0.534042 0 0 0 0 0.523149 0 0 0 1.000000 0"></feColorMatrix>
        </filter>
    </defs>
    <g id="HiDPI" stroke="none" stroke-width="1" fill="none" fill-rule="evenodd">
        <g id="F-10-Room-base-座位信息" transform="translate(-131.000000, -274.000000)">
            <g id="common/icon/mic-off" transform="translate(130.000000, 273.000000)" filter="url(#filter-1)">
                <g transform="translate(1.875000, 1.875000)" id="Voice-3" fill="#000000" fill-rule="nonzero">
                    <rect id="矩形" opacity="0" x="0" y="0" width="6.25" height="6.25"></rect>
                    <path d="M4.76196289,3.28369141 C4.76196289,3.65478516 4.61669922,4.0045166 4.35180664,4.26879883 C4.08752441,4.53308105 3.73779297,4.67895508 3.36669922,4.67895508 L3.12072754,4.67895508 C2.74963379,4.67895508 2.39990234,4.53369141 2.13562012,4.26879883 L2.13439941,4.26757812 C2.07946777,4.21264648 1.98974609,4.21264648 1.93481445,4.26757812 L1.89208984,4.31030273 C1.83776855,4.36462402 1.8371582,4.453125 1.89147949,4.50805664 L1.8939209,4.51049805 C2.05383301,4.67041016 2.23937988,4.79553223 2.44567871,4.88342285 C2.64526367,4.96826172 2.85583496,5.01403809 3.07250977,5.0201416 L3.07250977,5.51757812 L2.54577637,5.51757812 C2.45117187,5.51757812 2.37487793,5.59387207 2.37487793,5.68847656 C2.37487793,5.78308105 2.45117187,5.859375 2.54577637,5.859375 L3.94104004,5.859375 C4.03564453,5.859375 4.11193848,5.78308105 4.11193848,5.68847656 C4.11193848,5.59387207 4.03564453,5.51757812 3.94104004,5.51757812 L3.41430664,5.51757812 L3.41430664,5.0201416 C3.63098145,5.01403809 3.84155273,4.96826172 4.0411377,4.88342285 C4.24743652,4.79553223 4.43359375,4.67041016 4.59289551,4.51049805 C4.75280762,4.35058594 4.87792969,4.16503906 4.96582031,3.95874023 C5.0567627,3.74450684 5.10314941,3.51745605 5.10314941,3.28430176 L5.10314941,2.53356934 C5.10314941,2.43896484 5.02685547,2.3626709 4.93225098,2.3626709 C4.83764648,2.3626709 4.76135254,2.43896484 4.76135254,2.53356934 L4.76135254,3.28369141 L4.76196289,3.28369141 Z M1.55578613,2.3626709 C1.46118164,2.3626709 1.3848877,2.43896484 1.3848877,2.53356934 L1.3848877,3.28613281 C1.3848877,3.37402344 1.49169922,3.4173584 1.55334473,3.35510254 L1.6973877,3.21105957 C1.71630859,3.19213867 1.72668457,3.16711426 1.72668457,3.14025879 L1.72668457,2.53356934 C1.72668457,2.4395752 1.64978027,2.3626709 1.55578613,2.3626709 L1.55578613,2.3626709 Z" id="形状"></path>
                    <path d="M4.00146484,2.51525879 L4.00146484,3.12744141 C4.00146484,3.32885742 3.92211914,3.51867676 3.77868652,3.66210938 C3.63525391,3.80554199 3.44543457,3.8848877 3.24401855,3.8848877 C3.04260254,3.8848877 2.8527832,3.80554199 2.70935059,3.66210938 L2.70874023,3.66149902 C2.66296387,3.61572266 2.58789063,3.61572266 2.54211426,3.66149902 L2.46582031,3.73718262 C2.4206543,3.78234863 2.42004395,3.85620117 2.46520996,3.90136719 C2.66235352,4.09912109 2.93334961,4.22302246 3.23364258,4.22607422 C3.84399414,4.23217773 4.34326172,3.72680664 4.34326172,3.11645508 L4.34326172,2.09533691 C4.34326172,2.00805664 4.23828125,1.96472168 4.17663574,2.02636719 L4.03015137,2.17285156 C4.01184082,2.19116211 4.00146484,2.21618652 4.00146484,2.24182129 L4.00146484,2.51525879 L4.00146484,2.51525879 Z M2.48657227,2.17346191 L2.48657227,1.49414063 C2.48657227,1.29272461 2.56591797,1.10290527 2.70935059,0.959472656 C2.8527832,0.816040039 3.04260254,0.736694336 3.24401855,0.736694336 C3.44543457,0.736694336 3.63525391,0.816040039 3.77868652,0.959472656 L3.77929688,0.960083008 C3.82568359,1.00646973 3.90075684,1.00646973 3.94714355,0.960083008 L4.02160645,0.885620117 C4.06799316,0.839233398 4.06799316,0.764770508 4.0222168,0.718383789 C3.82080078,0.516357422 3.54125977,0.391845703 3.23303223,0.394287109 C2.62878418,0.399780273 2.14477539,0.899047852 2.14477539,1.5032959 L2.14477539,2.52624512 C2.14477539,2.61352539 2.24975586,2.65686035 2.31140137,2.59521484 L2.45788574,2.44873047 C2.47619629,2.43041992 2.48657227,2.40539551 2.48657227,2.37976074 L2.48657227,2.17346191 L2.48657227,2.17346191 Z M1.21032715,4.34570312 C1.14379883,4.2791748 1.14379883,4.17053223 1.21032715,4.10400391 L4.63806152,0.676269531 C4.70458984,0.609741211 4.81323242,0.609741211 4.87976074,0.676269531 C4.94628906,0.742797852 4.94628906,0.85144043 4.87976074,0.91796875 L1.45202637,4.34570312 C1.3848877,4.41223145 1.27685547,4.41223145 1.21032715,4.34570312 Z" id="形状"></path>
                </g>
            </g>
        </g>
    </g>
</svg>