<?xml version="1.0" encoding="UTF-8"?>
<svg width="16px" height="16px" viewBox="0 0 16 16" version="1.1" xmlns="http://www.w3.org/2000/svg" xmlns:xlink="http://www.w3.org/1999/xlink">
    <title>loveseat</title>
    <defs>
        <filter id="filter-1">
            <feColorMatrix in="SourceGraphic" type="matrix" values="0 0 0 0 0.825206 0 0 0 0 0.841794 0 0 0 0 0.826700 0 0 0 1.000000 0"></feColorMatrix>
        </filter>
    </defs>
    <g id="HiDPI" stroke="none" stroke-width="1" fill="none" fill-rule="evenodd">
        <g id="F-10-Room-base-座位信息" transform="translate(-42.000000, -179.000000)">
            <g id="hi/message/room/room-base" transform="translate(0.000000, 48.000000)">
                <g id="room-user-list" transform="translate(24.000000, 119.000000)">
                    <g id="common/icon/loveseat" transform="translate(6.000000, 0.000000)" filter="url(#filter-1)">
                        <g transform="translate(12.000000, 12.000000)" id="loveseat" fill="#000000" fill-rule="nonzero">
                            <rect id="矩形" opacity="0" x="0" y="0" width="16" height="16"></rect>
                            <path d="M5,7 L5,9 L11,9 L11,7 C11,5.896875 11.896875,5 13,5 L14,5 C14,3.34375 12.65625,2 11,2 L5,2 C3.34375,2 2,3.34375 2,5 L3,5 C4.103125,5 5,5.896875 5,7 Z M14,6 L13,6 C12.446875,6 12,6.446875 12,7 L12,10 L4,10 L4,7 C4,6.446875 3.553125,6 3,6 L2,6 C0.896875,6 0,6.896875 0,8 C0,8.7375 0.40625,9.375 1,9.721875 L1,13.5 C1,13.775 1.225,14 1.5,14 L3.5,14 C3.775,14 4,13.775 4,13.5 L4,13 L12,13 L12,13.5 C12,13.775 12.225,14 12.5,14 L14.5,14 C14.775,14 15,13.775 15,13.5 L15,9.721875 C15.59375,9.375 16,8.7375 16,8 C16,6.896875 15.103125,6 14,6 Z" id="形状"></path>
                        </g>
                    </g>
                </g>
            </g>
        </g>
    </g>
</svg>