<?xml version="1.0" encoding="UTF-8"?>
<svg width="24px" height="24px" viewBox="0 0 24 24" version="1.1" xmlns="http://www.w3.org/2000/svg" xmlns:xlink="http://www.w3.org/1999/xlink">
    <title>phone</title>
    <defs>
        <filter id="filter-1">
            <feColorMatrix in="SourceGraphic" type="matrix" values="0 0 0 0 1.000000 0 0 0 0 1.000000 0 0 0 0 1.000000 0 0 0 1.000000 0"></feColorMatrix>
        </filter>
    </defs>
    <g id="页面-1" stroke="none" stroke-width="1" fill="none" fill-rule="evenodd">
        <g id="common/icon/手机-phone" transform="translate(-67.000000, -502.000000)" filter="url(#filter-1)">
            <g transform="translate(67.000000, 502.000000)" id="phone" fill-rule="nonzero">
                <rect id="矩形" fill="#000000" opacity="0" x="0" y="0" width="24" height="24"></rect>
                <path d="M18.0738799,0 L7.29866798,0 C5.50926048,0.00523094916 4.05994849,1.45451339 4.05468105,3.24392079 L4.05468105,20.7560131 C4.05991219,22.5454463 5.50923476,23.9947689 7.29866798,24 L18.0738799,24 C19.8633131,23.9947689 21.3126357,22.5454463 21.3178668,20.7560131 L21.3178668,3.24392079 C21.3125994,1.45451338 19.8632874,0.0052309363 18.0738799,0 Z M12.686307,22.7826533 C12.0468931,22.7826533 11.4704252,22.397527 11.2257136,21.8067933 C10.981002,21.2160596 11.1162394,20.5360824 11.5683638,20.0839391 C12.0204882,19.6317958 12.7004597,19.4965299 13.2912036,19.7412168 C13.8819476,19.9859037 14.2671247,20.5623555 14.2671247,21.2017694 C14.2671247,22.0748675 13.5593389,22.7826533 12.6862409,22.7826533 L12.686307,22.7826533 Z M19.2468428,15.4870396 C19.2420479,17.1103268 17.9273048,18.4250699 16.3040175,18.4298648 L9.06846417,18.4298648 C7.44517693,18.4250699 6.13043384,17.1103268 6.12563892,15.4870396 L6.12563892,5.35145728 C6.13039753,3.7281442 7.4451512,2.41336097 9.06846417,2.40856587 L16.3038852,2.40856587 C17.9271983,2.41332449 19.2419815,3.72807816 19.2468428,5.35139112 L19.2468428,15.4870396 Z" id="形状" fill="#231815"></path>
            </g>
        </g>
    </g>
</svg>