<?xml version="1.0" encoding="UTF-8"?>
<svg width="16px" height="16px" viewBox="0 0 16 16" version="1.1" xmlns="http://www.w3.org/2000/svg" xmlns:xlink="http://www.w3.org/1999/xlink">
    <title>common/icon/apple</title>
    <g id="HiDPI" stroke="none" stroke-width="1" fill="none" fill-rule="evenodd">
        <g id="D-01-登录页面-登录方式" transform="translate(-80.000000, -541.000000)" fill="#000000" fill-rule="nonzero">
            <g id="apple" transform="translate(80.000000, 541.000000)">
                <rect id="矩形" opacity="0" x="0" y="0" width="16" height="16"></rect>
                <path d="M12.4733333,13 C11.92,13.8266667 11.3333333,14.6333333 10.44,14.6466667 C9.54666667,14.6666667 9.26,14.12 8.24666667,14.12 C7.22666667,14.12 6.91333333,14.6333333 6.06666667,14.6666667 C5.19333333,14.7 4.53333333,13.7866667 3.97333333,12.98 C2.83333333,11.3333333 1.96,8.3 3.13333333,6.26 C3.71333333,5.24666667 4.75333333,4.60666667 5.88,4.58666667 C6.73333333,4.57333333 7.54666667,5.16666667 8.07333333,5.16666667 C8.59333333,5.16666667 9.58,4.45333333 10.6133333,4.56 C11.0466667,4.58 12.26,4.73333333 13.04,5.88 C12.98,5.92 11.5933333,6.73333333 11.6066667,8.42 C11.6266667,10.4333333 13.3733333,11.1066667 13.3933333,11.1133333 C13.3733333,11.16 13.1133333,12.0733333 12.4733333,13 M8.66666667,2.33333333 C9.15333333,1.78 9.96,1.36 10.6266667,1.33333333 C10.7133333,2.11333333 10.4,2.9 9.93333333,3.46 C9.47333333,4.02666667 8.71333333,4.46666667 7.96666667,4.40666667 C7.86666667,3.64 8.24,2.84 8.66666667,2.33333333 Z" id="形状"></path>
            </g>
        </g>
    </g>
</svg>