<?xml version="1.0" encoding="UTF-8"?>
<svg width="20px" height="20px" viewBox="0 0 20 20" version="1.1" xmlns="http://www.w3.org/2000/svg" xmlns:xlink="http://www.w3.org/1999/xlink">
    <title>形状</title>
    <defs>
        <filter id="filter-1">
            <feColorMatrix in="SourceGraphic" type="matrix" values="0 0 0 0 1.000000 0 0 0 0 1.000000 0 0 0 0 1.000000 0 0 0 1.000000 0"></feColorMatrix>
        </filter>
    </defs>
    <g id="页面-1" stroke="none" stroke-width="1" fill="none" fill-rule="evenodd">
        <g id="F-02-Room-vocie-on" transform="translate(-20.000000, -630.000000)">
            <g id="hi/message/room/room-base-W" transform="translate(0.000000, 20.000000)">
                <g id="common/iconvoice-on备份" transform="translate(15.000000, 605.000000)" filter="url(#filter-1)">
                    <g transform="translate(5.000000, 5.000000)" id="voice-on" fill="#000000" fill-rule="nonzero">
                        <rect id="矩形" opacity="0" x="0" y="0" width="20" height="20"></rect>
                        <path d="M11.0416667,2.70833334 C11.8160425,2.70833334 12.4554366,3.31345689 12.4979167,4.08666666 L12.5,4.16666666 L12.5,16.25 C12.5,16.7874812 12.2042177,17.2813537 11.7304672,17.535217 C11.2567167,17.7890803 10.6817309,17.7617777 10.2341667,17.4641667 L10.1666667,17.4166667 L6.13291666,14.3908333 L3.125,14.3908333 C2.15848281,14.3909193 1.35025985,13.6563023 1.25833334,12.6941667 L1.25208334,12.6041667 L1.24999995,12.5158333 L1.24999995,7.90083334 C1.24977824,6.8994819 2.03642704,6.07467476 3.03666666,6.0275 L3.125,6.02583334 L6.13291666,6.02541666 L10.16625,3.00041666 C10.3674279,2.84934333 10.6042675,2.752885 10.85375,2.72041666 L10.9475,2.71166666 L11.0416667,2.70833334 L11.0416667,2.70833334 Z M10.4464286,5.20833333 C10.4175703,5.20833333 10.3891398,5.21484421 10.3635714,5.22733315 L10.3392857,5.24166633 L6.73928576,7.76197448 C6.6621822,7.81602779 6.57087568,7.84965458 6.47500006,7.85930685 L6.4178572,7.86230682 L3.66071438,7.86230682 C3.3849022,7.86230257 3.15416195,8.05775239 3.1275001,8.31396897 L3.125,8.36230183 L3.125,12.0542649 C3.12482931,12.3119307 3.33448765,12.5275241 3.60928581,12.55226 L3.66071438,12.55426 L6.4178572,12.55426 C6.51428577,12.55426 6.60857148,12.5789264 6.69107148,12.6242593 L6.73892863,12.654259 L10.3392857,15.1749004 C10.3892875,15.2099732 10.4553062,15.2180719 10.5133203,15.1962499 C10.5713344,15.1744278 10.6128864,15.1258663 10.6228571,15.0682348 L10.625,15.0415684 L10.625,5.37499833 C10.625,5.28295179 10.5450508,5.20833333 10.4464286,5.20833333 Z M16.5958333,5.40625 C18.9404167,7.83458334 18.9404167,11.7625 16.5958333,14.1908333 C16.3561648,14.4393615 15.9604031,14.4465436 15.711875,14.206875 C15.4633469,13.9672064 15.4561648,13.5714448 15.6958333,13.3229167 C17.5733333,11.37875 17.5733333,8.21875 15.6958333,6.27416666 C15.4561648,6.02563852 15.4633469,5.62987691 15.711875,5.39020835 C15.9604032,5.15053979 16.3561648,5.15772188 16.5958333,5.40625 Z M14.6166667,7.38541666 C15.9058333,8.72041666 15.9058333,10.8766667 14.6166667,12.2116667 C14.3769981,12.4601948 13.9812365,12.4673769 13.7327083,12.2277083 C13.4841802,11.9880398 13.4769981,11.5922781 13.7166667,11.34375 C14.53875,10.4925 14.53875,9.10458334 13.7166667,8.25333334 C13.4769981,8.0048052 13.4841802,7.60904359 13.7327083,7.36937502 C13.9812365,7.12970646 14.3769981,7.13688854 14.6166667,7.38541666 L14.6166667,7.38541666 Z" id="形状"></path>
                    </g>
                </g>
            </g>
        </g>
    </g>
</svg>