<?xml version="1.0" encoding="UTF-8"?>
<svg width="16px" height="16px" viewBox="0 0 16 16" version="1.1" xmlns="http://www.w3.org/2000/svg" xmlns:xlink="http://www.w3.org/1999/xlink">
    <title>common/icon/user_close</title>
    <defs>
        <filter id="filter-1">
            <feColorMatrix in="SourceGraphic" type="matrix" values="0 0 0 0 1.000000 0 0 0 0 0.534042 0 0 0 0 0.523149 0 0 0 1.000000 0"></feColorMatrix>
        </filter>
    </defs>
    <g id="页面-1" stroke="none" stroke-width="1" fill="none" fill-rule="evenodd">
        <g id="F-23-remove-admin" transform="translate(-206.000000, -367.000000)">
            <g id="编组-2" transform="translate(32.000000, 201.000000)">
                <g id="hi/message/room/user/up-to-admin-2nd" transform="translate(157.000000, 163.000000)">
                    <g transform="translate(7.000000, 3.000000)" id="hi/message/room/user/kick-out" filter="url(#filter-1)">
                        <g id="common/icon/voice-off" transform="translate(10.000000, 0.000000)" fill="#000000" fill-rule="nonzero">
                            <g id="user-times">
                                <rect id="矩形" opacity="0" x="0" y="0" width="16" height="16"></rect>
                                <path d="M10.4054133,5.20721024 C10.4054133,3.0677271 8.67101951,1.33333334 6.53153638,1.33333334 C4.39205324,1.33333334 2.65765947,3.0677271 2.65765947,5.20721024 C2.65764738,6.31354592 3.13829201,7.36530944 3.97477763,8.08937466 C1.75964907,9.09242826 0.335662383,11.2980927 0.333333328,13.7297394 C0.333333328,14.1576361 0.680212084,14.5045148 1.10810871,14.5045148 C1.53600535,14.5045148 1.8828841,14.1576361 1.8828841,13.7297394 C1.88288414,11.1623597 3.96415665,9.08108721 6.53153638,9.08108721 C9.09891612,9.08108721 11.1801886,11.1623597 11.1801887,13.7297394 C11.1802542,14.1575897 11.5271137,14.5045148 11.954964,14.5045148 C12.3828144,14.5045148 12.7297394,14.1575897 12.7297394,13.7297394 C12.7274104,11.2980927 11.3034237,9.09242826 9.08829514,8.08937466 C9.92478075,7.36530944 10.4054254,6.31354592 10.4054133,5.20721024 Z M4.20721024,5.20721024 C4.20721024,3.92352036 5.2478465,2.8828841 6.53153638,2.8828841 C7.81522627,2.8828841 8.85586253,3.92352036 8.85586253,5.20721024 C8.85586253,6.49090012 7.81522627,7.53153638 6.53153638,7.53153638 C5.2478465,7.53153638 4.20721024,6.49090012 4.20721024,5.20721024 Z M14.9843358,7.91892407 L15.6041561,7.30685151 C15.9079627,7.00304491 15.9079627,6.51047709 15.6041561,6.20667049 C15.3003495,5.90286389 14.8077817,5.90286389 14.503975,6.20667048 L13.8919025,6.82649078 L13.2798299,6.20667048 C12.9760233,5.90286389 12.4834555,5.90286389 12.1796489,6.20667049 C11.8758423,6.51047709 11.8758423,7.00304491 12.1796489,7.30685151 L12.7994692,7.91892407 L12.1796489,8.53099662 C12.0329741,8.67647356 11.9504717,8.87450294 11.9504717,9.08108714 C11.9504717,9.28767133 12.0329741,9.48570071 12.1796489,9.63117765 C12.3251258,9.77785243 12.5231552,9.8603549 12.7297394,9.8603549 C12.9363236,9.8603549 13.134353,9.77785243 13.2798299,9.63117765 L13.8919025,9.01135735 L14.503975,9.63117765 C14.649452,9.77785243 14.8474814,9.8603549 15.0540656,9.8603549 C15.2606498,9.8603549 15.4586791,9.77785243 15.6041561,9.63117765 C15.7508309,9.48570071 15.8333333,9.28767133 15.8333333,9.08108714 C15.8333333,8.87450294 15.7508309,8.67647356 15.6041561,8.53099662 L14.9843358,7.91892407 Z" id="形状"></path>
                            </g>
                        </g>
                    </g>
                </g>
            </g>
        </g>
    </g>
</svg>