<?xml version="1.0" encoding="UTF-8"?>
<svg width="16px" height="16px" viewBox="0 0 16 16" version="1.1" xmlns="http://www.w3.org/2000/svg" xmlns:xlink="http://www.w3.org/1999/xlink">
    <title>setting</title>
    <g id="HiDPI" stroke="none" stroke-width="1" fill="none" fill-rule="evenodd">
        <g id="H-01-Profile" transform="translate(-55.000000, -680.000000)" fill="#000000" fill-rule="nonzero">
            <g id="编组-3" transform="translate(25.000000, 593.000000)">
                <g id="setting" transform="translate(30.000000, 87.000000)">
                    <rect id="矩形" opacity="0" x="0" y="0" width="16" height="16"></rect>
                    <path d="M5.89999999,15.2 L5.67499999,15.2 C4.70182312,14.8957097 3.80623219,14.3839435 3.05,13.7 C2.74999999,13.475 2.74999999,13.025 2.97499999,12.65 C3.275,12.275 3.275,11.825 3.05,11.375 L2.67500001,10.775 C2.45000001,10.4 1.99999999,10.175 1.55000001,10.25 C1.17500001,10.325 0.8,10.025 0.724999994,9.65000001 C0.575,9.05000001 0.499999994,8.52500001 0.499999994,8 C0.499999994,7.47499999 0.575,6.95000001 0.650000006,6.50000001 C0.725000012,6.12500001 1.10000001,5.82500001 1.475,5.89999999 C1.925,5.975 2.375,5.75 2.6,5.3 L2.97499999,4.70000001 C3.19999999,4.25000001 3.19999999,3.80000001 2.90000001,3.42499999 C2.67500001,3.12499999 2.67500001,2.67499999 2.97499999,2.375 C3.725,1.7 4.625,1.17499999 5.60000001,0.875000006 C5.975,0.725000012 6.35000001,0.950000012 6.49999999,1.32500001 C6.72500001,1.7 7.17500001,2.00000001 7.62500001,2.00000001 L8.37499999,2.00000001 C8.82499999,2.00000001 9.27499999,1.7 9.42500001,1.32500001 C9.575,0.950000012 9.95000001,0.8 10.325,0.875000006 C11.3,1.17500001 12.2,1.7 12.95,2.375 C13.25,2.6 13.25,3.05 13.025,3.42499999 C12.725,3.79999999 12.725,4.24999999 12.95,4.70000001 L13.325,5.3 C13.55,5.67499999 14,5.89999999 14.45,5.82500001 C14.825,5.75 15.2,6.05000001 15.275,6.425 C15.425,6.95000001 15.5,7.47499999 15.5,8 C15.5,8.52500001 15.425,9.04999999 15.35,9.49999999 C15.275,9.87499999 14.9,10.175 14.525,10.1 C14.075,10.025 13.625,10.25 13.4,10.625 L13.025,11.225 C12.8,11.6 12.8,12.125 13.1,12.5 C13.325,12.8 13.325,13.25 13.025,13.55 C12.275,14.225 11.375,14.75 10.4,15.05 C10.025,15.2 9.64999999,14.975 9.49999999,14.6 C9.35,14.15 8.9,13.925 8.45,13.925 L7.69999999,13.925 C7.24999999,13.925 6.79999999,14.225 6.65,14.6 C6.49999999,14.975 6.2,15.2 5.89999999,15.2 L5.89999999,15.2 Z M4.47500001,12.875 L5.60000001,13.55 C6.05000001,12.875 6.80000001,12.5 7.62500001,12.5 L8.37499999,12.5 C9.19999999,12.5 9.94999999,12.875 10.4,13.475 C10.775,13.325 11.15,13.1 11.525,12.8 C11.225,12.05 11.3,11.225 11.675,10.55 L12.05,9.94999999 C12.5,9.19999999 13.175,8.74999999 14,8.675 L14,8 L14,7.325 C13.25,7.17500001 12.5,6.72500001 12.125,6.05000001 L11.75,5.44999999 C11.375,4.77499999 11.3,3.87499999 11.6,3.19999999 L10.475,2.52499999 C9.94999999,3.12499999 9.20000001,3.5 8.37499999,3.5 L7.62500001,3.5 C6.80000001,3.5 6.05000001,3.12500001 5.60000001,2.52499999 C5.22500001,2.67499999 4.85,2.89999999 4.47500001,3.19999999 C4.77500001,3.95 4.70000001,4.77499999 4.32499999,5.44999999 L3.95,6.05000001 C3.50000001,6.79999999 2.825,7.24999999 2.00000001,7.325 L2.00000001,8.675 C2.75000001,8.82499999 3.50000001,9.27499999 3.87499999,9.94999999 L4.25000001,10.55 C4.70000001,11.3 4.77500001,12.125 4.47500001,12.875 Z M5.75,8 C5.75,9.24264069 6.75735931,10.25 8,10.25 C9.24264069,10.25 10.25,9.24264069 10.25,8 C10.25,6.75735931 9.24264069,5.75 8,5.75 C6.75735931,5.75 5.75,6.75735931 5.75,8 Z" id="形状"></path>
                </g>
            </g>
        </g>
    </g>
</svg>