<?xml version="1.0" encoding="UTF-8"?>
<svg width="17px" height="16px" viewBox="0 0 17 16" version="1.1" xmlns="http://www.w3.org/2000/svg" xmlns:xlink="http://www.w3.org/1999/xlink">
    <title>follow</title>
    <g id="HiDPI" stroke="none" stroke-width="1" fill="none" fill-rule="evenodd">
        <g id="Room-black-用户操作" transform="translate(-239.000000, -427.000000)" fill="#000000" fill-rule="nonzero">
            <g id="编组" transform="translate(46.000000, 361.000000)">
                <g id="hi/message/room/user/follow" transform="translate(186.000000, 66.000000)">
                    <g id="follow" transform="translate(7.340000, 0.000000)">
                        <rect id="矩形" opacity="0" x="0" y="0.0156097561" width="16.304078" height="15.9843902"></rect>
                        <path d="M15.1855197,13.8838467 L13.7823515,13.8817744 L13.7876359,15.3092367 C13.7876359,15.6907347 13.4721853,16 13.0830573,16 C12.6939293,16 12.3784788,15.6907347 12.3784788,15.3092367 L12.3820017,13.8793567 L10.958753,13.876939 C10.569625,13.876939 10.2541744,13.5676738 10.2541744,13.1861758 C10.255054,13.0052113 10.3302929,12.8322323 10.4628864,12.7063334 C10.59548,12.5804345 10.7742356,12.5122433 10.958753,12.5171715 L12.3841154,12.5119908 L12.3862291,11.1000706 C12.3862291,10.7185726 12.7016797,10.4093073 13.0908077,10.4093073 C13.2753914,10.4101697 13.45183,10.4839333 13.5802469,10.613927 C13.7086637,10.7439206 13.7782188,10.9191712 13.773192,11.1000706 L13.7784763,12.5068101 L15.1855197,12.5019747 C15.574745,12.5019747 15.8902744,12.8113173 15.8902744,13.1929107 C15.8902744,13.5745041 15.574745,13.8838467 15.1855197,13.8838467 L15.1855197,13.8838467 Z M10.2210592,8.86096144 C10.5382575,8.9977777 10.8444479,9.15791576 11.1370114,9.34000578 C11.2697557,9.37961075 11.3874815,9.45703661 11.4752091,9.56243155 C11.5477806,9.61251189 11.6259889,9.65533921 11.6964467,9.70783722 L11.6259889,9.70783722 L11.670025,10.3986005 L11.550599,10.3986005 C11.4271015,10.6163625 11.1931651,10.751647 10.9390248,10.7522713 L10.9390248,10.8928416 C10.8523616,10.8237653 10.7628801,10.7626328 10.6705804,10.6997733 C10.5860506,10.6656034 10.5091128,10.61563 10.4440583,10.5526407 C9.59694867,10.0238406 8.62032417,9.72822347 7.61658462,9.69678501 C7.55634315,9.6988573 7.49680626,9.70576493 7.43586022,9.70576493 C7.37491417,9.70576493 7.31608186,9.6988573 7.25584039,9.69678501 C4.47890694,9.78284053 2.18009155,11.8398516 1.83974507,14.5431802 L1.82248288,14.5431802 L1.82248288,14.5514694 C1.82248288,14.9329674 1.50703232,15.2422327 1.11790433,15.2422327 C0.728776344,15.2422327 0.413325781,14.9329674 0.413325781,14.5514694 L0.406984578,14.4875738 C0.407147116,14.4000693 0.424489983,14.3134136 0.458066528,14.2323367 C0.80758374,11.8491956 2.39524316,9.81537481 4.65030891,8.86199758 C2.85953634,7.66442967 2.07393242,5.46246609 2.71291367,3.43168633 C3.35189492,1.40090658 5.26626014,0.0154948021 7.43397219,0.0150915255 C9.60168425,0.014688425 11.5165855,1.39938797 12.1563527,3.42992988 C12.7961198,5.46047179 12.0113682,7.66272746 10.2210592,8.86096144 L10.2210592,8.86096144 Z M7.4330419,1.40071794 C5.48407234,1.40148094 3.9046057,2.95080233 3.90486512,4.86155694 C3.90512454,6.77231155 5.48501182,8.32122065 7.43398153,8.32147499 C9.38295124,8.32172932 10.963259,6.77323262 10.9640373,4.86247814 C10.9640373,3.94448924 10.5919779,3.06411895 9.92974727,2.41513234 C9.26751664,1.76614573 8.36939051,1.40173297 7.4330419,1.40209947 L7.4330419,1.40071794 Z" id="形状"></path>
                    </g>
                </g>
            </g>
        </g>
    </g>
</svg>