<?xml version="1.0" encoding="UTF-8"?>
<svg width="12px" height="12px" viewBox="0 0 12 12" version="1.1" xmlns="http://www.w3.org/2000/svg" xmlns:xlink="http://www.w3.org/1999/xlink">
    <title>common/icon/check</title>
    <g id="HiDPI" stroke="none" stroke-width="1" fill="none" fill-rule="evenodd">
        <g id="F-11-Room-black-send-gift" transform="translate(-148.000000, -450.000000)" fill-rule="nonzero">
            <g id="common/icon/user-icon备份-2" transform="translate(133.000000, 435.000000)">
                <g id="check" transform="translate(15.625000, 15.000000)">
                    <rect id="矩形" fill="#000000" opacity="0" x="0" y="0" width="11.25" height="11.25"></rect>
                    <path d="M10.490625,3.55339285 C10.490625,3.72053571 10.4319643,3.86276785 10.3146429,3.98008928 L4.91544643,9.37928571 C4.798125,9.49660714 4.65589285,9.55526785 4.48875,9.55526785 C4.32160715,9.55526785 4.179375,9.49660714 4.06205357,9.37928571 L0.935357146,6.25258928 C0.818035715,6.13526785 0.759375,5.99303571 0.759375,5.82589285 C0.759375,5.65875 0.818035715,5.51651786 0.935357146,5.39919643 L1.78875,4.54580357 C1.90607143,4.42848214 2.04830357,4.36982143 2.21544643,4.36982143 C2.38258928,4.36982143 2.52482142,4.42848214 2.64214285,4.54580357 L4.48794643,6.39803572 L8.60625,2.27330357 C8.72357143,2.15598214 8.86580357,2.09732143 9.03294643,2.09732143 C9.20008928,2.09732143 9.34232142,2.15598214 9.45964285,2.27330357 L10.3130357,3.12669643 C10.4303571,3.24401786 10.4890179,3.38625 10.4890179,3.55339285 L10.490625,3.55339285 Z" id="路径" stroke="#FFFFFF" stroke-width="0.5" fill="#1B401E"></path>
                </g>
            </g>
        </g>
    </g>
</svg>