<?xml version="1.0" encoding="UTF-8"?>
<svg width="44px" height="44px" viewBox="0 0 44 44" version="1.1" xmlns="http://www.w3.org/2000/svg" xmlns:xlink="http://www.w3.org/1999/xlink">
    <title>common/icon/tab_mine</title>
    <g id="HiDPI" stroke="none" stroke-width="1" fill="none" fill-rule="evenodd">
        <g id="F-16-Room-麦上用户点击自己" transform="translate(-170.000000, -307.000000)" fill="#000000" fill-rule="nonzero">
            <g id="hi/message/room/seat/tack-mic-self-profile" transform="translate(165.000000, 307.000000)">
                <g id="user-5-line" transform="translate(5.000000, 0.000000)">
                    <rect id="矩形" opacity="0" x="0" y="0" width="44" height="44"></rect>
                    <path d="M13.5483333,30.3215 C8.32449063,26.6376313 6.08811858,19.9948027 8.02046182,13.9017352 C9.95280505,7.80866775 15.6087792,3.66880207 22.0009167,3.66880207 C28.3930542,3.66880207 34.0490283,7.80866775 35.9813715,13.9017352 C37.9137148,19.9948027 35.6773427,26.6376313 30.4535,30.3215 L34.2723333,39.0481667 C34.396933,39.3319663 34.3696803,39.6595099 34.1998925,39.9188155 C34.0301047,40.1781211 33.7407797,40.3340653 33.4308333,40.3333359 L10.5691667,40.3333359 C10.2597175,40.333793 9.97092406,40.1780939 9.8012395,39.9193157 C9.63155494,39.6605375 9.60388649,39.333615 9.72766665,39.05 L13.5465,30.3215 L13.5483333,30.3215 Z M25.8958333,29.051 L28.3378333,27.3258333 C32.256955,24.5637027 33.9355126,19.5812487 32.4867239,15.0107026 C31.0379352,10.4401565 26.7955888,7.33453271 22.0009167,7.33453271 C17.2062446,7.33453271 12.9638981,10.4401565 11.5151094,15.0107026 C10.0663208,19.5812487 11.7448783,24.5637027 15.664,27.3258333 L18.1041667,29.051 L14.773,36.6666667 L29.227,36.6666667 L25.8958333,29.051 Z M14.8848333,20.1116667 L18.4415,19.2225 C18.8476435,20.8573421 20.3154641,22.0051293 22,22.0051293 C23.6845359,22.0051293 25.1523565,20.8573421 25.5585,19.2225 L29.1151667,20.1116667 C28.2945889,23.3724722 25.3624695,25.6581437 22,25.6581437 C18.6375305,25.6581437 15.7054111,23.3724722 14.8848333,20.1116667 L14.8848333,20.1116667 Z" id="形状"></path>
                </g>
            </g>
        </g>
    </g>
</svg>