<?xml version="1.0" encoding="UTF-8"?>
<svg width="16px" height="16px" viewBox="0 0 16 16" version="1.1" xmlns="http://www.w3.org/2000/svg" xmlns:xlink="http://www.w3.org/1999/xlink">
    <title>common/icon/garbage</title>
    <defs>
        <filter id="filter-1">
            <feColorMatrix in="SourceGraphic" type="matrix" values="0 0 0 0 1.000000 0 0 0 0 1.000000 0 0 0 0 1.000000 0 0 0 1.000000 0"></feColorMatrix>
        </filter>
    </defs>
    <g id="HiDPI" stroke="none" stroke-width="1" fill="none" fill-rule="evenodd">
        <g id="A-12-首页-我的-最近浏览-删除" transform="translate(-319.000000, -259.000000)">
            <g id="hi/message/info/room/delete-history" transform="translate(16.000000, 235.000000)">
                <g id="垃圾" transform="translate(303.000000, 24.000000)" filter="url(#filter-1)">
                    <g>
                        <rect id="矩形" fill="#000000" fill-rule="nonzero" opacity="0" x="0" y="0" width="16" height="16"></rect>
                        <path d="M9.37083333,2 C9.90221696,2.00045947 10.3328739,2.43111636 10.3333333,2.9625 L10.3333333,3 L5.66666667,3 L5.66666667,2.9625 C5.66712614,2.43111636 6.09778304,2.00045947 6.62916667,2 L9.37083333,2 M9.37083333,1 L6.62916667,1 C5.54549839,1.00045986 4.66712653,1.87883172 4.66666667,2.9625 L4.66666667,4 L11.3333333,4 L11.3333333,2.9625 C11.3328735,1.87883172 10.4545016,1.00045986 9.37083333,1 Z" id="形状" fill="#333333" fill-rule="nonzero"></path>
                        <path d="M14.5,3 L1.5,3 C1.22385763,3 1,3.22385763 1,3.5 C1,3.77614237 1.22385763,4 1.5,4 L14.5,4 C14.7761424,4 15,3.77614237 15,3.5 C15,3.22385763 14.7761424,3 14.5,3 Z M6.16666667,6.16666667 C5.8905243,6.16666667 5.66666667,6.3905243 5.66666667,6.66666667 L5.66666667,11.6666667 C5.66666667,11.942809 5.8905243,12.1666667 6.16666667,12.1666667 C6.44280905,12.1666667 6.66666667,11.942809 6.66666667,11.6666667 L6.66666667,6.66666667 C6.66666667,6.3905243 6.44280905,6.16666667 6.16666667,6.16666667 Z M9.83333333,6.16666667 C9.55719095,6.16666667 9.33333333,6.3905243 9.33333333,6.66666667 L9.33333333,11.6666667 C9.33333333,11.942809 9.55719095,12.1666667 9.83333333,12.1666667 C10.1094757,12.1666667 10.3333333,11.942809 10.3333333,11.6666667 L10.3333333,6.66666667 C10.3333333,6.3905243 10.1094757,6.16666667 9.83333333,6.16666667 Z" id="形状" fill="#333333" fill-rule="nonzero"></path>
                        <path d="M12.8333333,5.33333333 C12.557191,5.33333333 12.3333333,5.55719095 12.3333333,5.83333333 L12.3333333,12.3333333 C12.3333333,13.2538079 11.5871413,14 10.6666667,14 L5.33333333,14 C4.41285875,14 3.66666667,13.2538079 3.66666667,12.3333333 L3.66666667,5.83333333 C3.66666667,5.55719095 3.44280905,5.33333333 3.16666667,5.33333333 C2.8905243,5.33333333 2.66666667,5.55719095 2.66666667,5.83333333 L2.66666667,12.3333333 C2.66666667,13.8060927 3.860574,15 5.33333333,15 L10.6666667,15 C12.139426,15 13.3333333,13.8060927 13.3333333,12.3333333 L13.3333333,5.83333333 C13.3333333,5.55719095 13.1094757,5.33333333 12.8333333,5.33333333 L12.8333333,5.33333333 Z" id="路径" fill="#333333" fill-rule="nonzero"></path>
                    </g>
                </g>
            </g>
        </g>
    </g>
</svg>