<?xml version="1.0" encoding="UTF-8"?>
<svg width="32px" height="32px" viewBox="0 0 32 32" version="1.1" xmlns="http://www.w3.org/2000/svg" xmlns:xlink="http://www.w3.org/1999/xlink">
    <title>gift礼物</title>
    <g id="页面-1" stroke="none" stroke-width="1" fill="none" fill-rule="evenodd">
        <g id="I-04-首页每日签到入口" transform="translate(-319.000000, -559.000000)" fill="#000000" fill-rule="nonzero">
            <g id="编组" transform="translate(315.000000, 555.000000)">
                <g id="gift礼物" transform="translate(4.000000, 4.000000)">
                    <rect id="矩形" opacity="0" x="0" y="0" width="32" height="32"></rect>
                    <path d="M20.6666667,3.16666668 C22.1102174,3.16629978 23.4726778,3.83401161 24.3568136,4.97512639 C25.2409493,6.11624117 25.5472211,7.60228795 25.1863333,9 L27.6666667,9 C28.3109989,9.00000002 28.8333333,9.52233447 28.8333333,10.1666667 L28.8333333,16 C28.8333333,16.6443322 28.3109989,17.1666667 27.6666667,17.1666667 L26.5,17.1666667 L26.5,27.6666667 C26.5,28.3109989 25.9776655,28.8333333 25.3333333,28.8333333 L6.66666668,28.8333333 C6.02233447,28.8333333 5.50000002,28.3109989 5.5,27.6666667 L5.5,17.1666667 L4.33333332,17.1666667 C3.68900112,17.1666667 3.16666668,16.6443322 3.16666668,16 L3.16666668,10.1666667 C3.16666668,9.52233447 3.68900112,9.00000002 4.33333332,9 L6.81366668,9 C6.2257523,6.73874354 7.40070855,4.39120494 9.56317858,3.50653132 C11.7256486,2.6218577 14.2090873,3.47273487 15.3746667,5.49766668 L15.3746667,5.5 L16,6.5815 L16.6253333,5.5 L16.6253333,5.49766668 L16.6451667,5.465 C17.4836882,4.04039647 19.0136049,3.16603152 20.6666667,3.16666668 Z M14.8333333,17.1666667 L7.83333332,17.1666667 L7.83333332,26.5 L14.8333333,26.5 L14.8333333,17.1666667 L14.8333333,17.1666667 Z M24.1666667,17.1666667 L17.1666667,17.1666667 L17.1666667,26.5 L24.1666667,26.5 L24.1666667,17.1666667 Z M14.8333333,11.3333333 L5.5,11.3333333 L5.5,14.8333333 L14.8333333,14.8333333 L14.8333333,11.3333333 L14.8333333,11.3333333 Z M26.5,11.3333333 L17.1666667,11.3333333 L17.1666667,14.8333333 L26.5,14.8333333 L26.5,11.3333333 L26.5,11.3333333 Z M11.3333333,5.49999992 C10.4997242,5.49999992 9.72944723,5.94476037 9.31265184,6.66669234 C8.89585646,7.38862431 8.89586211,8.27807333 9.31266668,8.99999992 L14.6035,8.99999992 L14.6525,8.91483332 L13.354,6.66666668 L13.354,6.6655 C12.9369044,5.94403152 12.1666913,5.49978045 11.3333333,5.49999992 L11.3333333,5.49999992 Z M20.6666667,5.49999992 C19.8333087,5.49978045 19.0630956,5.94403152 18.646,6.6655 L17.3463333,8.91483332 L17.3953333,8.99999992 L22.6873333,8.99999992 C23.1041379,8.27807333 23.1041435,7.38862431 22.6873482,6.66669234 C22.2705528,5.94476037 21.5002758,5.49999992 20.6666667,5.49999992 Z" id="形状"></path>
                </g>
            </g>
        </g>
    </g>
</svg>