<?xml version="1.0" encoding="UTF-8"?>
<svg width="8px" height="8px" viewBox="0 0 8 8" version="1.1" xmlns="http://www.w3.org/2000/svg" xmlns:xlink="http://www.w3.org/1999/xlink">
    <title>common/icon/more</title>
    <defs>
        <filter id="filter-1">
            <feColorMatrix in="SourceGraphic" type="matrix" values="0 0 0 0 0.000000 0 0 0 0 0.000000 0 0 0 0 0.000000 0 0 0 0.500000 0"></feColorMatrix>
        </filter>
    </defs>
    <g id="HiDPI" stroke="none" stroke-width="1" fill="none" fill-rule="evenodd">
        <g id="Room-black-send-gift" transform="translate(-325.000000, -646.000000)">
            <g id="common/icon/more" transform="translate(281.000000, 572.000000)" filter="url(#filter-1)">
                <g transform="translate(44.000000, 74.000000)" id="more" fill="#000000" fill-rule="nonzero">
                    <rect id="矩形" opacity="0" x="0" y="0" width="8" height="8"></rect>
                    <path d="M7.28383755,2.77975533 L6.63698013,2.16353312 C6.54301983,2.07372202 6.39488827,2.0734422 6.3058926,2.1626777 L3.6190263,4.66758738 C3.53009459,4.7564871 3.53442766,4.90145281 3.62845191,4.99092815 L4.27510947,5.60735021 C4.36914172,5.69716132 4.5174012,5.69736918 4.60619699,5.60846945 L7.29312725,3.10329596 C7.38198702,3.01426833 7.37786181,2.86943052 7.28383755,2.77975533 Z M1.36009386,2.11322323 L0.714771391,2.74413148 C0.621010961,2.83579733 0.618588602,2.98216209 0.709383047,3.070798 L3.85112495,6.03027947 C3.9420553,6.11925115 4.09178577,6.11662892 4.18553821,6.02516294 L4.83086068,5.3943906 C4.92462111,5.3026528 4.92704347,5.15635998 4.83611312,5.06751622 L1.69444316,2.10817066 C1.60351282,2.01919898 1.45378234,2.02154939 1.36009386,2.11322323 Z" id="形状"></path>
                </g>
            </g>
        </g>
    </g>
</svg>