<?xml version="1.0" encoding="UTF-8"?>
<svg width="18px" height="18px" viewBox="0 0 18 18" version="1.1" xmlns="http://www.w3.org/2000/svg" xmlns:xlink="http://www.w3.org/1999/xlink">
    <title>crayon</title>
    <g id="页面-1" stroke="none" stroke-width="1" fill="none" fill-rule="evenodd">
        <g id="A-14-T-01创建房间-未填写完成备份" transform="translate(-239.000000, -200.000000)" fill-rule="nonzero">
            <g id="编组-2" transform="translate(128.000000, 96.000000)">
                <g id="hi/common/room/create-edit" transform="translate(105.000000, 98.000000)">
                    <g id="crayon" transform="translate(6.000000, 6.000000)">
                        <rect id="矩形" fill="#000000" opacity="0" x="0" y="0" width="18" height="18"></rect>
                        <path d="M16.4661926,3.57652175 C17.3112691,4.42173914 17.3112691,5.76000001 16.4661926,6.60521739 L8.05063851,15.0221739 L8.01542699,15.0573913 L7.98021546,15.0926087 C7.94500394,15.1278261 7.9097924,15.1278261 7.87458089,15.1630435 L7.83936937,15.1630435 L3.9661018,16.8886957 C3.68440961,17.0295652 3.3675059,17.1 3.08581372,17.1 C2.52242936,17.1 1.95904497,16.8886957 1.53650669,16.466087 C0.902699273,15.8321739 0.726641668,14.8460869 1.0787569,14.036087 L2.80412153,10.1621739 L2.80412153,10.1269565 C2.80412153,10.0917391 2.83933305,10.0565217 2.87454458,10.0213044 L2.9097561,9.98608695 L2.94496764,9.95086956 L11.3957332,1.53391304 C11.8182715,1.11130435 12.3464444,0.9 12.9098287,0.9 C13.4732131,0.9 14.0013859,1.11130435 14.4239242,1.53391304 L16.4661926,3.57652175 Z M15.4802699,5.61913044 C15.7619621,5.3373913 15.7619621,4.87956522 15.4802699,4.59782608 L13.4380016,2.5552174 C13.1563094,2.27347826 12.6633481,2.27347826 12.4168674,2.5552174 L11.2900987,3.68217392 L14.3887127,6.78130435 L15.4802699,5.61913044 L15.4802699,5.61913044 Z M7.55767718,13.5430435 L13.3675785,7.73217391 L10.2689645,4.63304349 L4.45906313,10.443913 L6.00837016,11.9934783 L7.55767718,13.5430435 Z M3.40271743,15.6208696 L6.32527387,14.3178261 L3.68440962,11.6765217 L2.38158325,14.5995652 C2.24073716,14.8813043 2.3111602,15.2334783 2.52242936,15.4447826 C2.76891001,15.6913043 3.08581372,15.7617391 3.40271743,15.6208696 Z" id="形状" fill="#2C362D"></path>
                    </g>
                </g>
            </g>
        </g>
    </g>
</svg>