<?xml version="1.0" encoding="UTF-8"?>
<svg width="16px" height="16px" viewBox="0 0 16 16" version="1.1" xmlns="http://www.w3.org/2000/svg" xmlns:xlink="http://www.w3.org/1999/xlink">
    <title>衣服</title>
    <g id="HiDPI" stroke="none" stroke-width="1" fill="none" fill-rule="evenodd">
        <g id="H-14-car-ef-shop" transform="translate(-343.000000, -58.000000)" fill-rule="nonzero">
            <g id="衣服" transform="translate(343.000000, 58.000000)">
                <rect id="矩形" fill="#000000" opacity="0" x="0.0149253731" y="0" width="15.2835821" height="16"></rect>
                <path d="M15.680597,5.30909091 L14.6385346,3.27272727 C13.8396201,1.70909091 12.2765265,0.727272734 10.6092266,0.727272734 C10.2618725,0.727272734 9.98398915,0.981818187 9.91451831,1.34545455 C9.77557666,2.32727273 8.97666213,3.09090909 8.03880597,3.09090909 C7.10094981,3.09090909 6.26729987,2.36363636 6.16309363,1.34545455 C6.12835821,0.981818187 5.81573949,0.727272734 5.46838534,0.727272734 C3.73161466,0.727272734 2.16852103,1.70909092 1.36960651,3.27272727 L0.327544104,5.30909091 C-0.0198100299,6 -0.0892808657,6.8 0.119131612,7.56363636 C0.362279507,8.32727272 0.848575299,8.90909091 1.54328358,9.27272727 L2.02957937,9.52727273 L2.02957937,12.3636364 C2.02957937,13.9636364 3.28005427,15.2727273 4.80841248,15.2727273 L11.1649932,15.2727273 C12.6933514,15.2727273 13.9438263,13.9636364 13.9438263,12.3636364 L13.9438263,9.52727273 L14.4301221,9.27272727 C15.090095,8.90909091 15.6111262,8.32727272 15.8542741,7.56363636 C16.097422,6.8 16.0279512,6 15.680597,5.30909091 Z M14.5343284,7.12727273 C14.4301221,7.49090909 14.1522388,7.81818183 13.8396201,8 L12.9712347,8.47272727 C12.7280868,8.58181817 12.5891452,8.83636363 12.5891452,9.12727273 L12.5891452,12.4 C12.5891452,13.2 11.9639077,13.8545455 11.1997286,13.8545455 L4.8431479,13.8545455 C4.07896879,13.8545455 3.45373134,13.2 3.45373134,12.4 L3.45373134,9.12727273 C3.45373134,8.83636364 3.31478969,8.58181819 3.07164179,8.47272727 L2.20325645,8 C1.85590231,7.81818181 1.61275442,7.52727273 1.50854816,7.16363636 C1.40434193,6.8 1.43907734,6.4 1.6127544,6.03636364 L2.65481682,4 C3.14111261,3.09090909 3.97476255,2.43636364 4.94735413,2.29090909 C5.39891451,3.63636364 6.64938942,4.61818183 8.07354139,4.61818181 C9.49769336,4.6181818 10.7481683,3.67272727 11.1997286,2.29090909 C12.1723202,2.47272728 13.0059701,3.09090909 13.4922659,4 L14.5343284,6.03636364 C14.6037992,6.36363637 14.6385346,6.76363637 14.5343284,7.12727273 Z" id="形状" fill="#2D3548"></path>
                <path d="M9.3934871,6.54545455 L6.614654,6.54545455 C6.23256445,6.54545455 5.91994573,6.87272728 5.91994573,7.27272727 C5.91994573,7.67272725 6.23256446,8 6.614654,8 L7.30936228,8 L7.30936228,10.1818182 C7.30936228,10.5818182 7.62198101,10.9090909 8.00407055,10.9090909 C8.38616009,10.9090909 8.69877884,10.5818182 8.69877884,10.1818182 L8.69877884,8 L9.3934871,8 C9.77557666,8 10.0881954,7.67272727 10.0881954,7.27272727 C10.0881954,6.87272727 9.77557666,6.54545455 9.3934871,6.54545455 L9.3934871,6.54545455 Z" id="路径" fill="#2D3548"></path>
            </g>
        </g>
    </g>
</svg>