<?xml version="1.0" encoding="UTF-8"?>
<svg width="15px" height="16px" viewBox="0 0 15 16" version="1.1" xmlns="http://www.w3.org/2000/svg" xmlns:xlink="http://www.w3.org/1999/xlink">
    <title>bulletin_board</title>
    <defs>
        <filter id="filter-1">
            <feColorMatrix in="SourceGraphic" type="matrix" values="0 0 0 0 1.000000 0 0 0 0 1.000000 0 0 0 0 1.000000 0 0 0 1.000000 0"></feColorMatrix>
        </filter>
    </defs>
    <g id="HiDPI" stroke="none" stroke-width="1" fill="none" fill-rule="evenodd">
        <g id="Room-black-base" transform="translate(-247.000000, -71.000000)">
            <g id="hi/message/room/room-base-W" transform="translate(0.000000, 48.000000)">
                <g id="common/icon/bulletin-board" transform="translate(239.000000, 21.000000)" filter="url(#filter-1)">
                    <g transform="translate(8.000000, 2.000000)" id="bulletin-board" fill="#000000" fill-rule="nonzero">
                        <rect id="矩形" opacity="0" x="0" y="0" width="15" height="16"></rect>
                        <path d="M7.52600001,1.70454546 L5.8945,3.4090909 L9.1445,3.4090909 L7.52600001,1.70454546 M2.30000001,4.77272728 L2.30000001,13.6363636 L12.7,13.6363636 L12.7,4.77272728 L2.30000001,4.77272728 M7.5,0 L10.75,3.4090909 L10.75,3.4090909 L12.7,3.4090909 C13.415,3.4090909 14,4.02272727 14,4.77272728 L14,13.6363636 C14,14.3863636 13.415,15 12.7,15 L2.30000001,15 C1.585,15 1,14.3863636 1,13.6363636 L1,4.77272728 C1,4.02272727 1.585,3.4090909 2.30000001,3.4090909 L4.25000001,3.4090909 L4.25000001,3.4090909 L7.5,0 M4.25000001,12.2727273 L4.25000001,9.54545454 L7.5,9.54545454 L7.5,12.2727273 L4.25000001,12.2727273 M8.79999999,11.5909091 L8.79999999,6.81818182 L11.4,6.81818182 L11.4,11.5909091 L8.79999999,11.5909091 M3.6,8.18181818 L3.6,6.13636363 L6.85,6.13636363 L6.85,8.18181818 L3.6,8.18181818 Z" id="形状"></path>
                    </g>
                </g>
            </g>
        </g>
    </g>
</svg>