<?xml version="1.0" encoding="UTF-8"?>
<svg width="26px" height="26px" viewBox="0 0 26 26" version="1.1" xmlns="http://www.w3.org/2000/svg" xmlns:xlink="http://www.w3.org/1999/xlink">
    <title>common/icon/plus_crude</title>
    <defs>
        <filter id="filter-1">
            <feColorMatrix in="SourceGraphic" type="matrix" values="0 0 0 0 0.949020 0 0 0 0 0.952941 0 0 0 0 0.956863 0 0 0 1.000000 0"></feColorMatrix>
        </filter>
    </defs>
    <g id="页面-1" stroke="none" stroke-width="1" fill="none" fill-rule="evenodd">
        <g id="A-14-T-01创建房间-未填写完成备份" transform="translate(-175.000000, -143.000000)">
            <g id="common/icon/plus-crude" transform="translate(128.000000, 96.000000)" filter="url(#filter-1)">
                <g transform="translate(47.500000, 47.500000)" id="cc-plus-crude" fill="#000000" fill-rule="nonzero">
                    <rect id="矩形" opacity="0" x="0" y="0" width="25" height="25"></rect>
                    <path d="M21.9589243,13.9208616 L13.8889458,13.9208616 L13.8889458,21.9899158 C13.8889458,22.7764575 13.2516529,23.4156242 12.4645865,23.4156242 C11.6780448,23.4156242 11.0416513,22.7764575 11.0416513,21.9899158 L11.0416513,13.9208616 L2.97164773,13.9208616 C2.18508103,13.9208616 1.54686375,13.283119 1.54686375,12.4965273 C1.54686375,11.7099356 2.18508103,11.0735671 2.97164773,11.0735671 L11.0416513,11.0735671 L11.0416513,3.00218953 C11.0416513,2.21654719 11.6780448,1.57785522 12.4645865,1.57785522 C13.2516529,1.57785522 13.8889458,2.21654719 13.8889458,3.00218953 L13.8889458,11.0735671 L21.9589493,11.0735671 C22.745541,11.0735671 23.3837333,11.7099356 23.3837333,12.4965273 C23.3837333,13.283119 22.745516,13.9208616 21.9589243,13.9208616" id="路径"></path>
                </g>
            </g>
        </g>
    </g>
</svg>