<?xml version="1.0" encoding="UTF-8"?>
<svg width="36px" height="36px" viewBox="0 0 36 36" version="1.1" xmlns="http://www.w3.org/2000/svg" xmlns:xlink="http://www.w3.org/1999/xlink">
    <title>退出-sign-out</title>
    <g id="页面-1" stroke="none" stroke-width="1" fill="none" fill-rule="evenodd">
        <g id="F-30-退出房间滑动浮层" transform="translate(-229.000000, -45.000000)" fill-rule="nonzero">
            <g id="退出-sign-out" transform="translate(229.000000, 45.000000)">
                <rect id="矩形" fill="#000000" opacity="0" x="0" y="0" width="36" height="36"></rect>
                <path d="M30.1078125,19.2304688 L11.9988281,19.2304688 C11.3203125,19.2304688 10.7683594,18.6785156 10.7683594,18 C10.7683594,17.3214844 11.3203125,16.7695312 11.9988281,16.7695312 L30.1078125,16.7695312 C30.7863281,16.7695312 31.3382813,17.3214844 31.3382813,18 C31.3382813,18.6785156 30.7863281,19.2304688 30.1078125,19.2304688 L30.1078125,19.2304688 Z" id="路径" fill="#151515"></path>
                <path d="M21.1957031,28.40625 C20.8792969,28.40625 20.5664063,28.2867187 20.3273438,28.0441406 C19.8457031,27.5625 19.8457031,26.7855469 20.3273438,26.3039063 L28.63125,18 L20.3273438,9.69257812 C19.8457031,9.2109375 19.8457031,8.43398437 20.3273438,7.95234375 C20.8089844,7.47070312 21.5859375,7.47070312 22.0675781,7.95234375 L31.0535156,16.9382812 C31.3382813,17.2230469 31.4929688,17.5992187 31.4929688,17.9964844 C31.4929688,18.39375 31.3382813,18.7734375 31.0535156,19.0546875 L22.0640625,28.0441406 C21.825,28.2867187 21.5121094,28.40625 21.1957031,28.40625 Z" id="路径" fill="#151515"></path>
                <path d="M16.1683594,32.4140625 L9.70664063,32.4140625 C6.84140625,32.4140625 4.51054688,30.0832031 4.51054688,27.2179688 L4.51054688,8.78203125 C4.51054688,5.91679688 6.84140625,3.5859375 9.70664063,3.5859375 L16.1683594,3.5859375 C16.846875,3.5859375 17.3988281,4.13789062 17.3988281,4.81640625 C17.3988281,5.49492188 16.846875,6.046875 16.1683594,6.046875 L9.70664063,6.046875 C8.1984375,6.046875 6.97148438,7.27382812 6.97148438,8.78203125 L6.97148438,27.2179688 C6.97148438,28.7261719 8.1984375,29.953125 9.70664063,29.953125 L16.1683594,29.953125 C16.846875,29.953125 17.3988281,30.5050781 17.3988281,31.1835938 C17.3988281,31.8621094 16.846875,32.4140625 16.1683594,32.4140625 L16.1683594,32.4140625 Z" id="路径" fill="#151515"></path>
            </g>
        </g>
    </g>
</svg>