<?xml version="1.0" encoding="UTF-8"?>
<svg width="16px" height="16px" viewBox="0 0 16 16" version="1.1" xmlns="http://www.w3.org/2000/svg" xmlns:xlink="http://www.w3.org/1999/xlink">
    <title>common/icon/person_leave</title>
    <defs>
        <filter id="filter-1">
            <feColorMatrix in="SourceGraphic" type="matrix" values="0 0 0 0 1.000000 0 0 0 0 0.534042 0 0 0 0 0.523149 0 0 0 1.000000 0"></feColorMatrix>
        </filter>
    </defs>
    <g id="HiDPI" stroke="none" stroke-width="1" fill="none" fill-rule="evenodd">
        <g id="F-16-Room-麦上用户点击自己" transform="translate(-180.000000, -424.000000)">
            <g id="hi/message/room/user/kick-out备份" transform="translate(165.000000, 424.000000)" filter="url(#filter-1)">
                <g id="common/icon/voice-off" transform="translate(15.000000, 0.000000)" fill="#000000" fill-rule="nonzero">
                    <g id="Person-Leave">
                        <rect id="矩形" opacity="0" x="0" y="0" width="16" height="16"></rect>
                        <path d="M11.6666667,8 C12.9766975,7.99991448 14.1872525,8.6987585 14.8422926,9.83326423 C15.4973327,10.96777 15.4973327,12.3655634 14.8422926,13.5000691 C14.1872525,14.6345748 12.9766975,15.3334188 11.6666667,15.3333333 C9.64171606,15.3332011 8.00023936,13.6916173 8.00023936,11.6666667 C8.00023936,9.64171605 9.64171606,8.00013219 11.6666667,8 L11.6666667,8 Z M8.01533333,9.33333333 C7.81551477,9.64500041 7.6566534,9.9810964 7.54266667,10.3333333 L2.836,10.3333333 C2.55985763,10.3333333 2.336,10.557191 2.336,10.8333333 L2.336,11.438 C2.336,11.8753333 2.52666667,12.2906667 2.858,12.5753333 C3.69666667,13.2966667 4.96066667,13.6673333 6.66666667,13.6673333 C7.06666667,13.6673333 7.44133334,13.6473333 7.792,13.6073333 C7.95866667,13.9406667 8.16733333,14.2493333 8.412,14.5273333 C7.87666667,14.6206667 7.29466667,14.6673333 6.66666667,14.6673333 C4.74,14.6673333 3.248,14.2293333 2.20666667,13.334 C1.65399593,12.8590909 1.336,12.1666862 1.336,11.438 L1.336,10.8333333 C1.336,10.4355086 1.49403526,10.0539777 1.77533983,9.77267316 C2.0566444,9.49136859 2.43817527,9.33333333 2.836,9.33333333 L8.01533333,9.33333333 Z M11.1466667,9.726 L11.1,9.764 L9.42333333,11.442 L9.39666667,11.4753333 L9.37266667,11.514 L9.35133333,11.566 L9.344,11.5946667 L9.336,11.652 L9.33866667,11.7106667 L9.352,11.7673333 L9.37266667,11.8193333 L9.38933333,11.8473333 L9.42266667,11.8913333 L11.1,13.5693333 C11.2218696,13.6917488 11.417065,13.7007839 11.5497219,13.5901498 C11.6823788,13.4795157 11.7085416,13.2858707 11.61,13.144 L11.5713333,13.0973333 L10.474,12 L13.6673333,12 C13.8280768,11.9997321 13.965733,11.8847849 13.9946667,11.7266667 L14,11.6666667 C14.0000537,11.5056718 13.885032,11.3676457 13.7266667,11.3386667 L13.6666667,11.3333333 L10.474,11.3333333 L11.5713333,10.236 C11.6852842,10.1221816 11.7015582,9.94316774 11.61,9.81066667 L11.5713333,9.764 C11.4574447,9.65062218 11.2788753,9.63464344 11.1466667,9.726 L11.1466667,9.726 Z M6.66666667,1.33666667 C8.50761584,1.33666667 10,2.82905084 10,4.67 C10,6.51094916 8.50761584,8.00333333 6.66666667,8.00333333 C4.82571751,8.00333333 3.33333334,6.51094916 3.33333334,4.67 C3.33333334,2.82905084 4.82571751,1.33666667 6.66666667,1.33666667 Z M6.66666667,2.33666667 C5.37800226,2.33666667 4.33333334,3.38133559 4.33333334,4.67 C4.33333334,5.95866441 5.37800226,7.00333333 6.66666667,7.00333333 C7.95533109,7.00333333 9,5.95866441 9,4.67 C9,3.38133559 7.95533109,2.33666667 6.66666667,2.33666667 L6.66666667,2.33666667 Z" id="形状"></path>
                    </g>
                </g>
            </g>
        </g>
    </g>
</svg>