<?xml version="1.0" encoding="UTF-8"?>
<svg width="21px" height="21px" viewBox="0 0 21 21" version="1.1" xmlns="http://www.w3.org/2000/svg" xmlns:xlink="http://www.w3.org/1999/xlink">
    <title>reset_password</title>
    <g id="HiDPI" stroke="none" stroke-width="1" fill="none" fill-rule="evenodd">
        <g id="H-04-account" transform="translate(-24.000000, -120.000000)" fill="#000000" fill-rule="nonzero">
            <g id="account-账户" transform="translate(24.000000, 116.000000)">
                <g id="reset-Password" transform="translate(0.000000, 4.000000)">
                    <rect id="矩形" opacity="0" x="0" y="0" width="21" height="21"></rect>
                    <path d="M19.4942709,7.33146328 C19.0025323,6.16885153 18.2986905,5.12487234 17.4023042,4.22848609 C16.505918,3.33209984 15.4619388,2.62827904 14.2993481,2.13651945 C13.0953524,1.62727872 11.8167523,1.36906978 10.4990766,1.36906978 C10.4686473,1.36906978 10.4387425,1.37135722 10.4094674,1.37553339 L10.4090477,0.353673202 C10.4089427,0.125557872 10.2649804,0.0577738301 10.0890986,0.203037331 L8.23880412,1.73109532 C8.06292238,1.87635884 8.06300631,2.11391777 8.23901398,2.25901339 L10.0906096,3.7857073 C10.2665963,3.93082391 10.4105167,3.86291397 10.4104327,3.6348196 L10.410013,2.6218154 C10.4391203,2.62594959 10.4688361,2.62821606 10.4990976,2.62821606 C11.6473551,2.62821606 12.7609021,2.85295268 13.8088686,3.29621416 C14.8213691,3.72447081 15.7308295,4.33767506 16.5120039,5.11884942 C17.2931573,5.90000281 17.9063615,6.80946318 18.3346181,7.8219847 C18.7778796,8.86993019 19.0026163,9.98349819 19.0026163,11.1317347 C19.0026163,12.2799712 18.7778796,13.3935182 18.3346181,14.4414847 C17.9063825,15.4540062 17.2931573,16.3634666 16.5120039,17.14462 C15.7308295,17.9257734 14.8213691,18.5389986 13.8088686,18.9672552 C12.7609021,19.4105167 11.6473341,19.6352533 10.4990976,19.6352533 C9.35086113,19.6352533 8.23729315,19.4105167 7.18934764,18.9672552 C6.17682614,18.5390196 5.26736575,17.9257734 4.48621236,17.14462 C3.70505898,16.3634666 3.09185473,15.4540062 2.6635771,14.4414847 C2.22033662,13.3935182 2.625,12.9607365 2.625,11.8125 C2.625,11.4648077 1.71369811,10.5021615 1.36600585,10.5021615 C1.01831358,10.5021615 0.736432696,10.7840424 0.736432696,11.1317347 C0.736432696,12.4494103 0.994641621,13.7279894 1.50388237,14.9319851 C1.99562098,16.0945759 2.69946276,17.1385761 3.59584901,18.0349623 C4.49223526,18.9313486 5.53621443,19.6351904 6.6988262,20.126929 C7.90282188,20.6361907 9.181422,20.8943786 10.4990766,20.8943786 C11.8167523,20.8943786 13.0953524,20.6361697 14.2993481,20.126929 C15.4619388,19.6351904 16.505918,18.9313486 17.4023042,18.0349623 C18.2986905,17.1385761 19.0025323,16.0945759 19.4942709,14.9319851 C20.0035326,13.7279894 20.2617206,12.4494103 20.2617206,11.1317347 C20.2617206,9.81405908 20.0035116,8.53545896 19.4942709,7.33146328 Z M10.4376513,11.8653763 C10.4376513,12.6129044 11.0436425,13.2188956 11.7911706,13.2188956 C12.5386987,13.2188956 13.1446899,12.6129044 13.1446899,11.8653763 C13.1446899,11.1178482 12.5386987,10.511857 11.7911706,10.511857 C11.0436425,10.511857 10.4376513,11.1178482 10.4376513,11.8653763 Z M1.73476784,6.43728053 L7.34716063,10.8540929 C6.96226059,12.5553255 7.58390112,14.352505 8.97718847,15.4490116 C9.7899674,16.0886369 10.7652811,16.4268016 11.7976342,16.4268016 C11.7977181,16.4268016 11.7976972,16.4268016 11.7977811,16.4268016 C13.2078571,16.4268016 14.5163409,15.7918561 15.3875442,14.6848357 C16.141626,13.7266463 16.4774193,12.5321572 16.3330792,11.3214041 C16.188739,10.110651 15.5815367,9.02858262 14.6233683,8.27450088 C13.8106314,7.63491752 12.8354855,7.29685772 11.8032794,7.29685772 C11.0953873,7.29685772 10.4033605,7.45909871 9.77601185,7.76937334 L8.16971892,6.49381618 C8.81219832,5.59157491 8.63831021,4.3302041 7.75875456,3.6380304 C7.39167144,3.34914027 6.93264967,3.19004714 6.46624088,3.19004714 C5.85328847,3.19004714 5.28222364,3.45201253 4.88441736,3.91214656 L4.15879234,3.3513228 C3.81489849,3.0816976 3.38542468,2.93326523 2.94904655,2.93326523 C2.3430824,2.93326523 1.78076864,3.20616421 1.40629853,3.6819956 C1.08217329,4.09384137 0.937833155,4.60725827 0.999867094,5.12768443 C1.06194301,5.64806862 1.32292205,6.11317627 1.73476784,6.43728053 Z M2.47825175,4.52556066 C2.59239336,4.38050702 2.76401502,4.29731941 2.94906755,4.29731941 C3.04310479,4.29731941 3.18347861,4.31954334 3.31806038,4.42543754 L5.11836677,5.81687814 L5.89370709,4.8317011 C6.03254896,4.65527372 6.24125246,4.55408032 6.46628288,4.55408032 C6.63041261,4.55408032 6.78564436,4.60797178 6.9152105,4.70994165 C7.23041679,4.95799346 7.28504275,5.41623877 7.03699094,5.73144508 L6.25984585,6.71897254 L9.66749446,9.42498287 L10.0775984,9.16316438 C10.5922745,8.83459016 11.1890049,8.66091192 11.8033214,8.66091192 C12.5264911,8.66091192 13.2099347,8.89794622 13.7798033,9.34643313 C14.4516838,9.87516965 14.8774431,10.6339102 14.9786365,11.4828686 C15.0798299,12.331827 14.8443905,13.1693692 14.315633,13.8412496 C13.7047162,14.6175343 12.7869665,15.0627265 11.7977392,15.0627265 C11.0743806,15.0627265 10.3907901,14.8256082 9.82083748,14.3770584 C8.75213706,13.5360116 8.33078474,12.1072163 8.77238832,10.8216909 L8.92971866,10.3636554 L2.57835387,5.3653483 C2.45283798,5.26656828 2.37328092,5.12480938 2.35437273,4.96619892 C2.33548555,4.80756747 2.37945073,4.65107658 2.47825175,4.52556066 Z" id="形状"></path>
                </g>
            </g>
        </g>
    </g>
</svg>