<?xml version="1.0" encoding="UTF-8"?>
<svg width="24px" height="24px" viewBox="0 0 24 24" version="1.1" xmlns="http://www.w3.org/2000/svg" xmlns:xlink="http://www.w3.org/1999/xlink">
    <title>log_out</title>
    <g id="HiDPI" stroke="none" stroke-width="1" fill="none" fill-rule="evenodd">
        <g id="H-04-account" transform="translate(-24.000000, -198.000000)" fill="#000000" fill-rule="nonzero">
            <g id="account-账户备份" transform="translate(24.000000, 197.000000)">
                <g id="log-out" transform="translate(0.000000, 1.000000)">
                    <rect id="矩形" opacity="0" x="0" y="0" width="24" height="24"></rect>
                    <path d="M22.2822656,12.2293594 L17.7641016,7.71119531 C17.5058438,7.4529375 17.0642344,7.63584375 17.0642344,8.00109375 L17.0642344,10.7181563 L9.65854688,10.7181563 C8.98305469,10.7181563 8.43539063,11.4809531 8.43539063,12.4217578 C8.43539063,13.3625625 8.98305469,14.1253594 9.65854688,14.1253594 L17.0642578,14.1253594 L17.0642578,17.0374219 C17.0642578,17.4026719 17.5058438,17.5855781 17.764125,17.3273203 L22.2822656,12.8091328 C22.4423672,12.6490313 22.4423672,12.3894609 22.2822656,12.2293594 L22.2822656,12.2293594 Z M12.840375,18.7340625 L4.29128906,18.7340625 L4.29522656,5.26596094 L12.840375,5.26596094 L12.840375,9.97980469 L15.534,9.97980469 L15.534,5.2659375 C15.534,3.78070313 14.3256094,2.5723125 12.840375,2.5723125 L4.29128906,2.5723125 C2.80605469,2.5723125 1.59766406,3.78070313 1.59766406,5.2659375 L1.59766406,18.7340625 C1.59766406,20.2192969 2.80605469,21.4276875 4.29128906,21.4276875 L12.840375,21.4276875 C14.3256094,21.4276875 15.534,20.2192969 15.534,18.7340625 L15.534,14.8636875 L12.840375,14.8636875 L12.840375,18.7340625 Z M4.35335625,5.2659375 L4.35545625,3.919125 L4.35545625,5.2659375 L4.35335625,5.2659375 Z" id="形状"></path>
                </g>
            </g>
        </g>
    </g>
</svg>