<?xml version="1.0" encoding="UTF-8"?>
<svg width="36px" height="36px" viewBox="0 0 36 36" version="1.1" xmlns="http://www.w3.org/2000/svg" xmlns:xlink="http://www.w3.org/1999/xlink">
    <title>common-icon-minimize窗口化</title>
    <g id="页面-1" stroke="none" stroke-width="1" fill="none" fill-rule="evenodd">
        <g id="F-30-退出房间滑动浮层" transform="translate(-309.000000, -115.000000)" fill-rule="nonzero">
            <g id="minimize窗口化" transform="translate(309.000000, 115.000000)">
                <rect id="矩形" fill="#000000" opacity="0" x="0" y="0" width="36" height="36"></rect>
                <path d="M15,21 L15.0285,21 C15.0615,21 15.0945,21.003 15.126,21.006 L15,21 C15.0885329,21.0002555 15.1768724,21.0082863 15.264,21.024 L15.2985,21.03 C15.4042274,21.051272 15.507332,21.0839637 15.606,21.1275 L15.636,21.141 L15.66,21.153 C15.7518102,21.1979877 15.838765,21.2522716 15.9195,21.315 L15.9225,21.3165 L15.9375,21.33 C16.0275,21.402 16.11,21.4845 16.1805,21.5745 L16.0605,21.4395 C16.3284604,21.7094165 16.4848535,22.070406 16.4985,22.4505 L16.5,22.5 L16.5,31.5 C16.5,32.3283374 15.8283374,32.9997704 15,32.9997704 C14.1716625,32.9997704 13.5001268,32.3283374 13.5,31.5 L13.5,26.121 L5.454,34.167 C5.07738838,34.5569353 4.51968306,34.7133196 3.99523867,34.5760465 C3.47079428,34.4387734 3.06122664,34.0292057 2.92395353,33.5047614 C2.78668041,32.980317 2.94306473,32.4226116 3.33299999,32.046 L11.376,24 L6.00000001,24 C5.17157288,24 4.5,23.3284271 4.5,22.5 C4.5,21.6715729 5.17157288,21 6.00000001,21 L15,21 L15,21 Z M32.667,4.833 C33.2525729,5.41874978 33.2525729,6.36825023 32.667,6.95400001 L24.621,15 L30,15 C30.8283374,15.0001268 31.4997704,15.6716626 31.4997704,16.5 C31.4997704,17.3283375 30.8283374,18 30,18 L20.9505,18 L20.8725,17.994 L20.8245,17.9895 L20.769,17.982 C20.757978,17.9801228 20.7469773,17.9781227 20.736,17.976 L20.7015,17.97 C20.350268,17.899841 20.0360781,17.7054693 19.8165,17.4225 L19.9395,17.5605 C19.6664527,17.2859484 19.5091437,16.9171044 19.4999243,16.53 C19.4999243,16.5200003 19.4999243,16.5099997 19.4999243,16.5 L19.4999243,7.49999999 C19.5001268,6.67166255 20.1716626,6.00022962 21,6.00022962 C21.8283375,6.00022962 22.4998732,6.67166255 22.5,7.49999999 L22.5,12.876 L30.546,4.833 C31.1317498,4.24742709 32.0812502,4.24742709 32.667,4.833 Z" id="形状" fill="#666666"></path>
            </g>
        </g>
    </g>
</svg>