<?xml version="1.0" encoding="UTF-8"?>
<svg width="16px" height="16px" viewBox="0 0 16 16" version="1.1" xmlns="http://www.w3.org/2000/svg" xmlns:xlink="http://www.w3.org/1999/xlink">
    <title>google</title>
    <g id="HiDPI" stroke="none" stroke-width="1" fill="none" fill-rule="evenodd">
        <g id="登录页面-登录方式" transform="translate(-180.000000, -541.000000)" fill="#000000" fill-rule="nonzero">
            <g id="google" transform="translate(180.000000, 541.000000)">
                <rect id="矩形" opacity="0" x="0" y="0" width="16" height="16"></rect>
                <path d="M11.6666667,9.33333333 C11.2680315,10.7200757 10.0944493,11.7450041 8.66666667,11.9533333 C7.56209385,12.1135858 6.43992821,11.81659 5.55924177,11.1309127 C4.67855533,10.4452354 4.11547574,9.43014743 4,8.32 C3.91049698,7.20487024 4.29207057,6.10321703 5.05213511,5.28234732 C5.81219965,4.46147762 6.88128989,3.9964139 8,4 C8.51850074,4.00072956 9.03211045,4.10028386 9.51333333,4.29333333 C9.67036993,4.36383408 9.85526058,4.30316684 9.94,4.15333333 L10.9,2.38666667 C10.941735,2.30448142 10.9490214,2.20905889 10.9202487,2.12148973 C10.8914759,2.03392058 10.8290134,1.96141555 10.7466667,1.92 C8.65099305,0.971173311 6.21420838,1.16983995 4.29990072,2.44559314 C2.38559306,3.72134633 1.26427332,5.89390933 1.33333333,8.19333333 C1.46948324,11.6748007 4.23421028,14.4799731 7.71333333,14.6666667 C11.3741413,14.8290082 14.4797154,12.0063004 14.6666667,8.34666667 L14.6666667,7.01333333 C14.6631199,6.83072769 14.515939,6.68354673 14.3333333,6.68 L8.33333333,6.68 C8.14923841,6.68 8,6.82923841 8,7.01333333 L8,9.01333333 C8,9.10173883 8.03511894,9.18652347 8.09763107,9.24903559 C8.16014319,9.31154772 8.24492783,9.34666667 8.33333333,9.34666667 L11.6666667,9.34666667" id="路径"></path>
            </g>
        </g>
    </g>
</svg>