<?xml version="1.0" encoding="UTF-8"?>
<svg width="16px" height="16px" viewBox="0 0 16 16" version="1.1" xmlns="http://www.w3.org/2000/svg" xmlns:xlink="http://www.w3.org/1999/xlink">
    <title>common/icon/facebook</title>
    <g id="HiDPI" stroke="none" stroke-width="1" fill="none" fill-rule="evenodd">
        <g id="D-01-登录页面-登录方式" transform="translate(-279.000000, -541.000000)" fill="#000000" fill-rule="nonzero">
            <g id="facebook" transform="translate(279.000000, 541.000000)">
                <rect id="矩形" opacity="0" x="1" y="1" width="14" height="14"></rect>
                <path d="M14.78125,8 C14.78125,4.25390625 11.7460938,1.21875 8,1.21875 C4.25390625,1.21875 1.21875,4.25390625 1.21875,8 C1.21875,11.3846094 3.69855469,14.1900781 6.94042969,14.6992188 L6.94042969,9.96027344 L5.21777344,9.96027344 L5.21777344,8 L6.94042969,8 L6.94042969,6.5059375 C6.94042969,4.80652344 7.95214844,3.8678125 9.50171875,3.8678125 C10.2438281,3.8678125 11.0198437,4.00015625 11.0198437,4.00015625 L11.0198437,5.668125 L10.1645312,5.668125 C9.32234375,5.668125 9.05957031,6.1909375 9.05957031,6.72714844 L9.05957031,8 L10.9402734,8 L10.6394922,9.96027344 L9.05957031,9.96027344 L9.05957031,14.6992188 C12.3014453,14.1900781 14.78125,11.3846094 14.78125,8 Z" id="路径"></path>
            </g>
        </g>
    </g>
</svg>