<?xml version="1.0" encoding="UTF-8"?>
<svg width="16px" height="16px" viewBox="0 0 16 16" version="1.1" xmlns="http://www.w3.org/2000/svg" xmlns:xlink="http://www.w3.org/1999/xlink">
    <title>maximize最大化</title>
    <g id="页面-1" stroke="none" stroke-width="1" fill="none" fill-rule="evenodd">
        <g id="A-08-首页-我的-我的房间-多" transform="translate(-327.000000, -257.000000)" fill-rule="nonzero">
            <g id="room-item-mine-lite" transform="translate(16.000000, 233.000000)">
                <g id="maximize最大化" transform="translate(311.000000, 24.000000)">
                    <rect id="矩形" fill="#000000" opacity="0" x="0" y="0" width="16" height="16"></rect>
                    <path d="M7.18533333,8.81466667 C7.44558794,9.07499991 7.44558794,9.49700009 7.18533333,9.75733333 L3.60933333,13.3333333 L6,13.3333333 C6.36818982,13.3333334 6.66666663,13.6318102 6.66666663,14 C6.66666663,14.3681898 6.36818982,14.6666667 6,14.6666667 L1.97866667,14.6666667 L1.94266667,14.664 L1.92266667,14.662 L1.898,14.6586667 C1.89287872,14.6578373 1.88776726,14.6569483 1.88266667,14.656 L1.86666667,14.6533333 C1.71056358,14.6221516 1.57092361,14.5357641 1.47333333,14.41 L1.528,14.4713333 C1.40689005,14.3492046 1.33721897,14.1852867 1.33333333,14.0133333 L1.33333333,10 C1.33333333,9.63181016 1.63181016,9.33333333 2,9.33333333 C2.36818984,9.33333333 2.66666667,9.63181016 2.66666667,10 L2.66666667,12.3893333 L6.24266667,8.81466667 C6.50299991,8.55441206 6.92500009,8.55441206 7.18533333,8.81466667 L7.18533333,8.81466667 Z M14,1.33333333 L14.0133333,1.33333333 C14.0273333,1.33333333 14.042,1.33466666 14.056,1.336 L14,1.33333333 C14.039348,1.33344687 14.0786099,1.33701615 14.1173333,1.344 L14.1326667,1.34666667 C14.2332389,1.3669319 14.3277247,1.41029494 14.4086667,1.47333333 L14.41,1.474 L14.4166667,1.48 C14.4566667,1.512 14.4933333,1.54866667 14.5246667,1.58866667 L14.4713333,1.52866667 C14.5905804,1.64879668 14.6601009,1.80950316 14.666,1.97866667 L14.666,1.978 L14.6666667,2 L14.6666667,6 C14.6666667,6.36818984 14.3681898,6.66666667 14,6.66666667 C13.6318102,6.66666667 13.3333333,6.36818984 13.3333333,6 L13.3333333,3.60933333 L9.75733333,7.18533333 C9.49574733,7.43798099 9.07994379,7.43436754 8.82278812,7.17721188 C8.56563246,6.92005621 8.56201901,6.50425267 8.81466667,6.24266667 L12.3893333,2.66666667 L10,2.66666667 C9.63181016,2.66666667 9.33333333,2.36818984 9.33333333,2 C9.33333333,1.63181016 9.63181016,1.33333333 10,1.33333333 L14,1.33333333 Z" id="形状" fill="#666666"></path>
                </g>
            </g>
        </g>
    </g>
</svg>