<?xml version="1.0" encoding="UTF-8"?>
<svg width="16px" height="16px" viewBox="0 0 16 16" version="1.1" xmlns="http://www.w3.org/2000/svg" xmlns:xlink="http://www.w3.org/1999/xlink">
    <title>bx_sort_up</title>
    <defs>
        <filter id="filter-1">
            <feColorMatrix in="SourceGraphic" type="matrix" values="0 0 0 0 0.313725 0 0 0 0 0.749020 0 0 0 0 0.352941 0 0 0 0.500000 0"></feColorMatrix>
        </filter>
    </defs>
    <g id="HiDPI" stroke="none" stroke-width="1" fill="none" fill-rule="evenodd">
        <g id="common/icon/sort/up" transform="translate(-297.000000, -257.000000)" filter="url(#filter-1)">
            <g transform="translate(297.000000, 257.000000)" id="bx-sort-up" fill="#000000" fill-rule="nonzero">
                <rect id="矩形" opacity="0" x="0" y="0" width="16" height="16"></rect>
                <path d="M7.33333333,6 L13.3333333,6 L13.3333333,7.33333333 L7.33333333,7.33333333 L7.33333333,6 Z M7.33333333,8.66666667 L12,8.66666667 L12,10 L7.33333333,10 L7.33333333,8.66666667 Z M7.33333333,3.33333333 L14.6666667,3.33333333 L14.6666667,4.66666667 L7.33333333,4.66666667 L7.33333333,3.33333333 Z M7.33333333,11.3333333 L10.6666667,11.3333333 L10.6666667,12.6666667 L7.33333333,12.6666667 L7.33333333,11.3333333 Z M3.33333333,13.3333333 L4.66666667,13.3333333 L4.66666667,5.33333333 L6.66666667,5.33333333 L4,2.66666667 L1.33333333,5.33333333 L3.33333333,5.33333333 L3.33333333,13.3333333 Z" id="形状"></path>
            </g>
        </g>
    </g>
</svg>