<?xml version="1.0" encoding="UTF-8"?>
<svg width="16px" height="16px" viewBox="0 0 16 16" version="1.1" xmlns="http://www.w3.org/2000/svg" xmlns:xlink="http://www.w3.org/1999/xlink">
    <title>common/icon/话题</title>
    <g id="HiDPI" stroke="none" stroke-width="1" fill="none" fill-rule="evenodd">
        <g id="B-07-首页-moment-创建moment" transform="translate(-8.000000, -525.000000)" fill="#000000" fill-rule="nonzero">
            <g id="话题" transform="translate(8.000000, 525.000000)">
                <rect id="矩形" opacity="0" x="0" y="0" width="16" height="16"></rect>
                <path d="M1.49570591,6.12443962 L4.03102695,6.12443962 C4.34684483,6.12443962 4.60236758,5.86861308 4.60236758,5.553099 C4.60236758,5.23758492 4.34682883,4.98175837 4.03102695,4.98175837 L1.49570591,4.98175837 C1.17990402,4.98175837 0.924365281,5.23758492 0.924365281,5.553099 C0.924365281,5.86861308 1.17990403,6.12443962 1.49570591,6.12443962 Z M14.4223337,6.12443962 C14.7381355,6.12443962 14.9936743,5.86861308 14.9936743,5.553099 C14.9936743,5.23758492 14.7381355,4.98175837 14.4223337,4.98175837 L10.9228503,4.98175838 L10.9228503,1.66082595 C10.9228503,1.34531188 10.6673116,1.08948533 10.3515097,1.08948533 C10.0357078,1.08948533 9.78016906,1.34531188 9.78016906,1.66082595 L9.78016906,4.98175836 L6.97701358,4.98175838 C6.66121169,4.98175838 6.40567295,5.23758492 6.40567295,5.553099 C6.40567295,5.86861308 6.6612117,6.12443963 6.97701358,6.12443963 L9.78016903,6.12443963 L9.78016903,14.2303518 C9.78016903,14.5458659 10.0357078,14.8016924 10.3515097,14.8016924 C10.6673115,14.8016924 10.9228503,14.5458659 10.9228503,14.2303518 L10.9228503,6.12443962 L14.4223337,6.12443962 Z M14.4223337,9.5882032 L11.8334329,9.5882032 C11.517631,9.5882032 11.2620923,9.84402975 11.2620923,10.1595438 C11.2620923,10.4750579 11.5176311,10.7308845 11.8334329,10.7308845 L14.4223337,10.7308845 C14.7381355,10.7308845 14.9936743,10.4750579 14.9936743,10.1595438 C14.9936743,9.84402975 14.7381196,9.5882032 14.4223337,9.5882032 Z M8.74459916,9.5882032 L6.03072717,9.5882032 L6.03072717,1.66082595 C6.03072717,1.34531188 5.77518842,1.08948533 5.45938655,1.08948533 C5.14360066,1.08948533 4.88804592,1.34531188 4.88804592,1.66082595 L4.88804592,9.58820319 L1.49570591,9.5882032 C1.17990402,9.5882032 0.924365281,9.84402975 0.924365281,10.1595438 C0.924365281,10.4750579 1.17990403,10.7308845 1.49570591,10.7308845 L4.88804591,10.7308845 L4.88804591,14.2303518 C4.88804591,14.5458659 5.14360064,14.8016924 5.45938653,14.8016924 C5.77520441,14.8016924 6.03072716,14.5458659 6.03072716,14.2303518 L6.03072717,10.7308845 L8.74459917,10.7308845 C9.06041705,10.7308845 9.3159398,10.4750579 9.3159398,10.1595438 C9.3159398,9.84402975 9.06041703,9.5882032 8.74459916,9.5882032 Z" id="形状"></path>
            </g>
        </g>
    </g>
</svg>