<?xml version="1.0" encoding="UTF-8"?>
<svg width="20px" height="20px" viewBox="0 0 20 20" version="1.1" xmlns="http://www.w3.org/2000/svg" xmlns:xlink="http://www.w3.org/1999/xlink">
    <title>common-icon-liked-5th-full</title>
    <g id="页面-1" stroke="none" stroke-width="1" fill="none" fill-rule="evenodd">
        <g id="B-01-首页-moment-关注" transform="translate(-32.000000, -519.000000)">
            <g id="hi/message/info/moment/card/single-pic" transform="translate(16.000000, 75.000000)">
                <g id="hi/message/info/moment/card/1-base" transform="translate(16.000000, 12.000000)">
                    <g id="操作组" transform="translate(0.000000, 432.000000)">
                        <g id="liked" transform="translate(0.000000, 0.000000)">
                            <rect id="矩形" fill="#000000" fill-rule="nonzero" opacity="0" x="0" y="0" width="20" height="20"></rect>
                            <path d="M9.99306158,16.9384219 C8.30008673,16.9384219 6.30182134,15.8560281 4.66435386,14.0520385 C2.97137901,12.1786647 2,9.93061614 2,7.87684338 C2,5.60104112 3.83174328,3.06157849 6.28794449,3.06157849 C7.81242999,3.06095565 9.22280826,3.86914994 9.99306158,5.18473583 C10.7424111,3.92194312 12.1300954,3.06157849 13.6981787,3.06157849 C16.1543799,3.06157849 18,5.60104112 18,7.87684338 C18,9.93061614 17.028621,12.1786647 15.3217693,14.0520385 C13.6843018,15.8560281 11.6999133,16.9384219 9.99306158,16.9384219 Z" id="形状" fill="#FF8885" fill-rule="nonzero"></path>
                            <path d="M6.6717884,4.82560018 C5.10410743,4.82560018 3.8848,6.5836526 3.8848,8.09233251 C3.8848,11.5211505 7.4680708,15.1744002 9.99377904,15.1744002 C12.5194873,15.1744002 16.1152,11.5211505 16.1152,8.09233251 C16.1152,6.5836526 14.8958926,4.82560018 13.3157697,4.82560018 C12.5762346,4.82436029 11.8666318,5.11821493 11.3437008,5.64226042 C10.8207698,6.16630591 10.5275401,6.87742101 10.5287813,7.61853221 C10.5287813,7.9177745 10.2923849,8.15467465 9.99377904,8.15467465 C9.70761506,8.15467465 9.47121872,7.9177745 9.47121872,7.61853221 C9.47121872,6.07244701 8.21458555,4.82560018 6.6717884,4.82560018 Z" id="路径" fill="#FFD9D8"></path>
                        </g>
                    </g>
                </g>
            </g>
        </g>
    </g>
</svg>