<?xml version="1.0" encoding="UTF-8"?>
<svg width="12px" height="12px" viewBox="0 0 12 12" version="1.1" xmlns="http://www.w3.org/2000/svg" xmlns:xlink="http://www.w3.org/1999/xlink">
    <title>hi/common/info/sex/female</title>
    <g id="HiDPI" stroke="none" stroke-width="1" fill="none" fill-rule="evenodd">
        <g id="首页-moment-关注" transform="translate(-80.000000, -595.000000)" fill-rule="nonzero">
            <g id="hi/message/info/moment/card/single-pic" transform="translate(16.000000, 564.000000)">
                <g id="女" transform="translate(64.000000, 31.000000)">
                    <rect id="矩形" fill="#000000" opacity="0" x="1" y="1" width="10" height="10"></rect>
                    <path d="M4.44666667,4.94666667 C4.44666667,5.50130166 4.74256089,6.01380553 5.22288888,6.29112302 C5.70321687,6.56844052 6.29500536,6.56844052 6.77533334,6.29112302 C7.25566133,6.01380553 7.55155556,5.50130166 7.55155556,4.94666667 C7.55155556,4.08927529 6.85650249,3.39422226 5.99911111,3.39422226 C5.14171974,3.39422226 4.44666667,4.08927529 4.44666667,4.94666667 L4.44666667,4.94666667 Z" id="路径" fill="#FF7977"></path>
                    <path d="M5.99911111,1.00995678 C4.67399556,1.0044775 3.40155833,1.52843455 2.46455199,2.46544088 C1.52754566,3.40244721 1.00358861,4.67488444 1.0090679,6 C1.00358861,7.32511556 1.52754566,8.59755279 2.46455199,9.53455912 C3.40155833,10.4715655 4.67399556,10.9955225 5.99911111,10.9900432 C7.32422667,10.9955225 8.5966639,10.4715655 9.53367023,9.53455912 C10.4706766,8.59755279 10.9946336,7.32511556 10.9891543,6 C10.9946336,4.67488444 10.4706766,3.40244721 9.53367023,2.46544088 C8.5966639,1.52843455 7.32422667,1.0044775 5.99911111,1.00995678 Z M6.38733333,7.16444444 L6.38733333,7.66333333 L7.21888889,7.66333333 C7.44066666,7.66333333 7.55155556,7.82977777 7.55155556,7.996 C7.55155556,8.16244444 7.38533333,8.38422223 7.21888889,8.38422223 L6.38733333,8.38422223 L6.38733333,8.994 C6.38733333,9.21577777 6.22088889,9.32666667 6.05466667,9.32666667 C5.8328889,9.32666667 5.722,9.16044444 5.722,8.994 L5.722,8.38444444 L4.83488889,8.38444444 C4.61311111,8.38444444 4.50222222,8.218 4.50222223,8.05177777 C4.50222223,7.88533333 4.66844445,7.7191111 4.83488889,7.71911111 L5.66644444,7.71911111 L5.66644444,7.22 C4.61311111,7.05377777 3.78133333,6.11111111 3.78133333,5.00222223 C3.78133333,3.78222223 4.77933333,2.72888889 6.05466667,2.72888889 C7.27444444,2.72888889 8.328,3.72688889 8.328,5.00222223 C8.27244444,6.05555556 7.44066667,6.99822223 6.38733333,7.16444444 L6.38733333,7.16444444 Z" id="形状" fill="#FF7977"></path>
                </g>
            </g>
        </g>
    </g>
</svg>