<?xml version="1.0" encoding="UTF-8"?>
<svg width="11px" height="12px" viewBox="0 0 11 12" version="1.1" xmlns="http://www.w3.org/2000/svg" xmlns:xlink="http://www.w3.org/1999/xlink">
    <title>common/icon/global</title>
    <g id="HiDPI" stroke="none" stroke-width="1" fill="none" fill-rule="evenodd">
        <g id="B-07-首页-moment-创建moment" transform="translate(-320.000000, -557.000000)" fill="#000000" fill-rule="nonzero">
            <g id="hi/message/moment/visibility" transform="translate(314.000000, 555.000000)">
                <g id="globe" transform="translate(6.000000, 2.000000)">
                    <rect id="矩形" opacity="0" x="0.6875" y="0.6875" width="9.625" height="9.625"></rect>
                    <path d="M10.3125,5.5 C10.3125,8.15689491 8.15689491,10.3125 5.5,10.3125 C2.84310509,10.3125 0.6875,8.15689491 0.6875,5.5 C0.6875,2.84310509 2.84310509,0.6875 5.5,0.6875 C8.15689491,0.6875 10.3125,2.84310509 10.3125,5.5 Z M7.07283579,4.07129709 C7.10416249,4.06503425 7.13548919,3.9522406 7.15429022,3.92717673 C7.19189228,3.88331184 7.24202001,3.85824797 7.29214774,3.83318411 C7.39867856,3.78931922 7.50520938,3.77679355 7.61800303,3.75799252 C7.72453385,3.73292865 7.85612853,3.73292865 7.93758296,3.82692128 C7.91879446,3.80812025 8.06917765,3.67652556 8.08797868,3.67026273 C8.14438177,3.63893603 8.23837439,3.6514617 8.27597645,3.59507113 C8.28850212,3.5762701 8.28850212,3.45721361 8.28850212,3.45721361 C8.1819713,3.46973928 8.14438177,3.36948383 8.13810641,3.28175404 C8.13810641,3.28801687 8.12558074,3.3068179 8.10051687,3.33188177 C8.10677971,3.23788914 7.98772322,3.3068179 7.94385832,3.29429223 C7.79972544,3.2567027 7.81852647,3.15643471 7.77466158,3.04990389 C7.74959771,2.99351333 7.68066896,2.9747123 7.65560509,2.91830921 C7.63054123,2.88071968 7.61800303,2.79925272 7.56159994,2.79298989 C7.52401041,2.78672705 7.45508165,2.92458457 7.44254345,2.91830921 C7.38615289,2.88698251 7.36108902,2.93083488 7.31722413,2.95591127 C7.27962207,2.98097513 7.24828284,2.96843694 7.21069331,2.98723797 C7.32348696,2.94964844 7.16055306,2.88698251 7.10416249,2.89950818 C7.19189228,2.87444432 7.14802739,2.78045169 7.09789966,2.7365868 C7.11042533,2.7365868 7.11670069,2.7365868 7.12922636,2.7365868 C7.11670069,2.68019623 6.94124111,2.63005598 6.88483802,2.59246644 C6.82844745,2.55487691 6.52765603,2.49221099 6.4649901,2.52980052 C6.38979851,2.57366541 6.48379113,2.69898474 6.48379113,2.76165066 C6.49005397,2.83684226 6.40859954,2.85564329 6.40859954,2.91830921 C6.40859954,3.02484003 6.60912298,3.006039 6.55899525,3.15015935 C6.52765603,3.23788914 6.40859954,3.25669017 6.35847181,3.32561893 C6.30833155,3.38827233 6.36473464,3.50107851 6.41486237,3.54493088 C6.4649901,3.58253294 6.32713258,3.64519886 6.30833155,3.65772453 C6.20181326,3.70785226 6.12034631,3.55119371 6.09526992,3.45720109 C6.07648141,3.38827233 6.07021858,3.30680538 5.99501446,3.26921584 C5.9574124,3.25669017 5.83835591,3.23788914 5.81329205,3.27547868 C5.77568999,3.18148605 5.6440953,3.14388399 5.55636551,3.11255729 C5.43104619,3.0686924 5.32451537,3.0686924 5.19292069,3.08749343 C5.23678558,3.08123059 5.18039502,2.88696999 5.0738642,2.91829668 C5.1051909,2.85564329 5.09266523,2.786702 5.1051909,2.7240486 C5.11772909,2.67392087 5.14279296,2.62379314 5.18039502,2.57992825 C5.19292069,2.55486438 5.33077821,2.41074403 5.28691331,2.40446867 C5.39344413,2.41699434 5.51250062,2.4232697 5.60023041,2.33553991 C5.6566335,2.27914935 5.68169736,2.1851442 5.73808793,2.1224908 C5.81955488,2.02849818 5.91982286,2.14755466 6.00755265,2.1538175 C6.13287198,2.16008033 6.12660914,2.02222282 6.05768038,1.95955689 C6.13913481,1.96581973 6.07021858,1.81543654 6.02635368,1.79663551 C5.96995059,1.77783448 5.75690148,1.83422504 5.86968261,1.87808994 C5.84463127,1.86556427 5.69422303,2.17886884 5.60650577,2.02221029 C5.5814419,1.99088359 5.56890371,1.85928891 5.51250062,1.85302607 C5.46237289,1.85302607 5.43104619,1.90941664 5.41224516,1.9470187 C5.44358438,1.86556427 5.23678558,1.80916118 5.19292069,1.80289834 C5.28691331,1.74023242 5.21172172,1.67130366 5.14279296,1.63371412 C5.09266523,1.60238743 4.93599415,1.57732356 4.89212926,1.62745129 C4.7730853,1.77157164 5.01746111,1.79037267 5.08012703,1.82797473 C5.09892806,1.84051293 5.17413218,1.88437782 5.13026729,1.91570452 C5.09266523,1.93450555 4.97985905,1.96583225 4.96733338,1.99089612 C4.92973132,2.04728668 5.01119827,2.1099526 4.95480771,2.16635569 C4.89840462,2.10996513 4.89840462,2.01595998 4.85453973,1.95330658 C4.91094282,2.02223534 4.62895242,1.98463328 4.63521525,1.98463328 C4.54122263,1.98463328 4.39082692,2.04728668 4.32189816,1.95330658 C4.30937249,1.92824272 4.30937249,1.78410984 4.34696202,1.81544906 C4.29057146,1.77158417 4.2529694,1.72771927 4.21537986,1.70265541 C4.00859359,1.77158417 3.81433298,1.85931396 3.62634773,1.95956942 C3.65141159,1.96583225 3.67021262,1.96583225 3.70153932,1.95330658 C3.75166705,1.93450555 3.79553195,1.90317885 3.84565968,1.87811499 C3.90831308,1.85305112 4.03990776,1.77785953 4.10883652,1.83425009 C4.11509935,1.82172442 4.13390038,1.80918623 4.14016322,1.80292339 C4.18402811,1.85305112 4.22789301,1.90317885 4.26548254,1.95958194 C4.21535481,1.93451808 4.13388786,1.94705627 4.07749729,1.95331911 C4.0336324,1.96584478 3.9584408,1.97838297 3.93963977,2.0285107 C3.9584408,2.0598374 3.98350467,2.10997766 3.97096647,2.14130435 C3.88949952,2.08491379 3.82684612,1.99092117 3.71405247,1.97838297 C3.66392474,1.97838297 3.61379701,1.97838297 3.57619495,1.98464581 C2.97463715,2.31676393 2.46707197,2.79926525 2.10362714,3.37575919 C2.12869101,3.40082305 2.15375487,3.41962408 2.17881874,3.42588692 C2.24148466,3.44468794 2.17881874,3.62641036 2.29787522,3.53240521 C2.33546476,3.56373191 2.34172759,3.6075968 2.31666373,3.6514617 C2.32292656,3.64519886 2.57357773,3.80812025 2.59237876,3.82064591 C2.63624366,3.85824797 2.70517242,3.90211287 2.72397345,3.9522406 C2.73649912,3.99610549 2.69890958,4.04623322 2.66130752,4.06503425 C2.65504469,4.05250858 2.56105207,3.95851596 2.54851387,3.98357982 C2.52971284,4.01490652 2.54851387,4.18410327 2.61744263,4.17782791 C2.51718717,4.18409074 2.56105207,4.57261196 2.5359882,4.64780355 C2.5359882,4.65406639 2.54851387,4.65406639 2.54851387,4.65406639 C2.52971284,4.72925798 2.59237876,5.02377405 2.71769809,4.99244735 C2.63624366,5.01124838 2.86181844,5.29950161 2.89315767,5.31830264 C2.97461209,5.3746932 3.06861724,5.41229526 3.12500781,5.49376222 C3.18766121,5.58149201 3.18766121,5.71308669 3.275391,5.78201545 C3.25032713,5.85720704 3.40698568,5.94493683 3.40072284,6.05146765 C3.38818465,6.05773049 3.38192182,6.05773049 3.36939615,6.06399332 C3.40072284,6.15172311 3.51977933,6.15172311 3.56364423,6.23319006 C3.58870809,6.28331779 3.56364423,6.40237428 3.64511118,6.37731042 C3.65763685,6.2394529 3.56364423,6.10159538 3.49471547,5.98880173 C3.45712593,5.9261358 3.41952387,5.86974524 3.38818465,5.80707931 C3.35685795,5.75067622 3.35059512,5.68174746 3.32553125,5.61908154 C3.35059512,5.6253569 3.48845263,5.67548463 3.47591444,5.69428566 C3.42578671,5.81960498 3.67643788,6.03892946 3.74536664,6.12039641 C3.76416767,6.13919744 3.90828802,6.32718269 3.83309643,6.32718269 C3.91456338,6.32718269 4.02735704,6.45251454 4.06494657,6.51518046 C4.12133714,6.60917308 4.10881147,6.72822957 4.146401,6.82849756 C4.18400306,6.95381688 4.35946264,7.01021997 4.4597181,7.06661053 C4.54743536,7.11047543 4.62263948,7.17314135 4.71035674,7.20446805 C4.84195143,7.25460831 4.87329065,7.21074341 4.98608431,7.19194238 C5.14900569,7.16687852 5.16780672,7.34860093 5.2994014,7.41752969 C5.38085583,7.46139459 5.55631541,7.52406051 5.6440452,7.48645845 C5.60645566,7.49899665 5.77563988,7.75591065 5.78817808,7.77471168 C5.84458117,7.84990328 5.95109946,7.88750534 6.01376539,7.96270946 C6.03256642,7.95017126 6.05136745,7.93137023 6.05763028,7.90630637 C6.03256642,7.97523512 6.1516229,8.10682981 6.21428883,8.09429161 C6.28321759,8.08176594 6.30201862,7.94390843 6.30201862,7.89376817 C6.17668677,7.95643409 6.06390564,7.90630637 5.99496436,7.78097452 C5.98243869,7.74964782 5.8821707,7.57418824 5.96990049,7.57418824 C6.08895698,7.57418824 6.00750255,7.48019562 5.99496436,7.39246583 C5.98243869,7.30473604 5.8947089,7.24833295 5.850844,7.17314135 C5.81324194,7.24833295 5.68791009,7.22954444 5.65032056,7.16687852 C5.65032056,7.18567955 5.63151953,7.21700625 5.63151953,7.24207011 C5.6001803,7.24207011 5.56885361,7.24833295 5.53752691,7.23580728 C5.55005258,7.16061568 5.55631541,7.06661053 5.57512897,6.98515611 C5.60645566,6.87236245 5.81324194,6.65303798 5.54378974,6.66556365 C5.44979712,6.67183901 5.41219506,6.70942854 5.38085583,6.7908955 C5.34952913,6.86608709 5.36206733,6.93501585 5.27433754,6.97261791 C5.21794697,6.99768178 5.0299492,6.98515611 4.97354611,6.95381688 C4.85448962,6.88488812 4.77303519,6.66556365 4.77303519,6.54024433 C4.76675983,6.37104758 4.85448962,6.22065187 4.77303519,6.06400585 C4.81062473,6.03267915 4.84822679,5.97001322 4.89207916,5.93868652 C4.92968122,5.91362266 4.97354611,5.95748755 4.99234714,5.88228343 C4.97354611,5.86975776 4.94848225,5.84468137 4.94221941,5.84468137 C5.03621204,5.88854627 5.21167161,5.78202797 5.29312604,5.84468137 C5.3432663,5.88228343 5.39966939,5.89482163 5.43099609,5.8321557 C5.43725892,5.81335467 5.38713119,5.73816308 5.41219506,5.68802282 C5.43099609,5.79455364 5.49992485,5.81335467 5.59391747,5.74442591 C5.63151953,5.78202797 5.73177499,5.76948978 5.80071627,5.80709184 C5.86963251,5.85095673 5.8821707,5.91988549 5.96363766,5.82589287 C6.01376539,5.90108446 6.02004075,5.90108446 6.03882925,5.97627606 C6.05763028,6.04520482 6.09521981,6.22066439 6.15789826,6.25200362 C6.28949295,6.33345805 6.25815372,6.1141461 6.24562805,6.03894198 C6.23935269,6.03267915 6.23935269,5.82589287 6.23308986,5.82589287 C6.03256642,5.78202797 6.10777053,5.62536943 6.22055166,5.51883861 C6.23935269,5.50630041 6.38348557,5.45617268 6.44613897,5.40604495 C6.50254206,5.35591722 6.57147082,5.26818743 6.54014412,5.18672048 C6.57147082,5.18672048 6.59653468,5.16165662 6.60907288,5.13032992 C6.59027185,5.12406708 6.51508026,5.06140116 6.50254206,5.06766399 C6.54640695,5.04260013 6.54014412,5.00501059 6.51508026,4.96740853 C6.57773365,4.929819 6.54640695,4.86089024 6.60907288,4.83581385 C6.67800164,4.92980647 6.81585916,4.82328818 6.7469304,4.74808406 C6.80959632,4.6603668 6.95371668,4.70423169 6.99131874,4.62276474 C7.08531136,4.6478286 7.0163826,4.52877211 7.06651033,4.45984335 C7.11037522,4.40345279 7.18557934,4.40345279 7.24196991,4.37211357 C7.24196991,4.3783764 7.39862846,4.28438378 7.34850073,4.27812094 C7.45503155,4.29064661 7.66808066,4.17786548 7.50515927,4.08387286 C7.53022314,4.02748229 7.44876871,4.00241843 7.39236562,3.98988024 C7.43623052,3.97735457 7.49262108,4.00241843 7.53022314,3.97735457 C7.61169009,3.920964 7.555287,3.89590014 7.48635824,3.87709911 C7.39862846,3.85203524 7.2858348,3.90842581 7.21690604,3.9522907 C7.16682842,3.98983013 7.13548919,4.05875889 7.07283579,4.07129709 Z M8.39502041,8.26342573 C8.35741835,8.22582367 8.28848959,8.23836186 8.23836186,8.213298 C8.18823413,8.19449697 8.15063207,8.17569594 8.08796615,8.16317027 C8.10050435,8.03783842 7.9626343,7.99397353 7.87491704,7.9313076 C7.79345008,7.86864168 7.74332235,7.79971292 7.62425334,7.82477678 C7.61172767,7.83105214 7.48639582,7.87491704 7.51145969,7.8999809 C7.43000526,7.83105214 7.3924032,7.79345008 7.28587238,7.76212338 C7.18561692,7.73078416 7.11668816,7.60545231 7.01642018,7.71825849 C6.96629245,7.76838622 6.99135631,7.84357781 6.96629245,7.89370554 C6.88482549,7.82477678 7.04148404,7.74332235 6.97881812,7.66811823 C6.90362652,7.58038845 6.77203184,7.72452132 6.70936591,7.76212338 C6.67177638,7.79345008 6.62791149,7.80598828 6.60284762,7.84357781 C6.5715084,7.88744271 6.55898273,7.9438458 6.53390634,7.98771069 C6.51511783,7.93757044 6.40858701,7.95010863 6.40231165,7.91250657 C6.42738804,8.06290229 6.42738804,8.21956083 6.45871474,8.36995655 C6.47751577,8.45768634 6.45871474,8.60180669 6.38352315,8.67073545 C6.30831903,8.73966421 6.21432641,8.81486833 6.20180074,8.92139915 C6.18926254,8.99659074 6.20806357,9.0655195 6.27699233,9.08432053 C6.28325516,9.17831315 6.17672435,9.24724191 6.18298718,9.3475099 C6.18298718,9.35377273 6.18926254,9.41643866 6.19552538,9.44776536 C7.05403476,9.29735712 7.81852647,8.87124637 8.39502041,8.26342573 Z" id="形状"></path>
                </g>
            </g>
        </g>
    </g>
</svg>