<?xml version="1.0" encoding="UTF-8"?>
<svg width="16px" height="17px" viewBox="0 0 16 17" version="1.1" xmlns="http://www.w3.org/2000/svg" xmlns:xlink="http://www.w3.org/1999/xlink">
    <title>移动端-分享</title>
    <g id="页面-1" stroke="none" stroke-width="1" fill="none" fill-rule="evenodd">
        <g id="B-01-首页-moment-关注" transform="translate(-279.000000, -520.000000)" fill="#000000" fill-rule="nonzero">
            <g id="hi/message/info/moment/card/single-pic" transform="translate(16.000000, 75.000000)">
                <g id="hi/message/info/moment/card/1-base" transform="translate(16.000000, 10.899371)">
                    <g id="操作组" transform="translate(8.000000, 434.335430)">
                        <g id="移动端_分享" transform="translate(239.000000, 0.000000)">
                            <rect id="矩形" opacity="0" x="1.6" y="1.58658281" width="12.7875122" height="12.6802794"></rect>
                            <path d="M7.99696158,14.2668622 C4.52522619,14.2586773 1.69377,11.5060604 1.61674476,8.06427578 C1.53971952,4.62249118 4.24524478,1.7480292 7.71319713,1.58715253 C8.05178708,1.57276322 8.33803195,1.83327804 8.35254295,2.16902866 C8.36705395,2.50477928 8.10433605,2.78862378 7.7657461,2.80301309 C4.97226759,2.9259696 2.78344369,5.22876243 2.82478785,8.00123999 C2.866132,10.7737175 5.12266396,13.0113268 7.91858741,13.0523243 C10.7145109,13.0933217 13.0367776,10.9228527 13.1607739,8.15279961 C13.167111,7.99118078 13.2385035,7.838822 13.3589854,7.72979599 C13.4794674,7.62076999 13.6389874,7.56417241 13.8018714,7.57266044 C13.9645278,7.57986493 14.1176135,7.65093367 14.2273659,7.77019278 C14.3371183,7.88945189 14.394522,8.04710477 14.3869166,8.20838181 C14.2421188,11.6012644 11.421588,14.2754728 7.99696158,14.2668622 Z M7.99696158,8.53492723 C7.74560206,8.54000238 7.51659501,8.39238649 7.41924027,8.16253327 C7.32188552,7.93268005 7.37591839,7.66718427 7.55555022,7.49276102 L12.1903696,2.90722972 C12.3413056,2.73748382 12.5748342,2.66492484 12.7964661,2.71891128 C13.018098,2.77289772 13.191144,2.94449261 13.245587,3.16426596 C13.30003,3.38403932 13.2268574,3.61560962 13.055676,3.7652799 L8.43136642,8.35428508 C8.31616504,8.46881783 8.16008861,8.53372038 7.99696158,8.53492723 L7.99696158,8.53492723 Z M12.6212712,3.94592204 L10.3091164,3.94592204 C9.97052643,3.94592204 9.69604504,3.67374238 9.69604504,3.33799175 C9.69604504,3.00224113 9.97052643,2.73006147 10.3091164,2.73006147 L12.6212712,2.73006147 C12.9598611,2.73006147 13.2343425,3.00224113 13.2343425,3.33799175 C13.2343425,3.67374238 12.9598611,3.94592204 12.6212712,3.94592204 L12.6212712,3.94592204 Z M12.6212712,6.23868771 C12.2826812,6.23868771 12.0081998,5.96650803 12.0081998,5.6307574 L12.0081998,3.3240962 C12.0081998,2.98834557 12.2826812,2.71616591 12.6212712,2.71616591 C12.9598611,2.71616591 13.2343425,2.98834557 13.2343425,3.3240962 L13.2343425,5.61686186 C13.2381152,5.78048893 13.1751933,5.93871233 13.0598086,6.05574462 C12.944424,6.1727769 12.7863251,6.23873045 12.6212712,6.23868771 L12.6212712,6.23868771 Z" id="形状"></path>
                        </g>
                    </g>
                </g>
            </g>
        </g>
    </g>
</svg>