<?xml version="1.0" encoding="UTF-8"?>
<svg width="16px" height="16px" viewBox="0 0 16 16" version="1.1" xmlns="http://www.w3.org/2000/svg" xmlns:xlink="http://www.w3.org/1999/xlink">
    <title>common/icon/send</title>
    <g id="HiDPI" stroke="none" stroke-width="1" fill="none" fill-rule="evenodd">
        <g id="B-07-首页-moment-创建moment" transform="translate(-343.000000, -52.000000)" fill="#000000" fill-rule="nonzero">
            <g id="hi/message/moment/edit-tool-bar" transform="translate(0.000000, 40.000000)">
                <g id="send" transform="translate(343.000000, 12.000000)">
                    <rect id="矩形" opacity="0" x="0" y="0" width="16" height="16"></rect>
                    <path d="M1.79583333,8.28833333 L6.25916667,10.9808333 C6.28447496,10.9958387 6.29999487,11.0230777 6.3,11.0525 L6.3,14.3333333 C6.3,14.3554347 6.30877973,14.3766309 6.32440776,14.3922589 C6.34003579,14.4078869 6.36123195,14.4166667 6.38333333,14.4166667 L7.38333333,14.4166667 C7.40543471,14.4166667 7.42663087,14.4078869 7.44225891,14.3922589 C7.45788694,14.3766309 7.46666668,14.3554347 7.46666667,14.3333333 L7.46666667,10.6916667 C7.46652731,10.670326 7.47458067,10.6497452 7.48916667,10.6341667 L11.105,6.75 C11.1207761,6.73435278 11.1296499,6.71305313 11.1296499,6.69083334 C11.1296499,6.66861354 11.1207761,6.64731389 11.105,6.63166667 L10.3733333,5.95083333 C10.3576861,5.93505727 10.3363865,5.92618347 10.3141667,5.92618347 C10.2919469,5.92618347 10.2706472,5.93505727 10.255,5.95083333 L6.68166667,9.78416667 C6.65455998,9.81339471 6.61055006,9.81933255 6.57666667,9.79833333 L4.2,8.365 C4.17351489,8.34955533 4.15764961,8.32081489 4.15869421,8.29017329 C4.15973881,8.25953168 4.17752456,8.23193844 4.205,8.21833333 L12.5966667,3.945 C12.6250553,3.93035496 12.6593173,3.93322652 12.6848722,3.95239265 C12.710427,3.97155878 12.7227771,4.00364632 12.7166667,4.035 L11.14,12.4308333 C11.1351552,12.4578134 11.1173519,12.4806853 11.0923859,12.4920032 C11.0674199,12.5033211 11.0384847,12.5016373 11.015,12.4875 L8.88916667,11.205 C8.85528001,11.1846689 8.81177345,11.1909338 8.785,11.22 L8.08916667,11.97 C8.07202085,11.988431 8.06412534,12.0136249 8.06768535,12.0385449 C8.07124535,12.063465 8.08587932,12.0854404 8.1075,12.0983333 L11.8508333,14.3566667 C11.8742515,14.3711646 11.9033206,14.373155 11.9284963,14.3619843 C11.9536721,14.3508136 11.9717021,14.3279249 11.9766667,14.3008333 L14.3016667,1.91666667 C14.3077771,1.88531299 14.295427,1.85322546 14.2698722,1.83405933 C14.2443173,1.8148932 14.2100553,1.81202163 14.1816667,1.82666667 L1.80083333,8.1425 C1.77377679,8.15624466 1.7563312,8.18361124 1.75524219,8.21394094 C1.75425145,8.24427064 1.76978171,8.27276782 1.79583333,8.28833333 Z" id="路径"></path>
                </g>
            </g>
        </g>
    </g>
</svg>