<?xml version="1.0" encoding="UTF-8"?>
<svg width="16px" height="16px" viewBox="0 0 16 16" version="1.1" xmlns="http://www.w3.org/2000/svg" xmlns:xlink="http://www.w3.org/1999/xlink">
    <title>message-rounded-alt</title>
    <g id="页面-1" stroke="none" stroke-width="1" fill="none" fill-rule="evenodd">
        <g id="B-04-moment-mine" transform="translate(-120.000000, -337.000000)" fill="#000000" fill-rule="nonzero">
            <g id="hi/message/info/moment/card/single-pic" transform="translate(16.000000, 75.000000)">
                <g id="操作组" transform="translate(24.000000, 262.000000)">
                    <g id="message-rounded-alt" transform="translate(80.000000, 0.000000)">
                        <rect id="矩形" opacity="0" x="0" y="0" width="16" height="16"></rect>
                        <path d="M8,2 C3.82533333,2 1.33333333,3.99333333 1.33333333,7.33333333 C1.33333333,10.2086667 3.266,11.7673333 7.08333333,11.976 L6.70133333,13.1226667 C6.63365296,13.3258702 6.667723,13.549217 6.79291007,13.7229999 C6.91809715,13.8967828 7.11915519,13.9998374 7.33333333,14 L7.35933333,13.9993333 C9.88666667,13.9 14.6666667,12.3773333 14.6666667,7.33333333 C14.6666667,4.75533333 12.9153333,2 8,2 Z M8.29866667,12.5446667 L8.632,11.544 C8.69968037,11.3407965 8.66561033,11.1174496 8.54042325,10.9436667 C8.41523618,10.7698838 8.21417814,10.6668293 8,10.6666667 C3.27266667,10.6666667 2.66666667,8.88533334 2.66666667,7.33333333 C2.66666667,4.79133333 4.61066667,3.33333333 8,3.33333333 C11.34,3.33333333 13.3333333,4.82866666 13.3333333,7.33333333 C13.3333333,11.136 10.014,12.2326667 8.29866667,12.5446667 Z" id="形状"></path>
                    </g>
                </g>
            </g>
        </g>
    </g>
</svg>