<?xml version="1.0" encoding="UTF-8"?>
<svg width="20px" height="20px" viewBox="0 0 20 20" version="1.1" xmlns="http://www.w3.org/2000/svg" xmlns:xlink="http://www.w3.org/1999/xlink">
    <title>crayon</title>
    <g id="页面-1" stroke="none" stroke-width="1" fill="none" fill-rule="evenodd">
        <g id="B-01-首页-moment-关注" transform="translate(-334.000000, -34.000000)" fill-rule="nonzero">
            <g id="hi/message/moment/page-tool" transform="translate(296.000000, 29.000000)">
                <g id="crayon" transform="translate(38.000000, 5.000000)">
                    <rect id="矩形" fill="#000000" opacity="0" x="0" y="0" width="20" height="20"></rect>
                    <path d="M18.2957695,3.97391305 C19.2347435,4.91304349 19.2347435,6.40000001 18.2957695,7.33913043 L8.9451539,16.6913043 L8.90602999,16.7304348 L8.86690606,16.7695652 C8.82778215,16.8086956 8.78865823,16.8086956 8.74953432,16.8478261 L8.71041041,16.8478261 L4.40677978,18.7652174 C4.09378845,18.9217391 3.74167322,19 3.42868191,19 C2.80269928,19 2.17671664,18.7652174 1.70722966,18.2956522 C1.00299919,17.5913043 0.807379631,16.4956522 1.19861877,15.5956522 L3.11569059,11.2913043 L3.11569059,11.2521739 C3.11569059,11.2130435 3.1548145,11.173913 3.19393843,11.1347826 L3.23306233,11.0956522 L3.27218626,11.0565217 L12.6619258,1.70434783 C13.1314128,1.23478261 13.7182715,1 14.3442541,1 C14.9702368,1 15.5570955,1.23478261 16.0265825,1.70434783 L18.2957695,3.97391305 Z M17.2002999,6.24347826 C17.5132912,5.93043478 17.5132912,5.42173913 17.2002999,5.10869565 L14.9311129,2.83913044 C14.6181215,2.52608696 14.0703867,2.52608696 13.7965193,2.83913044 L12.5445541,4.09130436 L15.9874586,7.53478261 L17.2002999,6.24347826 L17.2002999,6.24347826 Z M8.39741908,15.0478261 L14.852865,8.59130435 L11.4099605,5.1478261 L4.95451459,11.6043478 L6.67596685,13.3260869 L8.39741908,15.0478261 Z M3.78079715,17.3565217 L7.02808208,15.9086956 L4.09378847,12.973913 L2.64620361,16.2217391 C2.48970796,16.5347826 2.56795578,16.926087 2.80269928,17.1608696 C3.07656668,17.4347826 3.42868191,17.5130435 3.78079715,17.3565217 Z" id="形状" fill="#2C362D"></path>
                </g>
            </g>
        </g>
    </g>
</svg>