<?xml version="1.0" encoding="UTF-8"?>
<svg width="20px" height="21px" viewBox="0 0 20 21" version="1.1" xmlns="http://www.w3.org/2000/svg" xmlns:xlink="http://www.w3.org/1999/xlink">
    <title>liked</title>
    <g id="页面-1" stroke="none" stroke-width="1" fill="none" fill-rule="evenodd">
        <g id="B-02-首页-moment-09" transform="translate(-38.000000, -543.000000)" fill="#000000" fill-rule="nonzero">
            <g id="hi/message/info/moment/card/single-pic" transform="translate(16.000000, 75.000000)">
                <g id="操作组" transform="translate(22.000000, 468.223108)">
                    <g id="common/info/like-number" transform="translate(0.000000, 0.015936)">
                        <g id="liked" transform="translate(0.000000, 0.000000)">
                            <rect id="矩形" opacity="0" x="0" y="0" width="20" height="19.8406375"></rect>
                            <path d="M9.99306158,16.8034544 C8.30008673,16.8034544 6.30182134,15.7296853 4.66435386,13.9400701 C2.97137901,12.0816236 2,9.85148773 2,7.81407969 C2,5.55641131 3.83174328,3.03718344 6.28794449,3.03718344 C7.81242999,3.03656557 9.22280826,3.83832006 9.99306158,5.1434232 C10.7424111,3.89069258 12.1300954,3.03718344 13.6981787,3.03718344 C16.1543799,3.03718344 18,5.55641131 18,7.81407969 C18,9.85148773 17.028621,12.0816236 15.3217693,13.9400701 C13.6843018,15.7296853 11.6999133,16.8034544 9.99306158,16.8034544 Z M6.28794449,4.20731246 C4.53946227,4.20731246 3.17953166,6.14836095 3.17953166,7.81407969 C3.17953166,11.5998041 7.17606245,15.6333214 9.99306158,15.6333214 C12.8100607,15.6333214 16.8204683,11.5998041 16.8204683,7.81407969 C16.8204683,6.14836095 15.4605377,4.20731246 13.6981787,4.20731246 C12.8733527,4.2059435 12.0819112,4.53038554 11.4986703,5.10897904 C10.9154295,5.68757254 10.5883815,6.47270778 10.5897658,7.2909614 C10.5897658,7.6213519 10.3261058,7.88291104 9.99306158,7.88291104 C9.67389419,7.88291104 9.41023417,7.6213519 9.41023417,7.2909614 C9.41023417,5.58394385 8.00867303,4.20731246 6.28794449,4.20731246 Z" id="形状"></path>
                        </g>
                    </g>
                </g>
            </g>
        </g>
    </g>
</svg>