<?xml version="1.0" encoding="UTF-8"?>
<svg width="13px" height="14px" viewBox="0 0 13 14" version="1.1" xmlns="http://www.w3.org/2000/svg" xmlns:xlink="http://www.w3.org/1999/xlink">
    <title>common/icon/location</title>
    <g id="HiDPI" stroke="none" stroke-width="1" fill="none" fill-rule="evenodd">
        <g id="B-07-首页-moment-创建moment" transform="translate(-14.000000, -556.000000)" fill="#000000" fill-rule="nonzero">
            <g id="hi/message/moment/edit/location" transform="translate(8.000000, 555.000000)">
                <g id="bg-localtion备份" transform="translate(6.000000, 1.000000)">
                    <rect id="矩形" opacity="0" x="0.8125" y="0.8125" width="11.375" height="11.375"></rect>
                    <path d="M8.25836291,7.27503288 C7.41735895,8.1357689 6.09997534,8.26797658 5.11192357,7.59079773 C4.1238718,6.91361889 3.74036166,5.61567344 4.19594784,4.49078449 C4.65153403,3.36589554 5.81931856,2.72738721 6.98508472,2.96577102 C8.15085088,3.20415484 8.9898887,4.25303189 8.98905267,5.47090925 C8.99090407,6.14821763 8.72772422,6.79803565 8.25836291,7.27503288 Z M10.9182482,3.45136788 C10.6602269,2.92666535 10.3028363,2.45983147 9.86691016,2.07807974 C9.41312098,1.67822219 8.89332139,1.36453944 8.33195658,1.15178344 C7.74696975,0.927232356 7.12732873,0.812308401 6.50262834,0.81250024 C5.87792796,0.812308403 5.25828694,0.927232357 4.67330011,1.15178344 C4.11231686,1.36290805 3.59254198,1.67475222 3.13834653,2.0726943 C2.70231849,2.45434594 2.34491065,2.92120237 2.08700847,3.44598243 C1.8293363,3.96515928 1.69259067,4.53844265 1.6875,5.12085541 C1.69809063,5.98211735 1.89560899,6.83017386 2.26573594,7.60354495 C2.6194546,8.35206425 3.06842863,9.04926416 3.60093529,9.67694076 C4.37845986,10.5888071 5.26101211,11.4007507 6.22928045,12.095005 C6.31084803,12.1539456 6.4080716,12.1858943 6.50788503,12.1865575 C6.60318169,12.1925227 6.69812449,12.1700762 6.78123293,12.1219322 C7.74982444,11.4280949 8.63242357,10.6161082 9.4095781,9.70386798 C9.94174077,9.07592391 10.3906834,8.37877273 10.7447774,7.63047217 C11.114912,6.84798621 11.3089199,5.99037465 11.3125,5.12085541 C11.3082305,4.54069284 11.1733114,3.96936841 10.9182482,3.45136788 L10.9182482,3.45136788 Z M6.49737166,3.82296349 C5.60899555,3.82296349 4.88882442,4.56077394 4.88882442,5.47090925 C4.88882442,6.38104456 5.60899555,7.11885501 6.49737166,7.11885501 C7.38574777,7.11885501 8.10591889,6.38104456 8.10591889,5.47090925 C8.10591889,4.56287294 7.3889509,3.82593093 6.50262834,3.82296349 L6.49737166,3.82296349 Z" id="形状"></path>
                </g>
            </g>
        </g>
    </g>
</svg>