<?xml version="1.0" encoding="UTF-8"?>
<svg width="12px" height="12px" viewBox="0 0 12 12" version="1.1" xmlns="http://www.w3.org/2000/svg" xmlns:xlink="http://www.w3.org/1999/xlink">
    <title>id</title>
    <defs>
        <filter id="filter-1">
            <feColorMatrix in="SourceGraphic" type="matrix" values="0 0 0 0 0.000000 0 0 0 0 0.000000 0 0 0 0 0.000000 0 0 0 1.000000 0"></feColorMatrix>
        </filter>
    </defs>
    <g id="HiDPI" stroke="none" stroke-width="1" fill="none" fill-rule="evenodd">
        <g id="user-detail-base" transform="translate(-120.000000, -162.000000)">
            <g id="hi/message/info/user-id-tag" transform="translate(118.000000, 160.000000)">
                <g id="ID" transform="translate(2.000000, 2.000000)" filter="url(#filter-1)">
                    <g>
                        <rect id="矩形" fill="#000000" fill-rule="nonzero" opacity="0" x="0" y="0" width="12" height="12"></rect>
                        <path d="M2.4,9.8745 C1.69583694,9.8745 1.125,9.30366306 1.125,8.5995 L1.125,3.4005 C1.125,2.6955 1.695,2.1255 2.4,2.1255 L9.6,2.1255 C10.305,2.1255 10.875,2.6955 10.875,3.4005 L10.875,8.5995 C10.875,9.30366306 10.3041631,9.8745 9.6,9.8745 L2.4,9.8745 L2.4,9.8745 Z M2.4,9.1245 L9.6,9.1245 C9.88994949,9.1245 10.125,8.88944949 10.125,8.5995 L10.125,3.4005 C10.125,3.11055051 9.88994949,2.8755 9.6,2.8755 L2.4,2.8755 C2.11005051,2.8755 1.875,3.11055051 1.875,3.4005 L1.875,8.5995 C1.875,8.88944949 2.11005051,9.1245 2.4,9.1245 Z" id="形状" fill="#A6AFC1" fill-rule="nonzero"></path>
                        <path d="M4.23525,3.99 C4.31775,3.99 4.38525,4.0575 4.38525,4.14 L4.38525,7.935 C4.38525,8.01784271 4.31809271,8.08500188 4.23525,8.08500188 L3.75075,8.08500188 C3.71083774,8.08519956 3.67249169,8.06948418 3.64419882,8.04133207 C3.61590594,8.01317995 3.6,7.97491276 3.6,7.935 L3.6,4.14 C3.6,4.0575 3.6675,3.99 3.75,3.99 L4.23525,3.99 L4.23525,3.99 Z M8.54475,6.039 C8.5781237,6.58191182 8.40081997,7.11677807 8.04975,7.53225 C7.70475,7.89975 7.197,8.085 6.54,8.085 L5.13975,8.085 C5.07666707,8.085 5.02541231,8.03408159 5.02497791,7.971 L5.02497791,4.107 C5.02439554,4.07617845 5.03621786,4.04640996 5.05780352,4.02440105 C5.07938919,4.00239214 5.10892253,3.99 5.13975,3.99 L6.549,3.99 C7.20675,3.99 7.71375,4.1775 8.05875,4.545 C8.409,4.9605 8.58375,5.49675 8.54475,6.039 L8.54475,6.039 Z M7.83,6.039 C7.83,5.53875 7.725,5.18025 7.4985,4.9515 C7.27275,4.72275 6.912,4.614 6.4185,4.614 L5.856,4.614 C5.79350284,4.61481573 5.74315319,4.66549882 5.74275,4.728 L5.74275,7.35 C5.74275,7.413 5.79375,7.464 5.85675,7.464 L6.41925,7.464 C6.912,7.464 7.2705,7.34775 7.49925,7.119 C7.7445,6.81525 7.86375,6.42825 7.83,6.039 Z" id="形状" fill="#A6AFC1" fill-rule="nonzero"></path>
                    </g>
                </g>
            </g>
        </g>
    </g>
</svg>