<?xml version="1.0" encoding="UTF-8"?>
<svg width="12px" height="12px" viewBox="0 0 12 12" version="1.1" xmlns="http://www.w3.org/2000/svg" xmlns:xlink="http://www.w3.org/1999/xlink">
    <title>common/icon/search_close</title>
    <defs>
        <filter id="filter-1">
            <feColorMatrix in="SourceGraphic" type="matrix" values="0 0 0 0 0.000000 0 0 0 0 0.000000 0 0 0 0 0.000000 0 0 0 0.300000 0"></feColorMatrix>
        </filter>
    </defs>
    <g id="页面-1" stroke="none" stroke-width="1" fill="none" fill-rule="evenodd">
        <g id="F-05-Room-用户操作" transform="translate(-319.000000, -253.000000)">
            <g id="common/icon/search-close" transform="translate(32.000000, 201.000000)" filter="url(#filter-1)">
                <g transform="translate(287.000000, 52.000000)" id="search-close" fill-rule="nonzero">
                    <rect id="矩形" fill="#000000" opacity="0" x="0" y="0" width="12" height="12"></rect>
                    <path d="M6,4.425 L9.15,1.275 C9.6,0.825 10.275,0.825 10.725,1.275 C11.175,1.725 11.175,2.4 10.725,2.85 L7.575,6 L10.725,9.15 C11.175,9.6 11.175,10.275 10.725,10.725 C10.275,11.175 9.6,11.175 9.15,10.725 L6,7.575 L2.85,10.725 C2.4,11.175 1.725,11.175 1.275,10.725 C0.825,10.275 0.825,9.6 1.275,9.15 L4.425,6 L1.275,2.85 C0.825,2.4 0.825,1.725 1.275,1.275 C1.725,0.825 2.4,0.825 2.85,1.275 L6,4.425 Z" id="路径" fill="#515151"></path>
                </g>
            </g>
        </g>
    </g>
</svg>