<?xml version="1.0" encoding="UTF-8"?>
<svg width="20px" height="20px" viewBox="0 0 20 20" version="1.1" xmlns="http://www.w3.org/2000/svg" xmlns:xlink="http://www.w3.org/1999/xlink">
    <title>planet</title>
    <defs>
        <filter id="filter-1">
            <feColorMatrix in="SourceGraphic" type="matrix" values="0 0 0 0 0.105882 0 0 0 0 0.250980 0 0 0 0 0.117647 0 0 0 1.000000 0"></feColorMatrix>
        </filter>
    </defs>
    <g id="页面-1" stroke="none" stroke-width="1" fill="none" fill-rule="evenodd">
        <g id="A-01-T-01首页-推荐-双列-en" transform="translate(-131.000000, -622.000000)">
            <g id="Moment" transform="translate(0.000000, 614.000000)" filter="url(#filter-1)">
                <g transform="translate(117.000000, 8.000000)">
                    <g id="common/icon/moment" transform="translate(14.000000, 0.000000)" fill-rule="nonzero">
                        <g id="planet">
                            <rect id="矩形" fill="#000000" opacity="0" x="0" y="0.937514518" width="20" height="19.047619"></rect>
                            <g id="编组" transform="translate(1.000000, 1.000000)" fill="#2F3CF4">
                                <path d="M9.52260799,1.63636364 L17.5201476,16.8026608 C17.6401107,17.0421286 17.6401107,17.3614191 17.4801599,17.6008869 C17.3202091,17.8403548 17.0802829,18 16.8003691,18 L0.805289795,18 C0.525375914,18 0.245462015,17.8403548 0.125498939,17.6008869 C-0.0344518471,17.3614191 -0.0344518471,17.0820399 0.0855112285,16.8026608 L8.08305086,1.63636364 C8.24300165,1.35698449 8.52291554,1.19733925 8.80282943,1.19733925 C9.08274331,1.19733925 9.36265721,1.35698447 9.52260799,1.63636364 Z M8.80282943,3.71175166 L5.92371516,9.17960089 C6.16364135,9.29933481 6.48354294,9.37915743 6.92340761,9.37915743 C7.76314927,9.41906874 8.16302624,9.21951221 8.64287864,8.94013304 C9.20270642,8.62084257 9.92248499,8.26164079 11.2020913,8.30155211 L11.242079,8.30155211 L8.80282943,3.71175166 Z M15.0009226,0 C16.6404183,0 18,1.35698449 18,2.99334811 C18,4.62971174 16.6404183,5.98669623 15.0009226,5.98669623 C13.361427,5.98669623 12.0018453,4.62971175 12.0018453,2.99334811 C12.0018453,1.35698447 13.361427,0 15.0009226,0 Z" id="形状"></path>
                            </g>
                        </g>
                    </g>
                </g>
            </g>
        </g>
    </g>
</svg>