<?xml version="1.0" encoding="UTF-8"?>
<svg width="21px" height="20px" viewBox="0 0 21 20" version="1.1" xmlns="http://www.w3.org/2000/svg" xmlns:xlink="http://www.w3.org/1999/xlink">
    <title>common/icon/chat</title>
    <defs>
        <filter id="filter-1">
            <feColorMatrix in="SourceGraphic" type="matrix" values="0 0 0 0 0.825206 0 0 0 0 0.841794 0 0 0 0 0.826700 0 0 0 1.000000 0"></feColorMatrix>
        </filter>
    </defs>
    <g id="页面-1" stroke="none" stroke-width="1" fill="none" fill-rule="evenodd">
        <g id="A-02-首页-推荐-单列-en" transform="translate(-228.000000, -622.000000)">
            <g id="Chat" transform="translate(0.000000, 614.000000)" filter="url(#filter-1)">
                <g transform="translate(214.146449, 8.000000)">
                    <g id="common/icon/moment" transform="translate(14.000000, 0.000000)" fill="#000000" fill-rule="nonzero">
                        <g id="chat-smile-3-line">
                            <rect id="矩形" opacity="0" x="0" y="0" width="20" height="20"></rect>
                            <g id="编组-2" transform="translate(2.000000, 2.000000)">
                                <path d="M0.126321303,8 C0.126321303,3.5816 3.67964428,0 8.06316065,0 C12.446677,0 16,3.5816 16,8 C16,12.4184 12.446677,16 8.06316065,16 C3.37222446,16 0.726611342,16 0.126321303,16 C-0.110783003,16 0.0586448022,15.6344339 0.0586448022,15.6344339 C0.265455317,15.397947 1.06291423,14.7387357 2.45102155,13.6568 C0.96026982,12.1580807 0.123637139,10.1222639 0.126321303,8 Z M3.95822734,14.4 L8.06316065,14.4 C11.5698769,14.4 14.4126321,11.5346224 14.4126321,8 C14.4126321,4.46537761 11.5698769,1.60000001 8.06316065,1.60000001 C4.55644439,1.60000001 1.71368918,4.46537761 1.71368918,8 C1.71368918,9.7216 2.38911421,11.332 3.57329064,12.5256 L4.69555971,13.6568 L3.95822734,14.4 L3.95822734,14.4 Z" id="形状"></path>
                                <g id="编组" transform="translate(4.500000, 8.000000)">
                                    <path d="M3.333,-2.66453526e-15 L3.333,3.329 L3.18571603,3.33379427 C1.38660661,3.33379427 -0.989153098,0.150254318 0.435280831,0.00554795639 L0.540880801,0.000460929078 L3.333,-2.66453526e-15 Z" id="形状结合"></path>
                                    <path d="M6.66633334,-2.66453526e-15 L6.66633334,3.329 L6.51904937,3.33379427 C4.71993995,3.33379427 2.34418024,0.150254318 3.76861417,0.00554795639 L3.87421414,0.000460929078 L6.66633334,-2.66453526e-15 Z" id="形状结合备份" transform="translate(4.999833, 1.666897) scale(-1, 1) translate(-4.999833, -1.666897) "></path>
                                </g>
                            </g>
                        </g>
                    </g>
                </g>
            </g>
        </g>
    </g>
</svg>